<svg version="1.1" id="Layer_1" xmlns="http://www.w3.org/2000/svg" xmlns:xlink="http://www.w3.org/1999/xlink" x="0px" y="0px"
	 width="100%" viewBox="0 0 348 286" enable-background="new 0 0 348 286" xml:space="preserve">
<path fill="#F3F3F3" opacity="1.000000" stroke="none" 
	d="
M248.000000,287.000000 
	C165.333344,287.000000 83.166695,287.000000 1.000033,287.000000 
	C1.000022,191.666702 1.000022,96.333397 1.000011,1.000072 
	C116.999947,1.000048 232.999893,1.000048 348.999878,1.000024 
	C348.999939,96.333260 348.999939,191.666519 348.999969,286.999878 
	C315.500000,287.000000 282.000000,287.000000 248.000000,287.000000 
M105.644073,189.186417 
	C105.020477,190.981354 104.396881,192.776306 103.624252,195.000229 
	C122.493622,195.000229 140.624908,194.859055 158.751114,195.099899 
	C163.258194,195.159790 165.330399,193.306747 166.721436,189.374069 
	C171.044830,177.151199 175.573349,165.000961 179.997131,152.813416 
	C180.522430,151.366241 180.892273,149.862656 181.449326,148.000168 
	C161.743286,148.000168 142.778992,147.922241 123.818413,148.151703 
	C122.340637,148.169601 120.128159,150.044632 119.545212,151.553986 
	C114.823555,163.779312 110.409935,176.123581 105.644073,189.186417 
M199.191406,88.172928 
	C202.624405,88.788002 204.194321,87.121498 205.304474,83.964272 
	C209.555817,71.873734 214.065170,59.874043 218.448318,47.829559 
	C218.925552,46.518204 219.209274,45.136425 219.673157,43.460766 
	C199.963120,43.460766 180.807419,43.424431 161.652817,43.550236 
	C160.492325,43.557858 158.658295,44.599060 158.287018,45.589977 
	C153.051270,59.564007 148.014938,73.612770 142.738312,88.172989 
	C161.661163,88.172989 179.958344,88.172989 199.191406,88.172928 
M177.542358,190.082870 
	C177.039810,191.608612 176.537277,193.134369 175.930420,194.976837 
	C193.230270,194.976837 210.047699,194.927292 226.864410,195.013824 
	C230.766754,195.033905 232.456375,192.867920 233.616348,189.591003 
	C237.114471,179.708694 240.708084,169.860153 244.278992,160.003693 
	C245.677261,156.144211 247.114075,152.298706 248.757492,147.838486 
	C230.305359,147.838486 212.669785,147.759048 195.038803,148.006989 
	C193.787018,148.024582 192.003891,150.237030 191.424774,151.786545 
	C186.764587,164.255646 182.334229,176.810654 177.542358,190.082870 
M103.338303,164.879501 
	C105.340691,159.377121 107.343079,153.874725 109.539139,147.840149 
	C91.402603,147.840149 74.272079,147.745270 57.146942,148.005051 
	C55.638851,148.027908 53.419159,150.080643 52.796402,151.682816 
	C48.340302,163.147125 44.134060,174.711197 40.013676,186.302292 
	C37.948029,192.113205 39.977871,194.938843 46.149185,194.974350 
	C60.129662,195.054810 74.111748,194.918900 88.091225,195.062180 
	C91.290710,195.094971 92.948257,193.904892 93.970604,190.963486 
	C96.917946,182.483673 100.040054,174.064636 103.338303,164.879501 
M118.500221,43.458080 
	C111.508980,43.460369 104.494469,43.140388 97.539345,43.642731 
	C95.159828,43.814594 91.611534,45.517139 90.842598,47.425205 
	C85.512383,60.651814 80.774376,74.117081 75.864189,87.457085 
	C76.611763,87.827393 76.892731,88.088020 77.174316,88.088692 
	C94.318848,88.129578 111.464676,88.240364 128.605820,88.008598 
	C130.078827,87.988678 132.245880,85.966370 132.859283,84.393929 
	C136.725754,74.482277 140.261261,64.440994 143.868225,54.428886 
	C145.135330,50.911690 146.295624,47.356014 147.627563,43.458340 
	C137.797653,43.458340 128.648926,43.458340 118.500221,43.458080 
M260.457825,88.168777 
	C261.790680,88.168777 263.163788,87.959198 264.449158,88.206291 
	C269.159607,89.111786 271.018616,86.887207 272.433502,82.559128 
	C275.584869,72.919212 279.428345,63.506702 282.937439,53.982224 
	C285.853394,46.067654 283.841125,43.224594 275.256470,43.173965 
	C266.093414,43.119923 256.929047,43.090824 247.766739,43.188831 
	C242.464020,43.245556 235.815491,41.706329 232.232910,44.292934 
	C228.461182,47.016098 227.453201,53.736843 225.536804,58.823608 
	C221.926987,68.405304 218.532013,78.067932 214.876968,88.168823 
	C230.174683,88.168823 244.821930,88.168823 260.457825,88.168777 
M174.467270,137.839035 
	C178.112900,137.839035 181.758530,137.839035 185.458328,137.839035 
	C190.194595,124.829964 194.824249,112.113747 199.783691,98.491669 
	C179.915909,98.491669 160.955093,98.445396 141.995743,98.590652 
	C140.661438,98.600876 138.556824,99.725044 138.129410,100.837837 
	C133.497192,112.897881 129.129135,125.059372 124.452660,137.838989 
	C141.296951,137.838989 157.387665,137.838989 174.467270,137.839035 
M191.645782,251.464935 
	C191.645782,235.746338 191.645782,220.027740 191.645782,204.401474 
	C177.929993,204.401474 165.005585,204.401474 152.000092,204.401474 
	C152.000092,223.722733 152.000092,242.758667 152.000092,261.990479 
	C165.234558,261.990479 178.154449,261.990479 191.645630,261.990479 
	C191.645630,258.693115 191.645630,255.570984 191.645782,251.464935 
M60.835583,129.232315 
	C59.871826,131.817215 58.908073,134.402130 57.806129,137.357666 
	C76.809181,137.357666 95.095985,137.357666 113.564842,137.357666 
	C118.183838,124.712067 122.808807,112.050087 127.762802,98.487328 
	C109.712669,98.487328 92.729462,98.382263 75.752220,98.652664 
	C74.086433,98.679207 71.632240,100.673126 70.949669,102.332184 
	C67.405060,110.947739 64.316628,119.750984 60.835583,129.232315 
M211.507950,137.839478 
	C223.823151,137.839355 236.139191,137.906418 248.452469,137.752136 
	C249.952713,137.733353 252.370468,136.886841 252.787506,135.812408 
	C257.456665,123.782700 261.816467,111.632896 266.298248,99.409813 
	C265.398315,99.141495 264.947815,98.890472 264.496796,98.889572 
	C247.855057,98.856453 231.211060,98.719666 214.574722,99.014046 
	C212.751694,99.046310 210.094437,101.202415 209.328766,103.010597 
	C206.351120,110.042305 203.966782,117.326157 201.389175,124.526024 
	C199.855194,128.810760 198.372482,133.113861 196.715698,137.839447 
	C201.873428,137.839447 206.193298,137.839447 211.507950,137.839478 
z"/>
<path fill="#263C67" opacity="1.000000" stroke="none" 
	d="
M105.773224,188.809006 
	C110.409935,176.123581 114.823555,163.779312 119.545212,151.553986 
	C120.128159,150.044632 122.340637,148.169601 123.818413,148.151703 
	C142.778992,147.922241 161.743286,148.000168 181.449326,148.000168 
	C180.892273,149.862656 180.522430,151.366241 179.997131,152.813416 
	C175.573349,165.000961 171.044830,177.151199 166.721436,189.374069 
	C165.330399,193.306747 163.258194,195.159790 158.751114,195.099899 
	C140.624908,194.859055 122.493622,195.000229 103.624252,195.000229 
	C104.396881,192.776306 105.020477,190.981354 105.773224,188.809006 
z"/>
<path fill="#283E68" opacity="1.000000" stroke="none" 
	d="
M198.723465,88.172958 
	C179.958344,88.172989 161.661163,88.172989 142.738312,88.172989 
	C148.014938,73.612770 153.051270,59.564007 158.287018,45.589977 
	C158.658295,44.599060 160.492325,43.557858 161.652817,43.550236 
	C180.807419,43.424431 199.963120,43.460766 219.673157,43.460766 
	C219.209274,45.136425 218.925552,46.518204 218.448318,47.829559 
	C214.065170,59.874043 209.555817,71.873734 205.304474,83.964272 
	C204.194321,87.121498 202.624405,88.788002 198.723465,88.172958 
z"/>
<path fill="#263C67" opacity="1.000000" stroke="none" 
	d="
M177.687988,189.711136 
	C182.334229,176.810654 186.764587,164.255646 191.424774,151.786545 
	C192.003891,150.237030 193.787018,148.024582 195.038803,148.006989 
	C212.669785,147.759048 230.305359,147.838486 248.757492,147.838486 
	C247.114075,152.298706 245.677261,156.144211 244.278992,160.003693 
	C240.708084,169.860153 237.114471,179.708694 233.616348,189.591003 
	C232.456375,192.867920 230.766754,195.033905 226.864410,195.013824 
	C210.047699,194.927292 193.230270,194.976837 175.930420,194.976837 
	C176.537277,193.134369 177.039810,191.608612 177.687988,189.711136 
z"/>
<path fill="#263C67" opacity="1.000000" stroke="none" 
	d="
M103.215912,165.250610 
	C100.040054,174.064636 96.917946,182.483673 93.970604,190.963486 
	C92.948257,193.904892 91.290710,195.094971 88.091225,195.062180 
	C74.111748,194.918900 60.129662,195.054810 46.149185,194.974350 
	C39.977871,194.938843 37.948029,192.113205 40.013676,186.302292 
	C44.134060,174.711197 48.340302,163.147125 52.796402,151.682816 
	C53.419159,150.080643 55.638851,148.027908 57.146942,148.005051 
	C74.272079,147.745270 91.402603,147.840149 109.539139,147.840149 
	C107.343079,153.874725 105.340691,159.377121 103.215912,165.250610 
z"/>
<path fill="#283E68" opacity="1.000000" stroke="none" 
	d="
M119.000214,43.458210 
	C128.648926,43.458340 137.797653,43.458340 147.627563,43.458340 
	C146.295624,47.356014 145.135330,50.911690 143.868225,54.428886 
	C140.261261,64.440994 136.725754,74.482277 132.859283,84.393929 
	C132.245880,85.966370 130.078827,87.988678 128.605820,88.008598 
	C111.464676,88.240364 94.318848,88.129578 77.174316,88.088692 
	C76.892731,88.088020 76.611763,87.827393 75.864189,87.457085 
	C80.774376,74.117081 85.512383,60.651814 90.842598,47.425205 
	C91.611534,45.517139 95.159828,43.814594 97.539345,43.642731 
	C104.494469,43.140388 111.508980,43.460369 119.000214,43.458210 
z"/>
<path fill="#273D67" opacity="1.000000" stroke="none" 
	d="
M259.963501,88.168800 
	C244.821930,88.168823 230.174683,88.168823 214.876968,88.168823 
	C218.532013,78.067932 221.926987,68.405304 225.536804,58.823608 
	C227.453201,53.736843 228.461182,47.016098 232.232910,44.292934 
	C235.815491,41.706329 242.464020,43.245556 247.766739,43.188831 
	C256.929047,43.090824 266.093414,43.119923 275.256470,43.173965 
	C283.841125,43.224594 285.853394,46.067654 282.937439,53.982224 
	C279.428345,63.506702 275.584869,72.919212 272.433502,82.559128 
	C271.018616,86.887207 269.159607,89.111786 264.449158,88.206291 
	C263.163788,87.959198 261.790680,88.168777 259.963501,88.168800 
z"/>
<path fill="#273D67" opacity="1.000000" stroke="none" 
	d="
M173.972824,137.839020 
	C157.387665,137.838989 141.296951,137.838989 124.452660,137.838989 
	C129.129135,125.059372 133.497192,112.897881 138.129410,100.837837 
	C138.556824,99.725044 140.661438,98.600876 141.995743,98.590652 
	C160.955093,98.445396 179.915909,98.491669 199.783691,98.491669 
	C194.824249,112.113747 190.194595,124.829964 185.458328,137.839035 
	C181.758530,137.839035 178.112900,137.839035 173.972824,137.839020 
z"/>
<path fill="#283E68" opacity="1.000000" stroke="none" 
	d="
M191.645706,251.956894 
	C191.645630,255.570984 191.645630,258.693115 191.645630,261.990479 
	C178.154449,261.990479 165.234558,261.990479 152.000092,261.990479 
	C152.000092,242.758667 152.000092,223.722733 152.000092,204.401474 
	C165.005585,204.401474 177.929993,204.401474 191.645782,204.401474 
	C191.645782,220.027740 191.645782,235.746338 191.645706,251.956894 
z"/>
<path fill="#293E69" opacity="1.000000" stroke="none" 
	d="
M60.952438,128.860580 
	C64.316628,119.750984 67.405060,110.947739 70.949669,102.332184 
	C71.632240,100.673126 74.086433,98.679207 75.752220,98.652664 
	C92.729462,98.382263 109.712669,98.487328 127.762802,98.487328 
	C122.808807,112.050087 118.183838,124.712067 113.564842,137.357666 
	C95.095985,137.357666 76.809181,137.357666 57.806129,137.357666 
	C58.908073,134.402130 59.871826,131.817215 60.952438,128.860580 
z"/>
<path fill="#273D68" opacity="1.000000" stroke="none" 
	d="
M211.010559,137.839462 
	C206.193298,137.839447 201.873428,137.839447 196.715698,137.839447 
	C198.372482,133.113861 199.855194,128.810760 201.389175,124.526024 
	C203.966782,117.326157 206.351120,110.042305 209.328766,103.010597 
	C210.094437,101.202415 212.751694,99.046310 214.574722,99.014046 
	C231.211060,98.719666 247.855057,98.856453 264.496796,98.889572 
	C264.947815,98.890472 265.398315,99.141495 266.298248,99.409813 
	C261.816467,111.632896 257.456665,123.782700 252.787506,135.812408 
	C252.370468,136.886841 249.952713,137.733353 248.452469,137.752136 
	C236.139191,137.906418 223.823151,137.839355 211.010559,137.839462 
z"/>
</svg>