<svg version="1.1" id="Layer_1" xmlns="http://www.w3.org/2000/svg" xmlns:xlink="http://www.w3.org/1999/xlink" x="0px" y="0px"
	 width="100%" viewBox="0 0 1200 1063" enable-background="new 0 0 1200 1063" xml:space="preserve">
<path fill="#000000" opacity="0.000000" stroke="none" 
	d="
M843.000000,1064.000000 
	C562.000000,1064.000000 281.500000,1064.000000 1.000000,1064.000000 
	C1.000000,709.666687 1.000000,355.333344 1.000000,1.000000 
	C401.000000,1.000000 801.000000,1.000000 1201.000000,1.000000 
	C1201.000000,355.333344 1201.000000,709.666687 1201.000000,1064.000000 
	C1081.833374,1064.000000 962.666687,1064.000000 843.000000,1064.000000 
M1130.180664,694.658752 
	C1130.904053,695.087769 1131.627563,695.516785 1132.350952,695.945862 
	C1132.489136,695.707031 1132.627197,695.468201 1132.765259,695.229309 
	C1132.072754,694.592712 1131.380371,693.956055 1130.251099,692.821167 
	C1115.111694,679.001770 1100.758423,664.169006 1084.614624,651.644348 
	C1068.034424,638.781311 1049.997192,627.697021 1032.069458,616.694946 
	C1008.036865,601.946472 982.547180,589.917847 955.773682,581.072021 
	C935.664856,574.428101 915.270630,568.414490 894.655212,563.616272 
	C879.724304,560.141052 864.276733,557.975037 848.963928,557.253357 
	C822.508057,556.006653 796.025146,557.044983 769.721924,560.934692 
	C758.362488,562.614380 746.850891,563.302490 735.520935,565.136230 
	C717.143555,568.110596 698.825745,571.485901 680.542908,575.004333 
	C655.371887,579.848450 630.229065,584.849609 605.126160,590.034912 
	C583.384155,594.525940 561.708252,599.338379 540.014771,604.062378 
	C520.406006,608.332275 500.927887,613.324707 481.182922,616.814819 
	C458.141815,620.887634 434.909546,623.957275 411.690979,626.919434 
	C397.011444,628.792236 382.225586,630.440002 367.451538,630.830017 
	C341.317200,631.520142 315.135406,631.609863 289.220154,627.024109 
	C271.675354,623.919556 253.928726,621.688049 236.611160,617.622864 
	C201.513275,609.384033 167.086456,598.826172 133.256088,586.201233 
	C96.319794,572.417236 60.072456,557.158691 24.860134,539.435669 
	C23.543465,538.772949 22.096882,538.368286 20.710844,537.843323 
	C20.422810,538.262268 20.134775,538.681152 19.846741,539.100037 
	C29.425508,548.432068 38.968586,557.801025 48.591011,567.087769 
	C65.185318,583.103210 83.781647,596.460327 103.204185,608.829651 
	C129.686035,625.695007 157.767502,639.295654 187.228775,649.843872 
	C219.410034,661.365967 252.337341,670.460205 286.483490,673.937500 
	C307.941101,676.122742 329.485687,677.517456 351.015289,678.890747 
	C357.074646,679.277283 363.218903,678.337219 369.323975,678.001221 
	C381.367523,677.338379 393.430573,676.914978 405.449005,675.941589 
	C418.221893,674.907104 430.985229,673.603943 443.693756,671.961609 
	C462.688995,669.506897 481.740814,667.247314 500.571228,663.820251 
	C524.972717,659.379150 549.254211,654.200317 573.453064,648.743347 
	C605.750488,641.460144 637.875427,633.412964 670.161804,626.078552 
	C685.435181,622.608887 700.877136,619.837341 716.307312,617.116211 
	C727.742798,615.099609 739.271484,613.593567 750.779114,612.009155 
	C761.339294,610.555237 771.900330,609.016663 782.508545,608.023682 
	C799.222229,606.459167 815.954895,604.743835 832.717346,604.132874 
	C859.850403,603.143738 886.929688,604.493408 913.761902,609.009338 
	C927.937683,611.395081 942.173157,613.584045 956.192139,616.711426 
	C986.528503,623.478638 1015.897827,633.280884 1044.450195,645.653015 
	C1065.522217,654.783875 1085.849487,665.224365 1105.163452,677.622803 
	C1113.503662,682.976868 1121.677856,688.589539 1130.180664,694.658752 
M492.345520,495.950470 
	C507.151184,485.832062 521.584717,475.223358 534.111084,462.307770 
	C540.423401,455.799316 546.380798,448.938873 552.356262,442.112946 
	C564.494934,428.246735 574.619629,412.906311 582.629517,396.417206 
	C589.239014,382.811096 594.992920,368.661926 599.691833,354.284668 
	C606.953003,332.067657 610.715454,309.060577 610.930420,285.619507 
	C611.018372,276.020477 610.834167,266.364349 609.878174,256.823914 
	C608.622070,244.288025 607.379272,231.631989 604.534546,219.398834 
	C598.668152,194.171631 589.394714,170.166122 576.010193,147.816849 
	C560.594238,122.075592 541.917664,99.229141 518.696472,80.064781 
	C501.188568,65.615555 482.332581,53.562317 461.792755,43.835480 
	C432.101471,29.774900 400.787537,22.256006 368.248993,20.195276 
	C347.974396,18.911245 327.670380,20.191261 307.533295,23.872974 
	C280.665680,28.785248 255.204132,37.392208 231.152588,50.355431 
	C201.739639,66.208328 176.274902,86.754494 154.873398,112.487915 
	C141.921478,128.061462 130.259644,144.529999 121.863129,162.863266 
	C114.755554,178.382248 108.952087,194.595444 103.811295,210.892517 
	C98.023384,229.241089 95.610809,248.351959 95.053291,267.595337 
	C94.559975,284.622833 94.621239,301.698761 98.079674,318.463165 
	C101.041290,332.819305 103.586670,347.425842 108.406746,361.189484 
	C113.617279,376.068085 120.809059,390.321503 127.940407,404.441681 
	C137.306656,422.987061 150.064758,439.311188 164.172333,454.436371 
	C172.157181,462.997192 180.739639,471.224670 190.069138,478.253387 
	C203.216599,488.158447 216.904495,497.497589 231.097183,505.824432 
	C247.919739,515.694214 266.245728,522.523010 285.107239,527.512695 
	C303.512695,532.381714 322.258789,535.905151 341.360626,535.871826 
	C356.400269,535.845581 371.548523,535.572571 386.444611,533.746277 
	C400.621918,532.008057 414.720795,528.793579 428.522186,525.015442 
	C451.058960,518.845947 471.977722,508.767609 492.345520,495.950470 
M787.712280,679.003723 
	C779.733337,679.998962 771.747070,680.939514 763.776978,682.001282 
	C748.835327,683.991699 733.828491,685.620728 718.984192,688.183960 
	C696.290649,692.102661 673.680481,696.528320 651.092773,701.029175 
	C624.850037,706.258362 598.627747,711.606689 572.475037,717.266052 
	C549.535095,722.230286 526.773010,728.025269 503.807861,732.862305 
	C470.170502,739.947266 436.255157,745.559387 402.030945,748.862915 
	C384.456055,750.559387 366.762115,751.716125 349.116974,751.781494 
	C333.814819,751.838135 318.463806,750.429993 303.211548,748.899841 
	C288.392181,747.413147 273.425568,746.014587 258.958984,742.685364 
	C231.025803,736.257019 203.244858,729.032043 175.701263,721.094666 
	C158.183441,716.046509 140.977905,709.691772 124.040398,702.904663 
	C98.131996,692.522705 72.540375,681.344360 46.889576,670.328674 
	C38.062191,666.537903 29.460112,662.222412 19.853493,657.724548 
	C20.875511,659.478516 21.275021,660.678040 22.078316,661.465637 
	C33.938725,673.094177 45.154621,685.516235 57.935287,696.034607 
	C73.051247,708.474792 89.082787,719.948669 105.519432,730.604309 
	C131.102646,747.189636 158.701935,759.930298 187.437439,770.179504 
	C214.704971,779.905212 242.402954,788.104492 271.140808,791.984741 
	C292.280121,794.838928 313.508698,797.820190 334.780792,798.677185 
	C355.259888,799.502319 375.863068,797.993347 396.379150,796.899292 
	C410.650879,796.138123 424.899200,794.613953 439.100830,792.944641 
	C456.669647,790.879456 474.277802,788.873535 491.690430,785.822998 
	C515.314758,781.684265 538.862122,776.993164 562.273315,771.779297 
	C588.849548,765.860535 615.190796,758.893188 641.725708,752.779175 
	C661.582336,748.203979 681.488525,743.716919 701.546570,740.176697 
	C724.093140,736.197144 746.796387,733.027771 769.504333,730.064209 
	C788.223755,727.621155 807.011292,725.365112 825.841248,724.218933 
	C838.870972,723.425903 852.046143,724.298279 865.116516,725.086304 
	C880.552246,726.016846 896.006592,727.177246 911.338867,729.132080 
	C925.590515,730.949280 939.932251,733.020020 953.805237,736.628540 
	C975.860535,742.365295 997.809692,748.746521 1019.350159,756.171204 
	C1052.068726,767.448853 1082.834106,782.984985 1111.673584,802.203857 
	C1118.695435,806.883301 1125.611938,811.720947 1132.576782,816.485901 
	C1132.002808,814.675171 1130.972778,813.416138 1129.794678,812.315552 
	C1120.244141,803.392883 1111.030640,794.062012 1101.003540,785.708984 
	C1088.553345,775.337708 1075.701294,765.393677 1062.521606,755.965820 
	C1042.287598,741.491943 1020.660461,729.270386 997.969482,719.062988 
	C983.845947,712.709595 969.755310,706.032837 955.092346,701.189148 
	C934.516235,694.392151 913.647644,688.103027 892.478516,683.596008 
	C875.059204,679.887268 857.064392,678.060913 839.243347,677.297729 
	C822.431702,676.577637 805.514099,678.333740 787.712280,679.003723 
M606.351318,886.823242 
	C598.450012,889.673035 591.448059,893.774658 585.484009,899.901978 
	C571.538940,914.228516 573.219177,940.511780 589.776428,951.666626 
	C598.060669,957.247742 607.349487,961.458984 616.490417,965.615906 
	C627.465576,970.607056 638.965088,974.458801 649.873108,979.580078 
	C661.303589,984.946594 665.769043,994.065796 662.909302,1004.364746 
	C661.152710,1010.690735 656.496704,1014.638245 650.880920,1017.564880 
	C635.454895,1025.604004 619.294006,1024.960327 602.946655,1021.451965 
	C595.784241,1019.914856 588.686646,1018.076233 581.446899,1016.347717 
	C580.586670,1022.410217 579.750610,1027.957031 579.029297,1033.518799 
	C578.612366,1036.733032 579.502869,1038.540161 583.303406,1039.324585 
	C599.170837,1042.599243 614.884033,1045.702148 631.359253,1044.193848 
	C646.350708,1042.821411 660.763062,1040.478638 674.301453,1033.406494 
	C701.324646,1019.290466 704.043396,981.421753 678.308228,964.997314 
	C666.854309,957.687317 653.720642,953.000183 641.318848,947.187683 
	C633.097717,943.334656 624.228577,940.506958 616.708801,935.597717 
	C605.035400,927.976868 605.673706,917.580872 613.756958,910.226318 
	C617.784424,906.561951 623.838013,904.299744 629.330994,903.228027 
	C644.714600,900.226746 659.988647,902.037292 674.968628,906.478699 
	C681.770752,908.495361 681.818420,908.477173 683.291748,901.479004 
	C684.326477,896.564087 685.234436,891.622498 686.253784,886.412598 
	C659.240601,880.689331 633.152771,877.612183 606.351318,886.823242 
M1044.999512,1014.499878 
	C1044.677490,996.883301 1044.732910,979.249451 1043.928345,961.654968 
	C1043.108276,943.720947 1030.813477,931.414368 1013.973022,927.040100 
	C1001.590515,923.823730 989.050476,922.963257 976.191284,923.819336 
	C962.774353,924.712708 950.084106,927.791992 937.851257,933.055542 
	C936.581909,933.601746 935.138000,935.634155 935.159363,936.954651 
	C935.243530,942.156128 935.880737,947.348694 936.350525,953.000732 
	C938.310791,952.149231 939.691772,951.652588 940.977417,950.975098 
	C958.317322,941.836792 976.706543,939.906250 995.806213,943.034668 
	C1006.976135,944.864319 1015.478821,954.298218 1016.025818,965.024414 
	C1016.202759,968.494019 1015.416199,970.068481 1011.436401,970.091675 
	C998.316162,970.168030 985.176453,970.300049 972.085266,971.090332 
	C956.843506,972.010498 942.497742,976.140076 929.785278,985.067688 
	C913.611389,996.426331 913.953003,1023.162415 930.410828,1034.216553 
	C938.142212,1039.409424 946.654602,1042.219116 955.812988,1043.446533 
	C969.193176,1045.239624 982.607422,1046.054810 995.454346,1041.132202 
	C1003.489136,1038.053589 1011.061096,1033.766968 1019.025391,1029.933350 
	C1019.025391,1032.335449 1018.786560,1035.475586 1019.144043,1038.546387 
	C1019.284912,1039.756104 1020.726196,1041.758789 1021.627319,1041.787842 
	C1029.560791,1042.043945 1037.505981,1041.936279 1044.999512,1041.936279 
	C1044.999512,1032.651489 1044.999512,1024.075684 1044.999512,1014.499878 
M840.968140,941.472961 
	C824.604431,927.817566 804.947754,923.538818 784.514038,923.292175 
	C772.747559,923.150146 760.894226,924.858093 749.431580,928.881958 
	C726.364807,936.979614 706.327026,957.554077 707.847595,986.029114 
	C708.764709,1003.203064 716.062500,1016.566223 729.090759,1026.948975 
	C747.362549,1041.510742 768.567871,1045.654785 791.524414,1044.160400 
	C809.247864,1043.006592 825.390564,1038.070923 839.177551,1026.869629 
	C856.839783,1012.519714 862.982544,993.876221 859.153381,972.385742 
	C856.984314,960.212158 850.561340,950.259949 840.968140,941.472961 
M96.500008,970.000366 
	C111.996826,969.999390 127.495125,969.881470 142.989441,970.078003 
	C146.954926,970.128357 148.381409,968.851013 148.051361,964.943909 
	C147.785828,961.800415 147.720032,958.585693 148.064835,955.457642 
	C148.566422,950.907410 146.660019,949.875183 142.389374,949.913208 
	C120.895401,950.104553 99.397942,949.899475 77.903831,950.082703 
	C73.534714,950.119934 71.744156,949.149475 71.889267,944.338318 
	C72.235741,932.851074 72.185631,921.341858 71.908310,909.850891 
	C71.800163,905.369568 73.014000,903.834412 77.714165,903.895142 
	C97.206985,904.146973 116.704956,904.000183 136.201035,904.000000 
	C151.647308,903.999817 151.557327,904.002808 151.064819,888.238953 
	C150.962585,884.967163 149.878998,883.950012 146.679016,883.957825 
	C113.185966,884.039429 79.692551,884.043823 46.199535,883.954834 
	C42.863411,883.945984 41.899899,885.204346 41.956055,888.363098 
	C42.104134,896.692078 41.999874,905.025513 41.999741,913.357178 
	C41.999073,954.015686 41.997318,994.674133 42.001980,1035.332642 
	C42.002739,1041.976074 42.016670,1041.984375 48.394032,1041.996704 
	C54.226170,1042.007935 60.077633,1041.706665 65.884483,1042.089966 
	C70.626564,1042.402954 72.178833,1040.982300 72.112968,1036.044556 
	C71.841827,1015.718933 72.086647,995.386841 71.928337,975.058899 
	C71.898109,971.176453 73.019508,969.740479 77.007332,969.927490 
	C83.159172,970.216064 89.334602,970.001526 96.500008,970.000366 
M461.000977,1004.375305 
	C461.001373,986.214478 461.120148,968.052307 460.916656,949.893799 
	C460.867493,945.506042 461.871124,943.609741 466.674744,943.901184 
	C473.314789,944.304077 479.997620,944.001160 486.662140,944.001038 
	C500.538177,944.000854 500.441437,944.003662 500.062378,930.281799 
	C499.973206,927.054443 498.969879,925.888733 495.718811,925.954895 
	C487.724762,926.117615 479.725098,926.001770 471.727692,926.000671 
	C461.001251,925.999207 461.001190,926.000366 461.001099,915.170349 
	C461.001007,907.914185 461.001099,900.658020 461.001099,892.648132 
	C450.785309,895.087097 441.561249,897.289307 431.999359,899.572205 
	C431.999359,906.695557 431.704803,913.522766 432.099640,920.309875 
	C432.377319,925.082520 430.549225,926.263428 426.120972,926.083679 
	C418.635834,925.779663 411.126312,926.127136 403.633026,925.949402 
	C400.278870,925.869934 398.678680,926.828613 398.959320,930.433533 
	C399.191406,933.414429 399.174896,936.440002 398.960938,939.423706 
	C398.714966,942.854187 399.953644,944.153198 403.487793,944.058716 
	C411.146423,943.854065 418.825317,944.246460 426.474426,943.908447 
	C430.905945,943.712646 432.140594,945.153259 432.094635,949.540466 
	C431.880035,970.031555 431.847260,990.527893 432.063263,1011.018921 
	C432.182068,1022.289917 436.165100,1032.072144 446.521851,1037.638672 
	C463.817200,1046.934570 482.165955,1045.903809 500.605743,1041.799194 
	C501.479004,1041.604736 502.719574,1040.326416 502.748444,1039.515747 
	C502.940125,1034.133911 502.847778,1028.741943 502.847778,1023.314392 
	C496.678375,1024.345581 491.384094,1025.324951 486.060181,1026.101196 
	C473.410889,1027.945679 459.424103,1019.357178 461.000977,1004.375305 
M338.028046,947.591675 
	C347.799438,940.610657 358.834015,941.016174 369.879822,942.539429 
	C376.367462,943.434021 382.731140,945.227417 389.786804,946.754272 
	C390.524750,941.689575 391.283325,936.687866 391.972168,931.676636 
	C392.371490,928.771667 390.820618,927.449707 388.102448,927.000000 
	C375.425568,924.903015 362.915344,922.323059 349.796173,923.740479 
	C339.591125,924.843079 329.959564,926.866821 320.828918,931.568970 
	C305.686218,939.367126 298.771759,959.994934 309.144867,973.242249 
	C314.635254,980.254028 322.765991,983.539124 330.654083,987.045349 
	C341.643188,991.929932 352.782898,996.529602 363.488495,1001.977539 
	C369.648560,1005.112305 371.142578,1011.356750 366.796783,1016.621643 
	C363.766663,1020.292603 358.974030,1023.469360 354.385590,1024.709717 
	C341.615753,1028.161621 328.884857,1026.068726 316.464844,1021.990295 
	C306.128174,1018.596008 306.099762,1018.592285 306.017151,1029.547729 
	C305.994659,1032.528320 305.071655,1036.528442 306.600311,1038.235840 
	C308.533112,1040.394775 312.542969,1040.709595 315.675110,1041.766235 
	C316.289978,1041.973633 316.993835,1041.900513 317.645691,1042.017700 
	C331.036804,1044.423706 344.485931,1045.995728 358.068848,1043.956543 
	C370.691711,1042.061523 382.654053,1038.613770 391.753662,1028.766968 
	C399.703156,1020.164612 401.858124,1004.252136 395.839233,994.968140 
	C391.204742,987.819702 384.382477,983.188904 376.568726,980.015747 
	C365.391113,975.476440 354.038605,971.333130 343.042023,966.394592 
	C335.334351,962.933105 332.005920,954.773132 338.028046,947.591675 
M875.000305,1021.499756 
	C875.004150,1026.996216 875.124390,1032.495972 874.965881,1037.987671 
	C874.877930,1041.035278 876.053223,1042.104248 879.052246,1042.033325 
	C885.211365,1041.887451 891.393677,1041.713745 897.533264,1042.090942 
	C902.063721,1042.369019 903.111389,1040.688843 903.086548,1036.402710 
	C902.918518,1007.422729 903.000061,978.441223 902.999817,949.460266 
	C902.999573,925.309448 902.918884,901.158142 903.075928,877.008301 
	C903.101685,873.049011 901.853882,871.736633 897.947998,871.932617 
	C892.465454,872.207703 886.958740,871.992188 881.462341,872.001892 
	C875.019409,872.013245 875.003906,872.020447 875.003235,878.592957 
	C874.998413,925.895264 875.000427,973.197571 875.000305,1021.499756 
M1067.001099,931.685791 
	C1067.000732,934.351013 1067.000000,937.016235 1067.000000,939.681458 
	C1067.000610,971.996948 1067.030273,1004.312500 1066.959473,1036.627808 
	C1066.951904,1040.063599 1067.258545,1042.332275 1071.693237,1042.082031 
	C1077.836914,1041.735229 1084.021973,1041.817383 1090.175415,1042.062622 
	C1093.849121,1042.208984 1095.047974,1041.019653 1095.079102,1037.262085 
	C1095.229126,1019.148315 1095.231689,1001.015991 1096.109375,982.930176 
	C1097.193359,960.596924 1111.536987,942.367859 1136.425659,943.038574 
	C1141.129517,943.165222 1145.819702,943.793823 1151.000000,944.231750 
	C1151.000000,941.549988 1150.999878,938.909790 1151.000122,936.269531 
	C1151.000854,925.488037 1150.971191,925.659607 1140.533203,923.858643 
	C1127.195312,921.557190 1115.316284,925.203064 1104.371826,932.442444 
	C1100.804932,934.801819 1097.839478,938.070679 1093.995239,941.455017 
	C1093.995239,937.288330 1093.851929,933.820862 1094.037354,930.370972 
	C1094.206787,927.218811 1093.171753,925.846741 1089.814575,925.953674 
	C1083.657715,926.149780 1077.482788,926.187744 1071.329346,925.942017 
	C1067.593384,925.792847 1066.647095,927.515564 1067.001099,931.685791 
M244.000076,990.595398 
	C244.692230,984.861145 244.724945,978.950623 246.201874,973.426208 
	C250.400757,957.720642 259.550568,946.319885 276.523712,943.944275 
	C284.040253,942.892212 291.826477,943.766785 299.999847,943.766785 
	C299.999847,942.188110 300.050232,940.215271 299.989410,938.245789 
	C299.861633,934.107788 301.094360,928.936584 299.068390,926.159119 
	C297.419617,923.898743 291.844116,924.473938 288.000671,923.848389 
	C275.033722,921.737793 263.431427,925.386292 252.916031,932.707031 
	C249.146378,935.331421 245.996536,938.845947 241.985626,942.477722 
	C241.985626,937.705078 241.883118,933.718262 242.020309,929.739746 
	C242.117813,926.911987 240.922394,925.925232 238.177261,925.977722 
	C232.181931,926.092285 226.178207,926.152527 220.187149,925.954773 
	C216.826859,925.843933 215.952896,927.238098 215.959488,930.375977 
	C216.034851,966.194580 216.042023,1002.013428 215.954010,1037.832031 
	C215.945724,1041.203735 217.269531,1042.125610 220.394653,1042.040161 
	C226.387680,1041.876465 232.401352,1041.756836 238.381668,1042.078857 
	C242.661667,1042.309448 244.186844,1041.091309 244.102859,1036.551758 
	C243.825607,1021.562988 243.999374,1006.565918 244.000076,990.595398 
M193.000687,977.500000 
	C192.998718,961.847229 192.918198,946.193787 193.055862,930.542236 
	C193.086258,927.086304 191.975769,925.837769 188.481857,925.945557 
	C181.661057,926.156128 174.826965,926.114258 168.003052,925.963989 
	C164.950089,925.896851 163.962143,927.066284 163.967636,930.053345 
	C164.033829,966.021240 164.034225,1001.989441 163.967255,1037.957275 
	C163.961670,1040.956665 164.973022,1042.103638 168.013641,1042.035522 
	C174.670975,1041.886353 181.342789,1041.789307 187.991501,1042.073120 
	C191.968735,1042.242920 193.104935,1040.833618 193.072510,1036.947510 
	C192.910019,1017.466125 192.999649,997.982727 193.000687,977.500000 
M172.556305,877.000000 
	C171.225067,877.000366 169.872360,877.154968 168.566528,876.972961 
	C164.230606,876.369019 162.580795,878.009460 162.917648,882.491394 
	C163.290787,887.455933 163.084061,892.470520 162.991837,897.460754 
	C162.944809,900.005005 163.948135,901.033691 166.515915,901.008789 
	C174.668869,900.929688 182.824600,900.895630 190.976089,901.032776 
	C194.084564,901.085083 195.068619,899.726868 195.013077,896.845825 
	C194.913681,891.689270 194.898026,886.527405 195.016693,881.371643 
	C195.091217,878.133728 193.659363,876.918213 190.511581,876.980286 
	C184.856125,877.091797 179.196762,877.004272 172.556305,877.000000 
M1157.707520,997.061951 
	C1155.158325,997.704773 1152.464478,998.013367 1150.083496,999.044495 
	C1134.458252,1005.811462 1129.881226,1024.421143 1141.369019,1037.359497 
	C1152.705200,1050.126831 1171.835571,1045.764160 1178.756104,1033.644409 
	C1187.093506,1019.043335 1179.840698,998.332520 1157.707520,997.061951 
z"/>
<path fill="#9CA3AF" opacity="1.000000" stroke="none" 
	d="
M491.982880,496.020569 
	C471.977722,508.767609 451.058960,518.845947 428.522186,525.015442 
	C414.720795,528.793579 400.621918,532.008057 386.444611,533.746277 
	C371.548523,535.572571 356.400269,535.845581 341.360626,535.871826 
	C322.258789,535.905151 303.512695,532.381714 285.107239,527.512695 
	C266.245728,522.523010 247.919739,515.694214 231.097183,505.824432 
	C216.904495,497.497589 203.216599,488.158447 190.069138,478.253387 
	C180.739639,471.224670 172.157181,462.997192 164.172333,454.436371 
	C150.064758,439.311188 137.306656,422.987061 127.940407,404.441681 
	C120.809059,390.321503 113.617279,376.068085 108.406746,361.189484 
	C103.586670,347.425842 101.041290,332.819305 98.079674,318.463165 
	C94.621239,301.698761 94.559975,284.622833 95.053291,267.595337 
	C95.610809,248.351959 98.023384,229.241089 103.811295,210.892517 
	C108.952087,194.595444 114.755554,178.382248 121.863129,162.863266 
	C130.259644,144.529999 141.921478,128.061462 154.873398,112.487915 
	C176.274902,86.754494 201.739639,66.208328 231.152588,50.355431 
	C255.204132,37.392208 280.665680,28.785248 307.533295,23.872974 
	C327.670380,20.191261 347.974396,18.911245 368.248993,20.195276 
	C400.787537,22.256006 432.101471,29.774900 461.792755,43.835480 
	C482.332581,53.562317 501.188568,65.615555 518.696472,80.064781 
	C541.917664,99.229141 560.594238,122.075592 576.010193,147.816849 
	C589.394714,170.166122 598.668152,194.171631 604.534546,219.398834 
	C607.379272,231.631989 608.622070,244.288025 609.878174,256.823914 
	C610.834167,266.364349 611.018372,276.020477 610.930420,285.619507 
	C610.715454,309.060577 606.953003,332.067657 599.691833,354.284668 
	C594.992920,368.661926 589.239014,382.811096 582.629517,396.417206 
	C574.619629,412.906311 564.494934,428.246735 552.356262,442.112946 
	C546.380798,448.938873 540.423401,455.799316 534.111084,462.307770 
	C521.584717,475.223358 507.151184,485.832062 491.982880,496.020569 
z"/>
<path fill="#9CA3AF" opacity="1.000000" stroke="none" 
	d="
M1129.927490,694.084717 
	C1121.677856,688.589539 1113.503662,682.976868 1105.163452,677.622803 
	C1085.849487,665.224365 1065.522217,654.783875 1044.450195,645.653015 
	C1015.897827,633.280884 986.528503,623.478638 956.192139,616.711426 
	C942.173157,613.584045 927.937683,611.395081 913.761902,609.009338 
	C886.929688,604.493408 859.850403,603.143738 832.717346,604.132874 
	C815.954895,604.743835 799.222229,606.459167 782.508545,608.023682 
	C771.900330,609.016663 761.339294,610.555237 750.779114,612.009155 
	C739.271484,613.593567 727.742798,615.099609 716.307312,617.116211 
	C700.877136,619.837341 685.435181,622.608887 670.161804,626.078552 
	C637.875427,633.412964 605.750488,641.460144 573.453064,648.743347 
	C549.254211,654.200317 524.972717,659.379150 500.571228,663.820251 
	C481.740814,667.247314 462.688995,669.506897 443.693756,671.961609 
	C430.985229,673.603943 418.221893,674.907104 405.449005,675.941589 
	C393.430573,676.914978 381.367523,677.338379 369.323975,678.001221 
	C363.218903,678.337219 357.074646,679.277283 351.015289,678.890747 
	C329.485687,677.517456 307.941101,676.122742 286.483490,673.937500 
	C252.337341,670.460205 219.410034,661.365967 187.228775,649.843872 
	C157.767502,639.295654 129.686035,625.695007 103.204185,608.829651 
	C83.781647,596.460327 65.185318,583.103210 48.591011,567.087769 
	C38.968586,557.801025 29.425508,548.432068 19.846741,539.100037 
	C20.134775,538.681152 20.422810,538.262268 20.710844,537.843323 
	C22.096882,538.368286 23.543465,538.772949 24.860134,539.435669 
	C60.072456,557.158691 96.319794,572.417236 133.256088,586.201233 
	C167.086456,598.826172 201.513275,609.384033 236.611160,617.622864 
	C253.928726,621.688049 271.675354,623.919556 289.220154,627.024109 
	C315.135406,631.609863 341.317200,631.520142 367.451538,630.830017 
	C382.225586,630.440002 397.011444,628.792236 411.690979,626.919434 
	C434.909546,623.957275 458.141815,620.887634 481.182922,616.814819 
	C500.927887,613.324707 520.406006,608.332275 540.014771,604.062378 
	C561.708252,599.338379 583.384155,594.525940 605.126160,590.034912 
	C630.229065,584.849609 655.371887,579.848450 680.542908,575.004333 
	C698.825745,571.485901 717.143555,568.110596 735.520935,565.136230 
	C746.850891,563.302490 758.362488,562.614380 769.721924,560.934692 
	C796.025146,557.044983 822.508057,556.006653 848.963928,557.253357 
	C864.276733,557.975037 879.724304,560.141052 894.655212,563.616272 
	C915.270630,568.414490 935.664856,574.428101 955.773682,581.072021 
	C982.547180,589.917847 1008.036865,601.946472 1032.069458,616.694946 
	C1049.997192,627.697021 1068.034424,638.781311 1084.614624,651.644348 
	C1100.758423,664.169006 1115.111694,679.001770 1130.279175,693.261475 
	C1130.180786,693.829346 1130.054199,693.957031 1129.927490,694.084717 
z"/>
<path fill="#9CA3AF" opacity="1.000000" stroke="none" 
	d="
M788.177673,679.002197 
	C805.514099,678.333740 822.431702,676.577637 839.243347,677.297729 
	C857.064392,678.060913 875.059204,679.887268 892.478516,683.596008 
	C913.647644,688.103027 934.516235,694.392151 955.092346,701.189148 
	C969.755310,706.032837 983.845947,712.709595 997.969482,719.062988 
	C1020.660461,729.270386 1042.287598,741.491943 1062.521606,755.965820 
	C1075.701294,765.393677 1088.553345,775.337708 1101.003540,785.708984 
	C1111.030640,794.062012 1120.244141,803.392883 1129.794678,812.315552 
	C1130.972778,813.416138 1132.002808,814.675171 1132.576782,816.485901 
	C1125.611938,811.720947 1118.695435,806.883301 1111.673584,802.203857 
	C1082.834106,782.984985 1052.068726,767.448853 1019.350159,756.171204 
	C997.809692,748.746521 975.860535,742.365295 953.805237,736.628540 
	C939.932251,733.020020 925.590515,730.949280 911.338867,729.132080 
	C896.006592,727.177246 880.552246,726.016846 865.116516,725.086304 
	C852.046143,724.298279 838.870972,723.425903 825.841248,724.218933 
	C807.011292,725.365112 788.223755,727.621155 769.504333,730.064209 
	C746.796387,733.027771 724.093140,736.197144 701.546570,740.176697 
	C681.488525,743.716919 661.582336,748.203979 641.725708,752.779175 
	C615.190796,758.893188 588.849548,765.860535 562.273315,771.779297 
	C538.862122,776.993164 515.314758,781.684265 491.690430,785.822998 
	C474.277802,788.873535 456.669647,790.879456 439.100830,792.944641 
	C424.899200,794.613953 410.650879,796.138123 396.379150,796.899292 
	C375.863068,797.993347 355.259888,799.502319 334.780792,798.677185 
	C313.508698,797.820190 292.280121,794.838928 271.140808,791.984741 
	C242.402954,788.104492 214.704971,779.905212 187.437439,770.179504 
	C158.701935,759.930298 131.102646,747.189636 105.519432,730.604309 
	C89.082787,719.948669 73.051247,708.474792 57.935287,696.034607 
	C45.154621,685.516235 33.938725,673.094177 22.078316,661.465637 
	C21.275021,660.678040 20.875511,659.478516 19.853493,657.724548 
	C29.460112,662.222412 38.062191,666.537903 46.889576,670.328674 
	C72.540375,681.344360 98.131996,692.522705 124.040398,702.904663 
	C140.977905,709.691772 158.183441,716.046509 175.701263,721.094666 
	C203.244858,729.032043 231.025803,736.257019 258.958984,742.685364 
	C273.425568,746.014587 288.392181,747.413147 303.211548,748.899841 
	C318.463806,750.429993 333.814819,751.838135 349.116974,751.781494 
	C366.762115,751.716125 384.456055,750.559387 402.030945,748.862915 
	C436.255157,745.559387 470.170502,739.947266 503.807861,732.862305 
	C526.773010,728.025269 549.535095,722.230286 572.475037,717.266052 
	C598.627747,711.606689 624.850037,706.258362 651.092773,701.029175 
	C673.680481,696.528320 696.290649,692.102661 718.984192,688.183960 
	C733.828491,685.620728 748.835327,683.991699 763.776978,682.001282 
	C771.747070,680.939514 779.733337,679.998962 788.177673,679.002197 
z"/>
<path fill="#9ca3af" opacity="1.000000" stroke="none" 
	d="
M606.702209,886.646423 
	C633.152771,877.612183 659.240601,880.689331 686.253784,886.412598 
	C685.234436,891.622498 684.326477,896.564087 683.291748,901.479004 
	C681.818420,908.477173 681.770752,908.495361 674.968628,906.478699 
	C659.988647,902.037292 644.714600,900.226746 629.330994,903.228027 
	C623.838013,904.299744 617.784424,906.561951 613.756958,910.226318 
	C605.673706,917.580872 605.035400,927.976868 616.708801,935.597717 
	C624.228577,940.506958 633.097717,943.334656 641.318848,947.187683 
	C653.720642,953.000183 666.854309,957.687317 678.308228,964.997314 
	C704.043396,981.421753 701.324646,1019.290466 674.301453,1033.406494 
	C660.763062,1040.478638 646.350708,1042.821411 631.359253,1044.193848 
	C614.884033,1045.702148 599.170837,1042.599243 583.303406,1039.324585 
	C579.502869,1038.540161 578.612366,1036.733032 579.029297,1033.518799 
	C579.750610,1027.957031 580.586670,1022.410217 581.446899,1016.347717 
	C588.686646,1018.076233 595.784241,1019.914856 602.946655,1021.451965 
	C619.294006,1024.960327 635.454895,1025.604004 650.880920,1017.564880 
	C656.496704,1014.638245 661.152710,1010.690735 662.909302,1004.364746 
	C665.769043,994.065796 661.303589,984.946594 649.873108,979.580078 
	C638.965088,974.458801 627.465576,970.607056 616.490417,965.615906 
	C607.349487,961.458984 598.060669,957.247742 589.776428,951.666626 
	C573.219177,940.511780 571.538940,914.228516 585.484009,899.901978 
	C591.448059,893.774658 598.450012,889.673035 606.702209,886.646423 
z"/>
<path fill="#9ca3af" opacity="1.000000" stroke="none" 
	d="
M1044.999512,1014.999817 
	C1044.999512,1024.075684 1044.999512,1032.651489 1044.999512,1041.936279 
	C1037.505981,1041.936279 1029.560791,1042.043945 1021.627319,1041.787842 
	C1020.726196,1041.758789 1019.284912,1039.756104 1019.144043,1038.546387 
	C1018.786560,1035.475586 1019.025391,1032.335449 1019.025391,1029.933350 
	C1011.061096,1033.766968 1003.489136,1038.053589 995.454346,1041.132202 
	C982.607422,1046.054810 969.193176,1045.239624 955.812988,1043.446533 
	C946.654602,1042.219116 938.142212,1039.409424 930.410828,1034.216553 
	C913.953003,1023.162415 913.611389,996.426331 929.785278,985.067688 
	C942.497742,976.140076 956.843506,972.010498 972.085266,971.090332 
	C985.176453,970.300049 998.316162,970.168030 1011.436401,970.091675 
	C1015.416199,970.068481 1016.202759,968.494019 1016.025818,965.024414 
	C1015.478821,954.298218 1006.976135,944.864319 995.806213,943.034668 
	C976.706543,939.906250 958.317322,941.836792 940.977417,950.975098 
	C939.691772,951.652588 938.310791,952.149231 936.350525,953.000732 
	C935.880737,947.348694 935.243530,942.156128 935.159363,936.954651 
	C935.138000,935.634155 936.581909,933.601746 937.851257,933.055542 
	C950.084106,927.791992 962.774353,924.712708 976.191284,923.819336 
	C989.050476,922.963257 1001.590515,923.823730 1013.973022,927.040100 
	C1030.813477,931.414368 1043.108276,943.720947 1043.928345,961.654968 
	C1044.732910,979.249451 1044.677490,996.883301 1044.999512,1014.999817 
M1015.046814,1005.203003 
	C1015.364868,1000.602966 1015.591003,995.994080 1016.030090,991.405640 
	C1016.377380,987.776184 1014.686462,986.828369 1011.361694,986.964661 
	C1000.435974,987.412476 989.396790,986.877136 978.609009,988.297852 
	C970.953308,989.306030 963.020874,991.768494 956.300720,995.528137 
	C944.987732,1001.857361 945.321350,1013.793579 956.078369,1021.032043 
	C964.704895,1026.836914 974.435364,1027.045898 984.125732,1025.877563 
	C997.437866,1024.272461 1009.152466,1019.608032 1015.046814,1005.203003 
z"/>
<path fill="#9ca3af" opacity="1.000000" stroke="none" 
	d="
M841.221191,941.726990 
	C850.561340,950.259949 856.984314,960.212158 859.153381,972.385742 
	C862.982544,993.876221 856.839783,1012.519714 839.177551,1026.869629 
	C825.390564,1038.070923 809.247864,1043.006592 791.524414,1044.160400 
	C768.567871,1045.654785 747.362549,1041.510742 729.090759,1026.948975 
	C716.062500,1016.566223 708.764709,1003.203064 707.847595,986.029114 
	C706.327026,957.554077 726.364807,936.979614 749.431580,928.881958 
	C760.894226,924.858093 772.747559,923.150146 784.514038,923.292175 
	C804.947754,923.538818 824.604431,927.817566 841.221191,941.726990 
M781.058044,941.958252 
	C766.363464,942.209167 754.451355,948.142212 745.724609,959.921448 
	C731.894165,978.589417 736.757202,1005.650330 756.142151,1018.635254 
	C763.766113,1023.742188 772.228271,1025.909790 781.445190,1026.175659 
	C795.380798,1026.577271 807.921570,1023.700134 818.081909,1013.441711 
	C830.585205,1000.817749 833.887085,980.993408 825.549805,965.201172 
	C816.723755,948.483337 799.342285,940.431274 781.058044,941.958252 
z"/>
<path fill="#9ca3af" opacity="1.000000" stroke="none" 
	d="
M96.000015,970.000366 
	C89.334602,970.001526 83.159172,970.216064 77.007332,969.927490 
	C73.019508,969.740479 71.898109,971.176453 71.928337,975.058899 
	C72.086647,995.386841 71.841827,1015.718933 72.112968,1036.044556 
	C72.178833,1040.982300 70.626564,1042.402954 65.884483,1042.089966 
	C60.077633,1041.706665 54.226170,1042.007935 48.394032,1041.996704 
	C42.016670,1041.984375 42.002739,1041.976074 42.001980,1035.332642 
	C41.997318,994.674133 41.999073,954.015686 41.999741,913.357178 
	C41.999874,905.025513 42.104134,896.692078 41.956055,888.363098 
	C41.899899,885.204346 42.863411,883.945984 46.199535,883.954834 
	C79.692551,884.043823 113.185966,884.039429 146.679016,883.957825 
	C149.878998,883.950012 150.962585,884.967163 151.064819,888.238953 
	C151.557327,904.002808 151.647308,903.999817 136.201035,904.000000 
	C116.704956,904.000183 97.206985,904.146973 77.714165,903.895142 
	C73.014000,903.834412 71.800163,905.369568 71.908310,909.850891 
	C72.185631,921.341858 72.235741,932.851074 71.889267,944.338318 
	C71.744156,949.149475 73.534714,950.119934 77.903831,950.082703 
	C99.397942,949.899475 120.895401,950.104553 142.389374,949.913208 
	C146.660019,949.875183 148.566422,950.907410 148.064835,955.457642 
	C147.720032,958.585693 147.785828,961.800415 148.051361,964.943909 
	C148.381409,968.851013 146.954926,970.128357 142.989441,970.078003 
	C127.495125,969.881470 111.996826,969.999390 96.000015,970.000366 
z"/>
<path fill="#9ca3af" opacity="1.000000" stroke="none" 
	d="
M461.000946,1004.853516 
	C459.424103,1019.357178 473.410889,1027.945679 486.060181,1026.101196 
	C491.384094,1025.324951 496.678375,1024.345581 502.847778,1023.314392 
	C502.847778,1028.741943 502.940125,1034.133911 502.748444,1039.515747 
	C502.719574,1040.326416 501.479004,1041.604736 500.605743,1041.799194 
	C482.165955,1045.903809 463.817200,1046.934570 446.521851,1037.638672 
	C436.165100,1032.072144 432.182068,1022.289917 432.063263,1011.018921 
	C431.847260,990.527893 431.880035,970.031555 432.094635,949.540466 
	C432.140594,945.153259 430.905945,943.712646 426.474426,943.908447 
	C418.825317,944.246460 411.146423,943.854065 403.487793,944.058716 
	C399.953644,944.153198 398.714966,942.854187 398.960938,939.423706 
	C399.174896,936.440002 399.191406,933.414429 398.959320,930.433533 
	C398.678680,926.828613 400.278870,925.869934 403.633026,925.949402 
	C411.126312,926.127136 418.635834,925.779663 426.120972,926.083679 
	C430.549225,926.263428 432.377319,925.082520 432.099640,920.309875 
	C431.704803,913.522766 431.999359,906.695557 431.999359,899.572205 
	C441.561249,897.289307 450.785309,895.087097 461.001099,892.648132 
	C461.001099,900.658020 461.001007,907.914185 461.001099,915.170349 
	C461.001190,926.000366 461.001251,925.999207 471.727692,926.000671 
	C479.725098,926.001770 487.724762,926.117615 495.718811,925.954895 
	C498.969879,925.888733 499.973206,927.054443 500.062378,930.281799 
	C500.441437,944.003662 500.538177,944.000854 486.662140,944.001038 
	C479.997620,944.001160 473.314789,944.304077 466.674744,943.901184 
	C461.871124,943.609741 460.867493,945.506042 460.916656,949.893799 
	C461.120148,968.052307 461.001373,986.214478 461.000946,1004.853516 
z"/>
<path fill="#9ca3af" opacity="1.000000" stroke="none" 
	d="
M337.739624,947.843384 
	C332.005920,954.773132 335.334351,962.933105 343.042023,966.394592 
	C354.038605,971.333130 365.391113,975.476440 376.568726,980.015747 
	C384.382477,983.188904 391.204742,987.819702 395.839233,994.968140 
	C401.858124,1004.252136 399.703156,1020.164612 391.753662,1028.766968 
	C382.654053,1038.613770 370.691711,1042.061523 358.068848,1043.956543 
	C344.485931,1045.995728 331.036804,1044.423706 317.645691,1042.017700 
	C316.993835,1041.900513 316.289978,1041.973633 315.675110,1041.766235 
	C312.542969,1040.709595 308.533112,1040.394775 306.600311,1038.235840 
	C305.071655,1036.528442 305.994659,1032.528320 306.017151,1029.547729 
	C306.099762,1018.592285 306.128174,1018.596008 316.464844,1021.990295 
	C328.884857,1026.068726 341.615753,1028.161621 354.385590,1024.709717 
	C358.974030,1023.469360 363.766663,1020.292603 366.796783,1016.621643 
	C371.142578,1011.356750 369.648560,1005.112305 363.488495,1001.977539 
	C352.782898,996.529602 341.643188,991.929932 330.654083,987.045349 
	C322.765991,983.539124 314.635254,980.254028 309.144867,973.242249 
	C298.771759,959.994934 305.686218,939.367126 320.828918,931.568970 
	C329.959564,926.866821 339.591125,924.843079 349.796173,923.740479 
	C362.915344,922.323059 375.425568,924.903015 388.102448,927.000000 
	C390.820618,927.449707 392.371490,928.771667 391.972168,931.676636 
	C391.283325,936.687866 390.524750,941.689575 389.786804,946.754272 
	C382.731140,945.227417 376.367462,943.434021 369.879822,942.539429 
	C358.834015,941.016174 347.799438,940.610657 337.739624,947.843384 
z"/>
<path fill="#9ca3af" opacity="1.000000" stroke="none" 
	d="
M875.000244,1020.999817 
	C875.000427,973.197571 874.998413,925.895264 875.003235,878.592957 
	C875.003906,872.020447 875.019409,872.013245 881.462341,872.001892 
	C886.958740,871.992188 892.465454,872.207703 897.947998,871.932617 
	C901.853882,871.736633 903.101685,873.049011 903.075928,877.008301 
	C902.918884,901.158142 902.999573,925.309448 902.999817,949.460266 
	C903.000061,978.441223 902.918518,1007.422729 903.086548,1036.402710 
	C903.111389,1040.688843 902.063721,1042.369019 897.533264,1042.090942 
	C891.393677,1041.713745 885.211365,1041.887451 879.052246,1042.033325 
	C876.053223,1042.104248 874.877930,1041.035278 874.965881,1037.987671 
	C875.124390,1032.495972 875.004150,1026.996216 875.000244,1020.999817 
z"/>
<path fill="#9ca3af" opacity="1.000000" stroke="none" 
	d="
M1067.002563,931.210510 
	C1066.647095,927.515564 1067.593384,925.792847 1071.329346,925.942017 
	C1077.482788,926.187744 1083.657715,926.149780 1089.814575,925.953674 
	C1093.171753,925.846741 1094.206787,927.218811 1094.037354,930.370972 
	C1093.851929,933.820862 1093.995239,937.288330 1093.995239,941.455017 
	C1097.839478,938.070679 1100.804932,934.801819 1104.371826,932.442444 
	C1115.316284,925.203064 1127.195312,921.557190 1140.533203,923.858643 
	C1150.971191,925.659607 1151.000854,925.488037 1151.000122,936.269531 
	C1150.999878,938.909790 1151.000000,941.549988 1151.000000,944.231750 
	C1145.819702,943.793823 1141.129517,943.165222 1136.425659,943.038574 
	C1111.536987,942.367859 1097.193359,960.596924 1096.109375,982.930176 
	C1095.231689,1001.015991 1095.229126,1019.148315 1095.079102,1037.262085 
	C1095.047974,1041.019653 1093.849121,1042.208984 1090.175415,1042.062622 
	C1084.021973,1041.817383 1077.836914,1041.735229 1071.693237,1042.082031 
	C1067.258545,1042.332275 1066.951904,1040.063599 1066.959473,1036.627808 
	C1067.030273,1004.312500 1067.000610,971.996948 1067.000000,939.681458 
	C1067.000000,937.016235 1067.000732,934.351013 1067.002563,931.210510 
z"/>
<path fill="#9ca3af" opacity="1.000000" stroke="none" 
	d="
M244.000031,991.083740 
	C243.999374,1006.565918 243.825607,1021.562988 244.102859,1036.551758 
	C244.186844,1041.091309 242.661667,1042.309448 238.381668,1042.078857 
	C232.401352,1041.756836 226.387680,1041.876465 220.394653,1042.040161 
	C217.269531,1042.125610 215.945724,1041.203735 215.954010,1037.832031 
	C216.042023,1002.013428 216.034851,966.194580 215.959488,930.375977 
	C215.952896,927.238098 216.826859,925.843933 220.187149,925.954773 
	C226.178207,926.152527 232.181931,926.092285 238.177261,925.977722 
	C240.922394,925.925232 242.117813,926.911987 242.020309,929.739746 
	C241.883118,933.718262 241.985626,937.705078 241.985626,942.477722 
	C245.996536,938.845947 249.146378,935.331421 252.916031,932.707031 
	C263.431427,925.386292 275.033722,921.737793 288.000671,923.848389 
	C291.844116,924.473938 297.419617,923.898743 299.068390,926.159119 
	C301.094360,928.936584 299.861633,934.107788 299.989410,938.245789 
	C300.050232,940.215271 299.999847,942.188110 299.999847,943.766785 
	C291.826477,943.766785 284.040253,942.892212 276.523712,943.944275 
	C259.550568,946.319885 250.400757,957.720642 246.201874,973.426208 
	C244.724945,978.950623 244.692230,984.861145 244.000031,991.083740 
z"/>
<path fill="#9ca3af" opacity="1.000000" stroke="none" 
	d="
M193.000687,978.000000 
	C192.999649,997.982727 192.910019,1017.466125 193.072510,1036.947510 
	C193.104935,1040.833618 191.968735,1042.242920 187.991501,1042.073120 
	C181.342789,1041.789307 174.670975,1041.886353 168.013641,1042.035522 
	C164.973022,1042.103638 163.961670,1040.956665 163.967255,1037.957275 
	C164.034225,1001.989441 164.033829,966.021240 163.967636,930.053345 
	C163.962143,927.066284 164.950089,925.896851 168.003052,925.963989 
	C174.826965,926.114258 181.661057,926.156128 188.481857,925.945557 
	C191.975769,925.837769 193.086258,927.086304 193.055862,930.542236 
	C192.918198,946.193787 192.998718,961.847229 193.000687,978.000000 
z"/>
<path fill="#9ca3af" opacity="1.000000" stroke="none" 
	d="
M173.047668,877.000000 
	C179.196762,877.004272 184.856125,877.091797 190.511581,876.980286 
	C193.659363,876.918213 195.091217,878.133728 195.016693,881.371643 
	C194.898026,886.527405 194.913681,891.689270 195.013077,896.845825 
	C195.068619,899.726868 194.084564,901.085083 190.976089,901.032776 
	C182.824600,900.895630 174.668869,900.929688 166.515915,901.008789 
	C163.948135,901.033691 162.944809,900.005005 162.991837,897.460754 
	C163.084061,892.470520 163.290787,887.455933 162.917648,882.491394 
	C162.580795,878.009460 164.230606,876.369019 168.566528,876.972961 
	C169.872360,877.154968 171.225067,877.000366 173.047668,877.000000 
z"/>
<path fill="#9ca3af" opacity="1.000000" stroke="none" 
	d="
M1158.131836,997.045166 
	C1179.840698,998.332520 1187.093506,1019.043335 1178.756104,1033.644409 
	C1171.835571,1045.764160 1152.705200,1050.126831 1141.369019,1037.359497 
	C1129.881226,1024.421143 1134.458252,1005.811462 1150.083496,999.044495 
	C1152.464478,998.013367 1155.158325,997.704773 1158.131836,997.045166 
M1142.038696,1013.926086 
	C1141.694336,1017.015320 1140.932617,1020.125793 1141.088257,1023.189636 
	C1141.467407,1030.652710 1145.635498,1035.812256 1152.229370,1038.869995 
	C1158.048096,1041.568359 1166.881104,1039.984863 1171.110962,1035.249512 
	C1176.354126,1029.380005 1178.870483,1022.450195 1175.723755,1014.700073 
	C1172.892090,1007.725769 1168.092163,1002.437805 1160.037109,1002.106506 
	C1151.852905,1001.769775 1145.732910,1005.477844 1142.038696,1013.926086 
z"/>
<path fill="#9CA3AF" opacity="1.000000" stroke="none" 
	d="
M1130.497559,693.510559 
	C1131.380371,693.956055 1132.072754,694.592712 1132.765259,695.229309 
	C1132.627197,695.468201 1132.489136,695.707031 1132.350952,695.945862 
	C1131.627563,695.516785 1130.904053,695.087769 1130.054077,694.371704 
	C1130.054199,693.957031 1130.180786,693.829346 1130.497559,693.510559 
z"/>
<path fill="#9ca3af" opacity="1.000000" stroke="none" 
	d="
M1155.062012,1026.459717 
	C1155.004150,1028.720093 1155.231201,1030.602905 1154.848389,1032.352173 
	C1154.637939,1033.313721 1153.437012,1034.665649 1152.616455,1034.713623 
	C1151.812500,1034.760864 1150.205566,1033.396729 1150.185059,1032.619385 
	C1149.991211,1025.315430 1150.020996,1018.003784 1150.115479,1010.696045 
	C1150.126099,1009.886108 1150.982422,1008.369202 1151.379517,1008.391174 
	C1156.244263,1008.660339 1161.357544,1008.362000 1165.868408,1009.846130 
	C1169.414551,1011.012878 1168.845947,1016.974182 1165.533447,1021.324341 
	C1166.806030,1025.624756 1168.039551,1029.793213 1169.322266,1034.127319 
	C1165.447021,1035.460083 1163.417236,1035.260376 1162.847412,1031.075928 
	C1162.538208,1028.804810 1161.159790,1026.490479 1159.665283,1024.693604 
	C1159.260254,1024.206665 1156.676147,1025.532593 1155.062012,1026.459717 
M1162.782104,1014.818054 
	C1160.626343,1013.668762 1158.470581,1012.519470 1155.458984,1010.913940 
	C1155.458984,1014.950317 1155.458984,1017.280151 1155.458984,1020.672302 
	C1158.477173,1018.694336 1162.592896,1020.483154 1162.782104,1014.818054 
z"/>
</svg>