
<svg version="1.1" id="Layer_1" xmlns="http://www.w3.org/2000/svg" xmlns:xlink="http://www.w3.org/1999/xlink" x="0px" y="0px"
	 width="100%" viewBox="0 0 1200 410" enable-background="new 0 0 1200 410" xml:space="preserve">
<path fill="#000000" opacity="0.000000" stroke="none" 
	d="
M925.000000,411.000000 
	C616.666748,411.000000 308.833435,411.000000 1.000124,411.000000 
	C1.000083,274.333405 1.000083,137.666824 1.000041,1.000179 
	C400.999847,1.000119 800.999695,1.000119 1200.999634,1.000060 
	C1200.999756,137.666489 1200.999756,274.332977 1200.999878,410.999756 
	C1109.166626,411.000000 1017.333313,411.000000 925.000000,411.000000 
M1081.625366,115.706169 
	C1081.625366,115.706169 1082.012573,116.009499 1081.946655,116.829819 
	C1080.965210,124.273300 1079.581421,131.692612 1079.132446,139.168076 
	C1078.787598,144.909973 1082.777344,148.846924 1087.879150,147.802856 
	C1092.034058,146.952560 1096.541382,145.259338 1099.692871,142.546417 
	C1109.771851,133.870392 1119.593872,124.842186 1128.917358,115.362236 
	C1134.617188,109.566978 1139.189697,102.668495 1144.334961,96.319359 
	C1145.836670,94.466370 1147.290527,91.762787 1149.244263,91.241974 
	C1154.858398,89.745361 1160.717041,89.165863 1167.002808,88.140640 
	C1164.638428,91.342567 1162.444092,94.179420 1160.393066,97.116394 
	C1153.394897,107.137520 1147.110718,117.292633 1147.894531,130.411148 
	C1148.551270,141.404602 1156.650024,146.935593 1166.209106,141.894852 
	C1176.995728,136.206818 1185.433838,127.518150 1193.472168,118.625244 
	C1195.700439,116.160088 1195.724854,111.702919 1196.760498,108.159653 
	C1196.273315,107.964775 1195.786255,107.769905 1195.299194,107.575027 
	C1191.458008,110.306038 1187.717896,113.196594 1183.743042,115.716904 
	C1180.621582,117.696251 1177.382568,119.844688 1173.889648,120.807762 
	C1167.359253,122.608315 1163.558594,118.598969 1166.362183,112.602882 
	C1169.386963,106.133682 1173.420532,100.084251 1177.467529,94.161629 
	C1180.602295,89.574074 1185.114502,85.845161 1187.804321,81.055069 
	C1192.218750,73.193840 1186.979004,64.683357 1178.207275,65.092270 
	C1169.920044,65.478600 1161.668213,66.628883 1153.084839,67.474251 
	C1153.458740,66.418419 1154.020630,65.429443 1154.129028,64.393013 
	C1154.321167,62.555450 1154.237915,60.689079 1154.269653,58.834747 
	C1152.599365,58.898808 1150.721680,58.485146 1149.292603,59.105045 
	C1140.523438,62.908714 1135.469727,70.368538 1131.275513,78.437965 
	C1126.144165,88.310738 1126.541748,90.389885 1133.856201,97.997475 
	C1127.629150,108.506172 1119.167603,116.548508 1107.943848,121.561722 
	C1104.609863,123.050903 1100.772339,123.808533 1098.588135,120.713844 
	C1096.963501,118.411880 1096.056396,114.365639 1096.925659,111.808746 
	C1098.549805,107.031067 1101.318115,102.499123 1104.294434,98.356422 
	C1109.331543,91.345139 1115.186523,84.814621 1108.478638,75.647430 
	C1108.093750,75.121544 1109.390747,73.040283 1110.274902,71.996109 
	C1111.279175,70.810059 1113.337769,70.222031 1113.828247,68.947136 
	C1115.886841,63.595619 1108.546021,54.698528 1103.068848,56.232677 
	C1094.511597,58.629471 1085.701050,60.889133 1077.868286,64.904884 
	C1068.633057,69.639702 1059.684570,75.433754 1051.806152,82.166176 
	C1044.762695,88.185043 1036.509766,93.858421 1033.207153,103.079918 
	C1031.472656,107.923355 1028.399658,111.169502 1025.009399,114.439682 
	C1022.037170,117.306549 1019.090637,120.324951 1015.668152,122.567276 
	C1011.727905,125.148918 1007.797668,128.947830 1002.281982,126.087387 
	C996.428467,123.051781 993.021118,107.051758 997.392334,102.106720 
	C1010.426880,87.361198 1023.140076,72.439056 1032.647339,55.005920 
	C1039.697998,42.077393 1045.610962,28.945148 1044.902344,13.832068 
	C1044.798584,11.620825 1043.900024,8.183295 1042.452393,7.603773 
	C1040.434082,6.795750 1036.825439,7.298169 1035.165649,8.720119 
	C1028.193848,14.692766 1020.845337,20.545942 1015.206177,27.684284 
	C1004.806946,40.848160 995.993103,55.248867 989.766235,70.882484 
	C985.446472,81.727936 982.216797,93.045815 979.111328,104.320938 
	C977.495422,110.187813 970.509766,115.550026 963.930420,114.387093 
	C964.208008,113.449532 964.451355,112.531006 964.750793,111.631172 
	C967.464417,103.477402 970.466492,95.406235 972.817627,87.149597 
	C974.603271,80.879066 971.902344,75.922874 966.153748,73.135201 
	C969.016968,66.590904 967.975281,63.437222 961.570190,62.405857 
	C957.313354,61.720406 952.607117,61.903275 948.432922,62.980179 
	C934.643250,66.537849 924.579956,75.659218 916.042969,86.533501 
	C903.726562,102.221954 901.361694,119.551079 913.110352,136.014191 
	C918.443481,143.487350 925.348999,145.526764 934.332703,143.290054 
	C942.401978,141.280975 947.144409,135.014694 952.803284,129.822952 
	C954.245850,128.499420 956.301514,127.725021 958.198792,127.039772 
	C962.869324,125.352951 967.661560,123.996223 972.300110,122.231422 
	C974.152771,121.526550 975.729797,120.097237 976.857971,119.368607 
	C978.540283,125.221809 979.792908,130.943085 981.828796,136.370575 
	C985.690979,146.667175 993.494812,149.879562 1003.351868,145.051422 
	C1007.840271,142.852936 1011.896851,139.652771 1015.869202,136.548462 
	C1021.805237,131.909500 1027.493652,126.953812 1033.287476,122.132889 
	C1033.197388,124.954498 1034.526123,129.413635 1036.832397,133.291367 
	C1044.643433,146.424667 1048.574463,147.831726 1060.542969,136.795639 
	C1067.826782,130.079361 1074.367798,122.557510 1081.625366,115.706169 
M828.501282,174.992493 
	C828.001648,175.001968 827.483093,174.926315 827.005127,175.033005 
	C783.389832,184.768463 751.945862,209.839584 733.333008,250.432022 
	C722.199890,274.712036 719.635803,300.206055 726.075500,326.235992 
	C733.251587,355.242096 749.986450,377.232605 776.264282,391.604553 
	C794.102417,401.360626 813.311707,405.818115 833.625000,403.886108 
	C843.710022,402.926910 853.950500,401.704071 863.648987,398.943298 
	C890.509521,391.297150 912.010864,375.471802 929.036743,353.445190 
	C944.440735,333.516663 952.988831,310.844299 954.860718,285.871765 
	C956.053345,269.960632 953.775452,254.300705 947.980225,239.265305 
	C938.567505,214.844620 922.240051,196.551605 899.035278,184.620743 
	C887.427612,178.652588 875.006470,175.235748 861.882141,173.801636 
	C850.892090,172.600739 840.156921,172.888977 828.501282,174.992493 
M301.994232,257.437744 
	C292.825470,304.434631 283.656708,351.431519 274.432983,398.710083 
	C297.098328,398.710083 318.365875,398.710083 339.908203,398.710083 
	C340.669891,393.937408 341.262512,389.377808 342.138397,384.873322 
	C347.742493,356.052277 353.379913,327.237671 359.075836,298.434662 
	C360.431274,291.580658 361.653229,285.182251 368.485626,280.483765 
	C380.249146,272.394287 392.952637,270.433685 406.397491,272.192108 
	C416.506073,273.514160 420.114075,280.246460 418.705750,288.407990 
	C416.671478,300.196960 414.246399,311.919403 411.925415,323.657837 
	C406.998016,348.578064 402.030151,373.490356 397.022736,398.688446 
	C419.118347,398.688446 440.847748,398.688446 462.601776,398.688446 
	C464.802338,386.620728 466.859039,374.832642 469.112518,363.082306 
	C475.075165,331.991394 481.072449,300.906921 487.162170,269.840698 
	C489.546356,257.678070 484.672363,245.985825 474.685547,238.839127 
	C460.762360,228.875534 444.677216,227.134476 428.553589,227.269699 
	C413.380341,227.396973 398.685516,231.502380 384.702271,237.659653 
	C379.988770,239.735168 375.271576,241.802261 369.951385,244.138748 
	C370.732208,239.781509 371.378693,236.173981 372.026215,232.560730 
	C371.034363,232.298386 370.560974,232.064285 370.087189,232.063522 
	C350.093658,232.031433 330.099884,232.063721 310.106812,231.957718 
	C307.223358,231.942444 306.450958,233.477158 306.012512,235.805511 
	C304.708252,242.731323 303.345642,249.646133 301.994232,257.437744 
M638.500305,371.999756 
	C646.886108,380.047241 655.172058,388.203766 663.741333,396.050873 
	C665.471191,397.634949 668.267578,398.856537 670.583313,398.875214 
	C695.402161,399.075317 720.223206,399.005524 745.043640,398.984894 
	C746.411987,398.983765 747.780212,398.763702 750.014465,398.570801 
	C743.030457,392.276947 736.702820,386.729370 730.546204,380.998138 
	C710.029907,361.899384 689.598572,342.709259 669.083374,323.609314 
	C661.948364,316.966553 654.647095,310.502716 647.453918,303.922058 
	C643.058350,299.900818 638.723877,295.812866 633.797424,291.229645 
	C643.201599,282.344971 651.811096,274.345459 660.271606,266.191376 
	C681.205200,246.015991 702.113037,225.813416 722.943298,205.531525 
	C731.704346,197.001205 740.243591,188.243164 749.200195,179.271591 
	C747.457397,179.174576 745.889343,179.012268 744.321228,179.011230 
	C720.000549,178.995193 695.679443,179.064148 671.359558,178.927094 
	C667.935242,178.907791 665.499268,179.826157 663.081970,182.304733 
	C642.641235,203.263336 622.112427,224.136673 601.523682,244.950134 
	C587.583191,259.042755 573.499878,272.994141 559.491638,287.019867 
	C558.236023,288.277069 557.062866,289.616638 555.608521,291.178833 
	C583.275696,318.150665 610.638000,344.825287 638.500305,371.999756 
M166.509949,334.985809 
	C171.006287,315.167114 175.748245,295.400116 179.931763,275.515625 
	C184.355148,254.490967 188.221756,233.349487 192.380875,212.268784 
	C194.532410,201.363617 196.790756,190.479538 199.006195,179.559601 
	C198.176926,179.329117 197.703110,179.082916 197.228851,179.082092 
	C176.400726,179.045807 155.572006,178.971497 134.745743,179.161362 
	C133.488770,179.172836 131.411179,181.134338 131.130859,182.482742 
	C127.058586,202.070465 123.228539,221.708557 119.339928,241.334488 
	C114.557381,265.472046 109.808495,289.616333 104.979691,313.744629 
	C101.562416,330.819916 98.169968,347.925171 89.800705,363.481873 
	C79.414864,382.787018 62.689903,392.262695 41.276295,392.751831 
	C30.764818,392.991943 20.473562,389.976257 11.405609,383.989685 
	C10.641915,383.485504 9.612649,383.383575 7.902715,382.838348 
	C14.621384,390.912903 21.629112,395.539490 31.689421,399.031403 
	C48.633030,404.912384 65.982536,404.780975 83.567276,403.140503 
	C96.706734,401.914734 109.273735,398.603516 120.728508,392.444458 
	C143.757446,380.062042 158.414444,360.545532 166.509949,334.985809 
M537.495300,399.000000 
	C542.464722,399.000000 547.434143,399.000000 552.391907,399.000000 
	C557.295837,374.615814 561.872620,350.629608 567.051453,326.774139 
	C568.859009,318.447357 566.174744,313.481201 559.541565,308.519562 
	C552.991089,303.619751 547.783569,296.924469 541.759094,290.784637 
	C552.278015,280.256195 562.413086,269.678375 573.053772,259.636292 
	C578.752930,254.257751 583.232483,248.630783 583.744263,240.532562 
	C583.837158,239.062820 584.158813,237.601990 584.444763,236.150818 
	C588.236145,216.908020 592.039978,197.667709 595.921021,178.019867 
	C574.779419,178.019867 554.132324,177.959366 533.488037,178.177612 
	C532.311157,178.190063 530.406555,180.324097 530.108276,181.738129 
	C526.317322,199.709381 522.689758,217.716125 519.158752,235.740921 
	C515.028870,256.822723 511.107758,277.945496 506.961243,299.023987 
	C502.782715,320.265106 498.388855,341.463806 494.186859,362.700409 
	C491.820679,374.658813 489.651367,386.656128 487.324738,399.000000 
	C504.191284,399.000000 520.344299,399.000000 537.495300,399.000000 
M221.500000,399.000000 
	C230.132599,399.000000 238.765198,399.000000 247.783890,399.000000 
	C258.643921,343.292267 269.436127,287.932465 280.297882,232.215927 
	C258.065704,232.215927 236.803085,232.215927 214.971146,232.215927 
	C204.188507,287.666321 193.425812,343.014130 182.539047,399.000000 
	C195.916107,399.000000 208.208054,399.000000 221.500000,399.000000 
M837.721863,12.090915 
	C832.944702,13.731342 828.135498,15.284632 823.397522,17.031403 
	C815.070679,20.101339 806.848572,23.672949 801.214600,30.789801 
	C792.989685,41.179676 789.665588,53.287971 789.892761,66.559135 
	C789.978210,71.549400 792.106812,74.952293 796.129028,76.925026 
	C803.569397,80.574234 811.044250,84.411942 818.911011,86.872047 
	C830.535889,90.507423 842.590271,92.745567 854.318604,96.081985 
	C862.431946,98.390022 868.472473,103.814819 873.390747,110.603539 
	C864.550537,118.853416 854.161194,122.865646 843.255981,124.788750 
	C832.450134,126.694336 821.373291,127.616402 810.393433,127.825249 
	C799.451050,128.033401 788.276855,129.496780 776.848938,125.983376 
	C780.370911,123.987030 783.127502,122.424522 787.010193,120.223694 
	C784.655090,119.479813 783.913635,119.042534 783.171448,119.041290 
	C769.269531,119.017975 763.401611,124.422516 758.105225,137.009171 
	C755.592896,142.979523 757.425842,148.245346 763.064087,151.376038 
	C766.137512,153.082535 769.665405,154.289078 773.133545,154.908569 
	C785.257996,157.074295 797.422729,157.871078 809.829346,157.191681 
	C823.973877,156.417099 837.878845,154.718277 851.483826,150.929550 
	C865.157837,147.121582 877.794312,141.363693 885.140381,128.251160 
	C891.238281,117.366699 891.799927,105.052483 882.046692,95.553619 
	C873.277771,87.013397 862.387451,82.042824 851.119568,78.066048 
	C839.460876,73.951332 827.493774,70.715584 815.691528,67.000366 
	C806.515198,64.111786 806.053284,59.973869 812.554688,52.985283 
	C813.318298,52.164505 814.356689,51.592007 815.292358,50.939869 
	C824.745544,44.351372 835.492676,41.038189 846.647583,39.064758 
	C855.989075,37.412140 865.409119,36.108875 874.842957,35.110722 
	C879.884583,34.577293 885.029053,35.016048 890.127136,35.016048 
	C890.163818,35.563496 890.200439,36.110943 890.237122,36.658390 
	C883.305908,41.607750 874.536316,44.528629 870.177551,54.643715 
	C873.275513,53.703346 875.153503,53.376427 876.812805,52.588852 
	C885.475342,48.477390 893.864990,43.692352 902.769043,40.216045 
	C911.859375,36.666988 915.631165,30.213717 915.965332,21.124495 
	C916.254517,13.257259 915.507629,12.509503 907.862061,9.910348 
	C896.476440,6.039744 884.653564,6.453227 873.032715,7.202137 
	C861.483459,7.946437 850.040039,10.332919 837.721863,12.090915 
M71.503784,368.996674 
	C82.658348,358.010040 87.729141,344.476471 84.388107,329.362976 
	C79.594124,307.677032 60.629463,301.406982 42.520679,305.523254 
	C24.175537,309.693207 11.933714,321.564758 6.631637,339.852203 
	C-0.023767,362.807373 13.931232,383.380829 38.454803,383.700531 
	C50.907711,383.862793 62.203671,378.947266 71.503784,368.996674 
M225.016663,181.963287 
	C225.011139,182.961685 225.059113,183.963669 224.992264,184.957947 
	C223.395859,208.700272 243.344376,218.436493 263.713226,212.605911 
	C272.943451,209.963760 279.735016,203.834030 285.303711,196.195969 
	C291.725342,187.388062 293.012939,170.886185 287.861633,162.380981 
	C280.687531,150.535995 267.337433,145.846130 252.898178,150.630356 
	C238.065475,155.544937 228.948212,165.991943 225.016663,181.963287 
z"/>
<path fill="#9ca3af" opacity="1.000000" stroke="none" 
	d="
M828.942444,174.978699 
	C840.156921,172.888977 850.892090,172.600739 861.882141,173.801636 
	C875.006470,175.235748 887.427612,178.652588 899.035278,184.620743 
	C922.240051,196.551605 938.567505,214.844620 947.980225,239.265305 
	C953.775452,254.300705 956.053345,269.960632 954.860718,285.871765 
	C952.988831,310.844299 944.440735,333.516663 929.036743,353.445190 
	C912.010864,375.471802 890.509521,391.297150 863.648987,398.943298 
	C853.950500,401.704071 843.710022,402.926910 833.625000,403.886108 
	C813.311707,405.818115 794.102417,401.360626 776.264282,391.604553 
	C749.986450,377.232605 733.251587,355.242096 726.075500,326.235992 
	C719.635803,300.206055 722.199890,274.712036 733.333008,250.432022 
	C751.945862,209.839584 783.389832,184.768463 827.005127,175.033005 
	C827.483093,174.926315 828.001648,175.001968 828.942444,174.978699 
M892.902771,300.081665 
	C892.962708,299.418854 892.939331,298.735809 893.094727,298.096222 
	C897.795227,278.754608 894.418335,261.602051 879.770386,247.269943 
	C864.146118,231.982574 845.599121,229.690674 825.780823,235.819992 
	C801.189209,243.425598 780.691467,269.247498 782.913208,297.893097 
	C784.114807,313.385437 790.768188,325.690308 802.939148,334.887787 
	C815.293213,344.223572 829.499939,346.964569 844.533936,343.849701 
	C858.573364,340.940918 870.343872,333.986267 879.850708,322.918213 
	C885.567932,316.262054 889.238464,308.705627 892.902771,300.081665 
z"/>
<path fill="#9ca3af" opacity="1.000000" stroke="none" 
	d="
M302.000031,257.001495 
	C303.345642,249.646133 304.708252,242.731323 306.012512,235.805511 
	C306.450958,233.477158 307.223358,231.942444 310.106812,231.957718 
	C330.099884,232.063721 350.093658,232.031433 370.087189,232.063522 
	C370.560974,232.064285 371.034363,232.298386 372.026215,232.560730 
	C371.378693,236.173981 370.732208,239.781509 369.951385,244.138748 
	C375.271576,241.802261 379.988770,239.735168 384.702271,237.659653 
	C398.685516,231.502380 413.380341,227.396973 428.553589,227.269699 
	C444.677216,227.134476 460.762360,228.875534 474.685547,238.839127 
	C484.672363,245.985825 489.546356,257.678070 487.162170,269.840698 
	C481.072449,300.906921 475.075165,331.991394 469.112518,363.082306 
	C466.859039,374.832642 464.802338,386.620728 462.601776,398.688446 
	C440.847748,398.688446 419.118347,398.688446 397.022736,398.688446 
	C402.030151,373.490356 406.998016,348.578064 411.925415,323.657837 
	C414.246399,311.919403 416.671478,300.196960 418.705750,288.407990 
	C420.114075,280.246460 416.506073,273.514160 406.397491,272.192108 
	C392.952637,270.433685 380.249146,272.394287 368.485626,280.483765 
	C361.653229,285.182251 360.431274,291.580658 359.075836,298.434662 
	C353.379913,327.237671 347.742493,356.052277 342.138397,384.873322 
	C341.262512,389.377808 340.669891,393.937408 339.908203,398.710083 
	C318.365875,398.710083 297.098328,398.710083 274.432983,398.710083 
	C283.656708,351.431519 292.825470,304.434631 302.000031,257.001495 
z"/>
<path fill="#9ca3af" opacity="1.000000" stroke="none" 
	d="
M638.250244,371.749817 
	C610.638000,344.825287 583.275696,318.150665 555.608521,291.178833 
	C557.062866,289.616638 558.236023,288.277069 559.491638,287.019867 
	C573.499878,272.994141 587.583191,259.042755 601.523682,244.950134 
	C622.112427,224.136673 642.641235,203.263336 663.081970,182.304733 
	C665.499268,179.826157 667.935242,178.907791 671.359558,178.927094 
	C695.679443,179.064148 720.000549,178.995193 744.321228,179.011230 
	C745.889343,179.012268 747.457397,179.174576 749.200195,179.271591 
	C740.243591,188.243164 731.704346,197.001205 722.943298,205.531525 
	C702.113037,225.813416 681.205200,246.015991 660.271606,266.191376 
	C651.811096,274.345459 643.201599,282.344971 633.797424,291.229645 
	C638.723877,295.812866 643.058350,299.900818 647.453918,303.922058 
	C654.647095,310.502716 661.948364,316.966553 669.083374,323.609314 
	C689.598572,342.709259 710.029907,361.899384 730.546204,380.998138 
	C736.702820,386.729370 743.030457,392.276947 750.014465,398.570801 
	C747.780212,398.763702 746.411987,398.983765 745.043640,398.984894 
	C720.223206,399.005524 695.402161,399.075317 670.583313,398.875214 
	C668.267578,398.856537 665.471191,397.634949 663.741333,396.050873 
	C655.172058,388.203766 646.886108,380.047241 638.250244,371.749817 
z"/>
<path fill="#9ca3af" opacity="1.000000" stroke="none" 
	d="
M166.317169,335.336914 
	C158.414444,360.545532 143.757446,380.062042 120.728508,392.444458 
	C109.273735,398.603516 96.706734,401.914734 83.567276,403.140503 
	C65.982536,404.780975 48.633030,404.912384 31.689421,399.031403 
	C21.629112,395.539490 14.621384,390.912903 7.902715,382.838348 
	C9.612649,383.383575 10.641915,383.485504 11.405609,383.989685 
	C20.473562,389.976257 30.764818,392.991943 41.276295,392.751831 
	C62.689903,392.262695 79.414864,382.787018 89.800705,363.481873 
	C98.169968,347.925171 101.562416,330.819916 104.979691,313.744629 
	C109.808495,289.616333 114.557381,265.472046 119.339928,241.334488 
	C123.228539,221.708557 127.058586,202.070465 131.130859,182.482742 
	C131.411179,181.134338 133.488770,179.172836 134.745743,179.161362 
	C155.572006,178.971497 176.400726,179.045807 197.228851,179.082092 
	C197.703110,179.082916 198.176926,179.329117 199.006195,179.559601 
	C196.790756,190.479538 194.532410,201.363617 192.380875,212.268784 
	C188.221756,233.349487 184.355148,254.490967 179.931763,275.515625 
	C175.748245,295.400116 171.006287,315.167114 166.317169,335.336914 
z"/>
<path fill="#9ca3af" opacity="1.000000" stroke="none" 
	d="
M1081.242432,115.397446 
	C1074.367798,122.557510 1067.826782,130.079361 1060.542969,136.795639 
	C1048.574463,147.831726 1044.643433,146.424667 1036.832397,133.291367 
	C1034.526123,129.413635 1033.197388,124.954498 1033.287476,122.132889 
	C1027.493652,126.953812 1021.805237,131.909500 1015.869202,136.548462 
	C1011.896851,139.652771 1007.840271,142.852936 1003.351868,145.051422 
	C993.494812,149.879562 985.690979,146.667175 981.828796,136.370575 
	C979.792908,130.943085 978.540283,125.221809 976.857971,119.368607 
	C975.729797,120.097237 974.152771,121.526550 972.300110,122.231422 
	C967.661560,123.996223 962.869324,125.352951 958.198792,127.039772 
	C956.301514,127.725021 954.245850,128.499420 952.803284,129.822952 
	C947.144409,135.014694 942.401978,141.280975 934.332703,143.290054 
	C925.348999,145.526764 918.443481,143.487350 913.110352,136.014191 
	C901.361694,119.551079 903.726562,102.221954 916.042969,86.533501 
	C924.579956,75.659218 934.643250,66.537849 948.432922,62.980179 
	C952.607117,61.903275 957.313354,61.720406 961.570190,62.405857 
	C967.975281,63.437222 969.016968,66.590904 966.153748,73.135201 
	C971.902344,75.922874 974.603271,80.879066 972.817627,87.149597 
	C970.466492,95.406235 967.464417,103.477402 964.750793,111.631172 
	C964.451355,112.531006 964.208008,113.449532 963.930420,114.387093 
	C970.509766,115.550026 977.495422,110.187813 979.111328,104.320938 
	C982.216797,93.045815 985.446472,81.727936 989.766235,70.882484 
	C995.993103,55.248867 1004.806946,40.848160 1015.206177,27.684284 
	C1020.845337,20.545942 1028.193848,14.692766 1035.165649,8.720119 
	C1036.825439,7.298169 1040.434082,6.795750 1042.452393,7.603773 
	C1043.900024,8.183295 1044.798584,11.620825 1044.902344,13.832068 
	C1045.610962,28.945148 1039.697998,42.077393 1032.647339,55.005920 
	C1023.140076,72.439056 1010.426880,87.361198 997.392334,102.106720 
	C993.021118,107.051758 996.428467,123.051781 1002.281982,126.087387 
	C1007.797668,128.947830 1011.727905,125.148918 1015.668152,122.567276 
	C1019.090637,120.324951 1022.037170,117.306549 1025.009399,114.439682 
	C1028.399658,111.169502 1031.472656,107.923355 1033.207153,103.079918 
	C1036.509766,93.858421 1044.762695,88.185043 1051.806152,82.166176 
	C1059.684570,75.433754 1068.633057,69.639702 1077.868286,64.904884 
	C1085.701050,60.889133 1094.511597,58.629471 1103.068848,56.232677 
	C1108.546021,54.698528 1115.886841,63.595619 1113.828247,68.947136 
	C1113.337769,70.222031 1111.279175,70.810059 1110.274902,71.996109 
	C1109.390747,73.040283 1108.093750,75.121544 1108.478638,75.647430 
	C1115.186523,84.814621 1109.331543,91.345139 1104.294434,98.356422 
	C1101.318115,102.499123 1098.549805,107.031067 1096.925659,111.808746 
	C1096.056396,114.365639 1096.963501,118.411880 1098.588135,120.713844 
	C1100.772339,123.808533 1104.609863,123.050903 1107.943848,121.561722 
	C1119.167603,116.548508 1127.629150,108.506172 1133.856201,97.997475 
	C1126.541748,90.389885 1126.144165,88.310738 1131.275513,78.437965 
	C1135.469727,70.368538 1140.523438,62.908714 1149.292603,59.105045 
	C1150.721680,58.485146 1152.599365,58.898808 1154.269775,58.834747 
	C1154.237915,60.689079 1154.321167,62.555450 1154.129028,64.393013 
	C1154.020630,65.429443 1153.458740,66.418419 1153.084839,67.474251 
	C1161.668213,66.628883 1169.920044,65.478600 1178.207275,65.092270 
	C1186.979004,64.683357 1192.218750,73.193840 1187.804321,81.055069 
	C1185.114502,85.845161 1180.602295,89.574074 1177.467529,94.161629 
	C1173.420532,100.084251 1169.386963,106.133682 1166.362183,112.602882 
	C1163.558594,118.598969 1167.359253,122.608315 1173.889648,120.807762 
	C1177.382568,119.844688 1180.621582,117.696251 1183.743042,115.716904 
	C1187.717896,113.196594 1191.458008,110.306038 1195.299194,107.575027 
	C1195.786255,107.769905 1196.273315,107.964775 1196.760498,108.159653 
	C1195.724854,111.702919 1195.700439,116.160088 1193.472168,118.625244 
	C1185.433838,127.518150 1176.995728,136.206818 1166.209106,141.894852 
	C1156.650024,146.935593 1148.551270,141.404602 1147.894531,130.411148 
	C1147.110718,117.292633 1153.394897,107.137520 1160.393066,97.116394 
	C1162.444092,94.179420 1164.638428,91.342567 1167.002808,88.140640 
	C1160.717041,89.165863 1154.858398,89.745361 1149.244263,91.241974 
	C1147.290527,91.762787 1145.836670,94.466370 1144.334961,96.319359 
	C1139.189697,102.668495 1134.617188,109.566978 1128.917358,115.362236 
	C1119.593872,124.842186 1109.771851,133.870392 1099.692871,142.546417 
	C1096.541382,145.259338 1092.034058,146.952560 1087.879150,147.802856 
	C1082.777344,148.846924 1078.787598,144.909973 1079.132446,139.168076 
	C1079.581421,131.692612 1080.965210,124.273300 1082.255615,116.307709 
	C1082.659058,115.291153 1082.753540,114.796700 1082.848022,114.302254 
	C1082.647217,114.183846 1082.446289,114.065437 1082.245483,113.947029 
	C1081.911133,114.430489 1081.576660,114.913948 1081.242432,115.397446 
M1066.354858,93.912140 
	C1064.163452,95.285698 1061.709473,96.370964 1059.828369,98.085045 
	C1053.317017,104.018188 1045.728638,109.348221 1046.948975,119.965492 
	C1047.474854,124.539284 1049.891479,126.437904 1053.802002,123.940727 
	C1059.821655,120.096626 1066.017822,116.181572 1071.020508,111.178192 
	C1077.600586,104.597244 1083.153809,96.978470 1089.032959,89.712387 
	C1091.885010,86.187408 1094.473755,82.449448 1097.181763,78.807892 
	C1096.795776,78.400017 1096.409912,77.992149 1096.024048,77.584274 
	C1086.337646,82.886559 1076.651245,88.188850 1066.354858,93.912140 
M945.000916,104.778236 
	C947.585327,96.874527 950.169739,88.970818 952.968506,80.411476 
	C945.548706,85.833580 938.212158,90.941177 931.163391,96.419022 
	C924.485229,101.608788 922.318787,109.207077 921.614502,117.185204 
	C921.378662,119.856461 921.489929,123.853996 923.096497,125.082794 
	C925.395020,126.840874 929.504272,127.716560 932.314270,126.975151 
	C936.602661,125.843681 940.492798,123.096825 944.427673,120.820831 
	C945.210083,120.368279 945.867859,118.934555 945.838074,117.976387 
	C945.711060,113.882668 945.304932,109.797615 945.000916,104.778236 
M1031.364380,34.155994 
	C1031.262695,32.995575 1031.161011,31.835155 1031.059448,30.674742 
	C1030.040039,30.959249 1028.751465,30.948776 1028.053833,31.585735 
	C1026.237671,33.244095 1024.250610,34.949909 1023.092712,37.055252 
	C1017.064148,48.016205 1011.100403,59.021214 1005.496765,70.202667 
	C1003.644775,73.898056 1002.934875,78.165817 1001.702759,82.171852 
	C1003.340942,82.049118 1004.070251,81.601479 1004.520386,80.958458 
	C1010.384399,72.581741 1016.695801,64.464958 1021.882080,55.684692 
	C1025.711060,49.202442 1028.059692,41.845882 1031.364380,34.155994 
z"/>
<path fill="#9ca3af" opacity="1.000000" stroke="none" 
	d="
M536.996338,399.000000 
	C520.344299,399.000000 504.191284,399.000000 487.324738,399.000000 
	C489.651367,386.656128 491.820679,374.658813 494.186859,362.700409 
	C498.388855,341.463806 502.782715,320.265106 506.961243,299.023987 
	C511.107758,277.945496 515.028870,256.822723 519.158752,235.740921 
	C522.689758,217.716125 526.317322,199.709381 530.108276,181.738129 
	C530.406555,180.324097 532.311157,178.190063 533.488037,178.177612 
	C554.132324,177.959366 574.779419,178.019867 595.921021,178.019867 
	C592.039978,197.667709 588.236145,216.908020 584.444763,236.150818 
	C584.158813,237.601990 583.837158,239.062820 583.744263,240.532562 
	C583.232483,248.630783 578.752930,254.257751 573.053772,259.636292 
	C562.413086,269.678375 552.278015,280.256195 541.759094,290.784637 
	C547.783569,296.924469 552.991089,303.619751 559.541565,308.519562 
	C566.174744,313.481201 568.859009,318.447357 567.051453,326.774139 
	C561.872620,350.629608 557.295837,374.615814 552.391907,399.000000 
	C547.434143,399.000000 542.464722,399.000000 536.996338,399.000000 
z"/>
<path fill="#9ca3af" opacity="1.000000" stroke="none" 
	d="
M221.000000,399.000000 
	C208.208054,399.000000 195.916107,399.000000 182.539047,399.000000 
	C193.425812,343.014130 204.188507,287.666321 214.971146,232.215927 
	C236.803085,232.215927 258.065704,232.215927 280.297882,232.215927 
	C269.436127,287.932465 258.643921,343.292267 247.783890,399.000000 
	C238.765198,399.000000 230.132599,399.000000 221.000000,399.000000 
z"/>
<path fill="#9ca3af" opacity="1.000000" stroke="none" 
	d="
M838.135986,12.045091 
	C850.040039,10.332919 861.483459,7.946437 873.032715,7.202137 
	C884.653564,6.453227 896.476440,6.039744 907.862061,9.910348 
	C915.507629,12.509503 916.254517,13.257259 915.965332,21.124495 
	C915.631165,30.213717 911.859375,36.666988 902.769043,40.216045 
	C893.864990,43.692352 885.475342,48.477390 876.812805,52.588852 
	C875.153503,53.376427 873.275513,53.703346 870.177551,54.643715 
	C874.536316,44.528629 883.305908,41.607750 890.237122,36.658390 
	C890.200439,36.110943 890.163818,35.563496 890.127136,35.016048 
	C885.029053,35.016048 879.884583,34.577293 874.842957,35.110722 
	C865.409119,36.108875 855.989075,37.412140 846.647583,39.064758 
	C835.492676,41.038189 824.745544,44.351372 815.292358,50.939869 
	C814.356689,51.592007 813.318298,52.164505 812.554688,52.985283 
	C806.053284,59.973869 806.515198,64.111786 815.691528,67.000366 
	C827.493774,70.715584 839.460876,73.951332 851.119568,78.066048 
	C862.387451,82.042824 873.277771,87.013397 882.046692,95.553619 
	C891.799927,105.052483 891.238281,117.366699 885.140381,128.251160 
	C877.794312,141.363693 865.157837,147.121582 851.483826,150.929550 
	C837.878845,154.718277 823.973877,156.417099 809.829346,157.191681 
	C797.422729,157.871078 785.257996,157.074295 773.133545,154.908569 
	C769.665405,154.289078 766.137512,153.082535 763.064087,151.376038 
	C757.425842,148.245346 755.592896,142.979523 758.105225,137.009171 
	C763.401611,124.422516 769.269531,119.017975 783.171448,119.041290 
	C783.913635,119.042534 784.655090,119.479813 787.010193,120.223694 
	C783.127502,122.424522 780.370911,123.987030 776.848938,125.983376 
	C788.276855,129.496780 799.451050,128.033401 810.393433,127.825249 
	C821.373291,127.616402 832.450134,126.694336 843.255981,124.788750 
	C854.161194,122.865646 864.550537,118.853416 873.390747,110.603539 
	C868.472473,103.814819 862.431946,98.390022 854.318604,96.081985 
	C842.590271,92.745567 830.535889,90.507423 818.911011,86.872047 
	C811.044250,84.411942 803.569397,80.574234 796.129028,76.925026 
	C792.106812,74.952293 789.978210,71.549400 789.892761,66.559135 
	C789.665588,53.287971 792.989685,41.179676 801.214600,30.789801 
	C806.848572,23.672949 815.070679,20.101339 823.397522,17.031403 
	C828.135498,15.284632 832.944702,13.731342 838.135986,12.045091 
z"/>
<path fill="#9ca3af" opacity="1.000000" stroke="none" 
	d="
M71.250687,369.249908 
	C62.203671,378.947266 50.907711,383.862793 38.454803,383.700531 
	C13.931232,383.380829 -0.023767,362.807373 6.631637,339.852203 
	C11.933714,321.564758 24.175537,309.693207 42.520679,305.523254 
	C60.629463,301.406982 79.594124,307.677032 84.388107,329.362976 
	C87.729141,344.476471 82.658348,358.010040 71.250687,369.249908 
z"/>
<path fill="#9ca3af" opacity="1.000000" stroke="none" 
	d="
M225.042419,181.518555 
	C228.948212,165.991943 238.065475,155.544937 252.898178,150.630356 
	C267.337433,145.846130 280.687531,150.535995 287.861633,162.380981 
	C293.012939,170.886185 291.725342,187.388062 285.303711,196.195969 
	C279.735016,203.834030 272.943451,209.963760 263.713226,212.605911 
	C243.344376,218.436493 223.395859,208.700272 224.992264,184.957947 
	C225.059113,183.963669 225.011139,182.961685 225.042419,181.518555 
z"/>
</svg>