
<svg version="1.1" id="Layer_1" xmlns="http://www.w3.org/2000/svg" xmlns:xlink="http://www.w3.org/1999/xlink" x="0px" y="0px"
	 width="100%" viewBox="90 150 1750 280" enable-background="new 0 0 1924 548" xml:space="preserve">
<path fill="#33a796" opacity="1.000000" stroke="none" 
	d="
M1070.050293,388.971985 
	C1068.197754,353.723724 1066.280273,318.956848 1064.565796,284.179932 
	C1063.835693,269.370514 1063.533691,254.540024 1063.026123,239.719482 
	C1062.972290,238.150146 1062.843506,236.583359 1061.605103,234.699295 
	C1061.096313,235.878021 1060.405518,237.012268 1060.104858,238.241898 
	C1049.725464,280.697296 1039.347534,323.153137 1029.102051,365.640930 
	C1028.270874,369.087311 1027.277466,371.286774 1023.175293,371.239563 
	C1007.562744,371.059906 991.947693,371.068573 976.333618,371.073181 
	C973.430847,371.074036 972.500488,369.667847 971.851013,366.954895 
	C961.674683,324.448822 951.367004,281.974182 941.075623,239.495728 
	C940.682495,237.873062 940.148315,236.284576 939.679749,234.680176 
	C939.199341,234.759354 938.718933,234.838531 938.238525,234.917694 
	C937.033020,263.013428 935.962097,291.115753 934.584290,319.203033 
	C933.196960,347.485535 931.504517,375.753021 929.916931,404.549774 
	C913.286621,406.678192 896.808716,407.036316 879.490845,403.693756 
	C885.391602,328.093903 891.281982,252.627579 897.231323,176.405624 
	C905.193665,175.677429 913.118958,174.312408 921.033997,174.369797 
	C935.000183,174.471039 948.958862,175.472763 962.923645,176.019882 
	C966.114380,176.144867 967.389709,177.608841 968.092102,180.747177 
	C978.109863,225.509705 988.271179,270.240112 998.406860,314.976227 
	C998.695374,316.249542 999.083923,317.500153 999.842102,320.296295 
	C1000.945923,317.983307 1001.704102,316.924377 1001.973694,315.752991 
	C1012.261169,271.054840 1022.570435,226.361435 1032.639404,181.613968 
	C1033.545166,177.589096 1035.234863,176.320709 1039.117188,175.844635 
	C1059.241699,173.376816 1079.326660,173.415390 1099.416260,176.045624 
	C1100.863525,176.235107 1102.281860,176.644623 1103.763550,176.962524 
	C1109.664185,252.610214 1115.540771,327.948883 1121.441040,403.590973 
	C1104.428833,407.184967 1087.948608,406.540161 1071.136597,404.631531 
	C1070.764893,399.353058 1070.416260,394.401154 1070.050293,388.971985 
z"/>
<path fill="#33a796" opacity="1.000000" stroke="none" 
	d="
M173.120056,408.975464 
	C146.106277,407.852234 121.835838,399.511536 99.291557,385.825012 
	C98.141953,385.127106 97.058403,382.883423 97.278694,381.586060 
	C99.752762,367.015961 106.576324,354.766327 116.730247,345.270874 
	C128.693573,350.481720 139.847488,356.086853 151.519714,360.232666 
	C165.706940,365.271790 180.561447,368.172455 195.628601,364.996796 
	C212.311035,361.480652 218.334686,341.695374 206.285187,329.635040 
	C201.734268,325.080048 195.613388,321.753113 189.687302,318.979065 
	C174.508423,311.873840 158.779129,305.911713 143.787903,298.451630 
	C135.863708,294.508331 128.581100,288.912567 121.770248,283.161163 
	C98.564194,263.564911 100.405449,226.042389 114.697243,205.515656 
	C129.885712,183.701065 151.809860,174.373932 177.178162,172.099457 
	C206.781113,169.445312 234.637634,176.513885 261.189362,189.280136 
	C262.338898,189.832825 263.735718,191.650589 263.635040,192.752762 
	C262.440613,205.826859 258.186523,217.649139 249.099655,227.509506 
	C246.742783,230.066971 244.897095,230.115112 241.858109,228.680557 
	C224.448288,220.462341 206.404068,214.348450 186.890472,214.075378 
	C179.509460,213.972076 172.273773,214.818024 166.211288,219.861038 
	C156.633896,227.827866 156.512466,239.977417 166.334534,247.634048 
	C169.698166,250.256119 173.571259,252.385590 177.489868,254.106445 
	C192.992783,260.914581 208.753265,267.150391 224.139816,274.205627 
	C242.000488,282.395294 256.733551,294.113464 264.345154,313.090576 
	C275.374207,340.587891 268.704742,380.229889 232.777008,398.085724 
	C213.991837,407.421875 194.144012,409.790192 173.120056,408.975464 
z"/>
<path fill="#33a796" opacity="1.000000" stroke="none" 
	d="
M597.310181,241.285645 
	C616.909363,236.921295 636.179138,232.602936 655.984863,234.119904 
	C679.381409,235.911911 699.584290,247.125259 706.148315,269.938049 
	C708.276428,277.334198 709.030518,285.313843 709.189453,293.051697 
	C709.600098,313.041016 709.275940,333.044525 709.351746,353.041992 
	C709.387756,362.558929 709.247437,372.174561 717.524048,379.217194 
	C718.189392,379.783356 718.335266,381.839569 717.853088,382.735565 
	C714.025085,389.849548 710.068726,396.898529 705.973511,403.862671 
	C704.254028,406.786835 701.449280,407.125610 698.166199,406.721558 
	C685.358521,405.145264 674.645691,399.860291 666.624878,389.270294 
	C656.866272,398.025970 646.224670,404.665222 633.603516,407.536957 
	C603.781616,414.322540 571.180359,400.699097 567.413818,364.362427 
	C564.588562,337.106537 577.615295,313.203094 608.976807,304.014282 
	C622.187866,300.143494 635.678894,300.872864 649.158142,301.052704 
	C651.614380,301.085480 654.071411,301.057373 656.523132,301.057373 
	C658.873840,283.440063 650.556885,273.395538 634.257141,274.271606 
	C630.607361,274.467773 626.907471,274.775696 623.357056,275.586090 
	C612.344299,278.099731 601.335510,280.673370 590.447693,283.668945 
	C586.639648,284.716675 584.764893,283.698090 582.894409,280.548065 
	C577.067566,270.735229 574.668823,260.005554 573.455872,248.054047 
	C581.357788,245.811462 589.133423,243.604736 597.310181,241.285645 
M619.333435,345.195923 
	C618.958008,346.644287 618.480042,348.074707 618.223328,349.543823 
	C616.207581,361.081146 620.145569,368.084412 629.800659,370.320770 
	C640.156799,372.719452 648.193665,367.883820 655.845947,361.953278 
	C656.491821,361.452728 656.906921,360.265411 656.915466,359.392120 
	C656.995422,351.252563 656.962830,343.111908 656.962830,334.186249 
	C648.722351,334.186249 640.731079,333.653656 632.850586,334.358643 
	C626.801392,334.899841 622.043152,338.458801 619.333435,345.195923 
z"/>
<path fill="#33a796" opacity="1.000000" stroke="none" 
	d="
M298.834656,270.851044 
	C309.081177,251.182861 324.808868,238.687546 346.120789,234.725266 
	C371.971771,229.919128 396.700775,232.705002 417.098480,251.532944 
	C430.572449,263.969940 437.494110,280.022430 440.356323,297.882172 
	C443.664307,318.523743 443.426910,339.101013 436.600281,359.040436 
	C425.130096,392.542908 400.589203,409.238495 363.977722,409.147919 
	C327.444092,409.057556 300.816071,388.616882 291.990021,352.995056 
	C285.081207,325.111237 286.150848,297.616180 298.834656,270.851044 
M342.098389,338.221344 
	C343.614960,345.163849 344.380554,352.385468 346.831757,358.980591 
	C350.148712,367.904968 356.473724,370.791351 367.364502,370.152679 
	C375.450806,369.678467 381.760651,364.943542 384.002502,356.698090 
	C390.279877,333.609802 390.104706,310.351379 384.728546,287.138123 
	C382.808899,278.849579 377.752777,273.214905 368.870270,272.063660 
	C359.351807,270.829956 351.679688,273.844574 347.370087,282.815582 
	C345.455994,286.800079 343.474243,291.166840 343.223541,295.459412 
	C342.410767,309.375061 342.385193,323.336639 342.098389,338.221344 
z"/>
<path fill="#33a796" opacity="1.000000" stroke="none" 
	d="
M1172.536621,252.533417 
	C1197.175049,227.288467 1244.421143,226.702530 1270.003540,248.111298 
	C1285.462158,261.047821 1292.162720,278.087006 1293.645874,297.512115 
	C1294.676514,311.009674 1293.293945,324.377930 1289.520386,337.773682 
	C1260.555298,337.773682 1231.779907,337.773682 1203.013672,337.773682 
	C1202.650757,358.273041 1213.281128,370.504059 1234.773560,369.404541 
	C1247.240356,368.766754 1259.094360,365.773590 1270.580688,361.286896 
	C1274.759766,359.654480 1277.020508,360.315399 1279.560791,363.923889 
	C1284.661743,371.169922 1287.682983,379.134674 1288.902100,387.787537 
	C1289.084351,389.081726 1287.881104,391.157959 1286.699219,391.967041 
	C1274.423096,400.370331 1260.746704,405.321228 1246.094116,407.485229 
	C1231.023315,409.710999 1215.964844,410.195465 1200.963501,406.571655 
	C1177.268799,400.847748 1162.037964,385.787109 1155.399536,362.927795 
	C1147.401611,335.386627 1146.793213,307.454559 1155.886963,279.837646 
	C1159.256836,269.603516 1164.660034,260.492218 1172.536621,252.533417 
M1205.044067,283.707672 
	C1203.901245,289.607666 1202.758423,295.507660 1201.591797,301.530334 
	C1217.070679,301.530334 1231.456177,301.530334 1245.815674,301.530334 
	C1246.919189,284.963287 1240.913452,273.032562 1229.758057,270.506653 
	C1221.012939,268.526520 1210.357788,269.808441 1205.044067,283.707672 
z"/>
<path fill="#33a796" opacity="1.000000" stroke="none" 
	d="
M1781.821289,321.064423 
	C1798.231079,345.945068 1814.443726,370.507233 1830.808350,395.299561 
	C1819.016235,403.681702 1806.169189,407.935242 1791.954224,406.871185 
	C1782.279297,406.147003 1774.691895,401.039368 1769.272827,393.064636 
	C1761.612793,381.792572 1754.190918,370.358856 1746.376221,358.554565 
	C1738.740234,371.628082 1730.890747,384.149506 1724.036987,397.194214 
	C1720.684570,403.575012 1716.258789,405.909149 1709.515991,405.991028 
	C1698.024658,406.130585 1686.521606,406.832184 1675.336670,403.291321 
	C1669.934326,401.581116 1669.484741,400.371979 1672.490723,395.682953 
	C1687.836060,371.746368 1703.124512,347.772980 1718.614868,323.930573 
	C1720.694702,320.729248 1720.932251,318.579987 1718.722290,315.213562 
	C1704.578613,293.667786 1690.727051,271.930115 1676.781616,250.254150 
	C1675.893066,248.873184 1675.021606,247.481155 1673.956543,245.801300 
	C1686.754150,237.294052 1700.453003,233.257843 1715.576294,235.111526 
	C1724.012451,236.145569 1729.546387,241.789017 1734.018433,248.430984 
	C1740.513672,258.077759 1746.750122,267.898712 1753.422852,278.145905 
	C1760.615723,266.245117 1767.770020,254.796341 1774.479370,243.092529 
	C1776.771851,239.093567 1779.369629,237.191833 1784.080200,236.687134 
	C1795.781006,235.433426 1807.349854,235.474060 1818.839966,238.049637 
	C1825.813599,239.612793 1826.358643,241.085266 1822.568848,246.937546 
	C1808.920044,268.015228 1795.398682,289.177765 1781.499146,310.088867 
	C1778.800049,314.149536 1778.036133,317.222443 1781.821289,321.064423 
z"/>
<path fill="#33a796" opacity="1.000000" stroke="none" 
	d="
M1383.437012,345.968018 
	C1383.555664,348.955902 1383.531860,351.466461 1383.819214,353.940826 
	C1384.727539,361.762512 1389.071533,365.829529 1397.019897,366.055725 
	C1403.506348,366.240326 1410.002319,366.093292 1416.546509,366.093292 
	C1421.186279,376.836273 1421.920654,387.844055 1420.508545,399.035278 
	C1420.330444,400.446167 1418.383667,402.649261 1417.115112,402.752655 
	C1401.858032,403.996277 1386.570923,405.768494 1371.298340,405.708008 
	C1350.073364,405.623901 1337.628418,394.517578 1333.678101,373.690613 
	C1332.630737,368.168091 1332.330200,362.438019 1332.299194,356.799866 
	C1332.158569,331.304962 1332.237549,305.808868 1332.237427,280.313202 
	C1332.237427,278.489899 1332.237427,276.666565 1332.237427,274.520569 
	C1323.569092,274.520569 1315.145264,274.520569 1306.835083,274.520569 
	C1303.150269,264.356506 1303.030640,251.592651 1306.430176,237.847168 
	C1314.820435,237.847168 1323.256470,237.847168 1332.614380,237.847168 
	C1332.614380,229.732239 1332.550049,221.635208 1332.655151,213.540390 
	C1332.685181,211.227661 1333.052368,208.888962 1333.528687,206.617462 
	C1336.123535,194.243011 1342.464722,188.674896 1355.201172,187.980408 
	C1362.846313,187.563538 1370.520264,187.700974 1378.177124,187.461731 
	C1382.045044,187.340866 1383.511353,189.051239 1383.479736,192.859512 
	C1383.369263,206.189682 1383.433228,219.521286 1383.431030,232.852356 
	C1383.430664,234.470261 1383.430908,236.088165 1383.430908,237.843521 
	C1396.806152,237.843521 1409.754639,237.843521 1423.155273,237.843521 
	C1425.816284,249.897247 1425.797119,261.991791 1423.245728,274.155884 
	C1409.884766,274.155884 1396.941040,274.155884 1383.436646,274.155884 
	C1383.436646,297.965179 1383.436646,321.719635 1383.437012,345.968018 
z"/>
<path fill="#33a796" opacity="1.000000" stroke="none" 
	d="
M475.761230,384.100342 
	C474.461365,376.536316 472.295776,369.349518 472.265381,362.153687 
	C471.986725,296.196381 472.100372,230.237488 472.010254,164.279190 
	C472.004639,160.176559 473.476837,158.563202 477.596741,158.786774 
	C486.716888,159.281708 495.912048,159.001465 504.960297,160.045349 
	C514.241089,161.116074 519.796692,167.148163 521.335754,176.329697 
	C522.266479,181.881653 522.876770,187.559189 522.889404,193.181961 
	C523.004761,244.482788 522.955078,295.783997 522.963928,347.085083 
	C522.964294,349.415466 522.863525,351.770996 523.153137,354.071625 
	C524.093506,361.543365 528.567749,365.684601 536.072083,366.048218 
	C539.387329,366.208862 542.716858,366.075317 546.362610,366.075317 
	C550.892334,377.285431 551.396484,388.741882 549.910767,400.383118 
	C549.792908,401.306915 548.417786,402.683075 547.494019,402.800140 
	C531.346313,404.846375 515.249512,407.899414 498.879791,404.291107 
	C487.521515,401.787445 479.852142,395.370972 475.761230,384.100342 
z"/>
<path fill="#33a796" opacity="1.000000" stroke="none" 
	d="
M1453.714722,357.999817 
	C1453.500732,334.181061 1453.523438,310.856537 1452.955078,287.546448 
	C1452.731689,278.391602 1449.581665,269.989410 1442.812866,263.260040 
	C1441.953369,262.405579 1441.425293,260.131989 1441.944214,259.150696 
	C1445.722290,252.006210 1449.614380,244.901047 1453.952637,238.090668 
	C1454.866577,236.655807 1457.848877,235.687927 1459.750977,235.865768 
	C1477.236206,237.500778 1489.752563,246.553711 1497.723755,262.083923 
	C1498.173706,262.960754 1498.655273,263.821381 1499.418945,265.241364 
	C1505.318481,253.230072 1512.384644,242.871994 1525.336914,238.302780 
	C1537.801147,233.905716 1550.236816,235.747177 1563.206665,238.258911 
	C1562.552368,254.664062 1559.108887,270.209137 1551.262695,284.617218 
	C1550.760620,285.539307 1548.584961,286.079041 1547.283691,285.934509 
	C1543.827759,285.550720 1540.444702,284.556549 1536.996582,284.051025 
	C1523.680176,282.098633 1514.238037,288.299530 1507.064087,298.765320 
	C1506.056885,300.234528 1505.911133,302.513123 1505.907104,304.418213 
	C1505.840210,335.742218 1505.859985,367.066376 1505.860352,398.390472 
	C1505.860352,400.203583 1505.860229,402.016693 1505.860229,404.357788 
	C1488.404053,406.955017 1471.257935,406.884796 1453.714722,404.399719 
	C1453.714722,388.777679 1453.714722,373.638733 1453.714722,357.999817 
z"/>
<path fill="#33a796" opacity="1.000000" stroke="none" 
	d="
M803.217102,317.003113 
	C803.216858,346.314178 803.216858,375.125916 803.216858,404.410553 
	C785.682373,406.919922 768.523193,406.921997 751.097534,404.343628 
	C751.097534,400.843994 751.097595,397.856964 751.097534,394.869904 
	C751.097168,362.537506 751.121704,330.205048 751.083984,297.872681 
	C751.068970,285.020752 749.926392,272.519531 739.824768,262.831482 
	C739.069153,262.106781 738.982666,259.968536 739.437500,258.826904 
	C741.030457,254.828079 742.597595,250.724014 744.892151,247.116287 
	C753.934387,232.899002 752.690979,233.617661 769.207520,238.461700 
	C780.574036,241.795319 788.482788,249.920853 794.207947,260.163452 
	C795.006836,261.592712 795.755615,263.049988 797.067871,265.505127 
	C809.675110,235.512680 832.955811,231.875671 860.898376,238.437195 
	C859.779236,255.452011 856.378540,271.644989 847.898132,286.508820 
	C843.008118,285.623108 838.483582,284.569183 833.898682,284.018677 
	C821.857117,282.572815 809.780518,288.673248 804.260803,299.296814 
	C803.067688,301.593262 803.394714,304.739471 803.253052,307.506165 
	C803.099854,310.498138 803.217712,313.503998 803.217102,317.003113 
z"/>
<path fill="#33a796" opacity="1.000000" stroke="none" 
	d="
M1597.999634,389.990234 
	C1597.999634,358.671021 1598.001465,327.849579 1597.995117,297.028107 
	C1597.994751,295.029541 1598.017944,293.025024 1597.882324,291.033356 
	C1597.110962,279.711304 1592.160156,274.915344 1580.910645,274.507812 
	C1579.757446,274.466034 1578.606689,274.360107 1577.235596,274.269440 
	C1574.418945,262.319366 1574.680908,250.494049 1577.482910,237.361160 
	C1592.122192,237.290939 1607.003418,235.973801 1621.596069,237.469894 
	C1639.209961,239.275742 1649.153442,253.111435 1649.869141,270.323792 
	C1650.788940,292.445190 1650.379639,314.623871 1650.446045,336.778168 
	C1650.512695,359.086060 1650.460693,381.394257 1650.460693,404.311127 
	C1632.911255,406.990051 1615.617676,406.852936 1597.999634,404.380249 
	C1597.999634,399.443451 1597.999634,394.965729 1597.999634,389.990234 
z"/>
<path fill="#33a796" opacity="1.000000" stroke="none" 
	d="
M1642.559326,173.601135 
	C1646.238281,184.557175 1646.374023,195.220596 1642.760132,205.777039 
	C1642.106445,207.686417 1640.322632,209.934006 1638.526855,210.611908 
	C1624.844360,215.777771 1610.884521,215.592300 1596.900635,211.820496 
	C1593.308472,210.851562 1591.141846,208.500107 1590.121948,204.720078 
	C1587.316284,194.323120 1587.034180,184.034409 1590.921387,173.892914 
	C1591.548462,172.256668 1593.050049,170.388077 1594.604248,169.763275 
	C1608.734863,164.081985 1623.093506,163.957794 1637.409302,169.009872 
	C1639.324951,169.685928 1640.731812,171.803482 1642.559326,173.601135 
z"/>
</svg>