<svg version="1.1" id="Layer_1" xmlns="http://www.w3.org/2000/svg" xmlns:xlink="http://www.w3.org/1999/xlink" x="0px" y="0px"
	 width="100%" viewBox="100 150 500 450" enable-background="new 0 0 704 688" xml:space="preserve">
<path fill="#000000" opacity="1.000000" stroke="none" 
	d="
M459.000854,423.636932 
	C480.990204,423.644928 502.479828,423.626007 523.969299,423.674530 
	C533.271851,423.695526 536.636414,429.040894 532.484009,437.427917 
	C512.611511,477.566254 492.613159,517.642395 472.795654,557.807739 
	C470.117981,563.234741 466.509155,565.559082 460.277466,565.490051 
	C434.626404,565.205933 408.970367,565.390076 383.316193,565.358643 
	C374.127655,565.347351 370.558075,559.858154 374.686859,551.529907 
	C394.955505,510.645691 415.367645,469.832581 435.726227,428.992950 
	C437.535614,425.363312 440.345062,423.519531 444.508759,423.629120 
	C449.169708,423.751831 453.836700,423.644562 459.000854,423.636932 
z"/>
<path fill="#000000" opacity="1.000000" stroke="none" 
	d="
M195.999878,565.377197 
	C184.173264,565.371826 172.846390,565.410889 161.520142,565.345215 
	C153.106140,565.296509 149.436935,559.907349 153.080750,552.509033 
	C173.313065,511.429688 193.672440,470.412933 213.978577,429.369934 
	C215.961746,425.361572 219.101471,423.612213 223.605301,423.625183 
	C250.089355,423.701569 276.573822,423.621735 303.057922,423.684052 
	C311.792267,423.704590 315.174805,429.072968 311.307861,436.894165 
	C291.163513,477.637512 270.934265,518.338867 250.738434,559.056763 
	C248.629318,563.309082 245.523636,565.512939 240.472870,565.442139 
	C225.817795,565.236450 211.157883,565.373840 195.999878,565.377197 
z"/>
<path fill="#000000" opacity="1.000000" stroke="none" 
	d="
M397.169556,487.080627 
	C385.185577,511.104431 373.260468,534.742493 361.617310,558.518616 
	C359.154388,563.547974 355.880188,565.513611 350.290802,565.466492 
	C324.471527,565.248779 298.649414,565.384521 272.828369,565.353638 
	C263.776215,565.342773 260.150696,559.705994 264.200104,551.499939 
	C284.243683,510.882324 304.416229,470.328339 324.503174,429.732056 
	C326.572693,425.549438 329.665649,423.596222 334.410217,423.613007 
	C360.897339,423.706696 387.384949,423.630585 413.872284,423.683441 
	C422.448547,423.700562 425.828583,429.521881 421.860046,437.568542 
	C413.757538,453.997162 405.514252,470.356354 397.169556,487.080627 
z"/>
<path fill="#000000" opacity="1.000000" stroke="none" 
	d="
M375.572083,300.465088 
	C344.415924,293.378082 316.666595,299.937378 292.278839,319.665070 
	C271.124573,336.777130 259.921112,359.296265 258.080841,386.491821 
	C257.799805,390.644714 257.306946,394.731873 258.061707,398.893799 
	C258.627655,402.014587 257.187775,403.441864 253.886261,403.399231 
	C244.891830,403.283051 235.892990,403.256042 226.899994,403.419800 
	C223.659897,403.478821 222.464584,402.088531 222.243927,399.094391 
	C221.381058,387.386780 222.605728,375.803589 225.255798,364.474274 
	C235.217239,321.888123 260.188232,290.814148 300.184204,273.633179 
	C345.453430,254.186966 389.461243,258.963287 429.926971,287.383636 
	C458.453552,307.418762 475.526337,335.362274 481.774872,369.724609 
	C483.500397,379.213684 484.331451,388.817719 484.030762,398.496460 
	C483.923981,401.933014 482.677979,403.536133 478.916504,403.439880 
	C470.092773,403.214081 461.259155,403.310394 452.430450,403.384460 
	C449.453094,403.409393 447.756073,402.777069 448.016846,399.182678 
	C449.835571,374.116058 442.533844,351.904327 426.644806,332.508789 
	C413.318665,316.241699 396.177795,305.954620 375.572083,300.465088 
z"/>
<path fill="#000000" opacity="1.000000" stroke="none" 
	d="
M364.269958,237.541779 
	C349.669250,244.044525 336.934784,237.195801 335.461456,221.696487 
	C334.314728,209.633194 334.269257,197.420914 335.641602,185.342957 
	C336.816742,175.000656 344.594910,168.536713 354.645264,168.677277 
	C364.980927,168.821823 372.392944,175.601135 373.357574,186.233627 
	C374.470520,198.500473 374.472870,210.797958 373.413452,223.078964 
	C372.877502,229.292038 369.891113,234.047180 364.269958,237.541779 
z"/>
<path fill="#000000" opacity="1.000000" stroke="none" 
	d="
M229.429657,241.569733 
	C234.738113,246.887177 239.880219,251.874466 244.832870,257.043274 
	C253.246613,265.824188 253.514481,277.215851 245.640121,285.140289 
	C238.267899,292.559418 226.090195,292.454956 217.775803,284.533142 
	C209.942123,277.069305 202.330963,269.363770 194.805954,261.586487 
	C187.717010,254.259857 187.392090,242.387115 193.812790,235.250412 
	C200.457230,227.865005 211.820908,226.659698 220.074326,232.807693 
	C223.385513,235.274216 226.159561,238.461792 229.429657,241.569733 
z"/>
<path fill="#000000" opacity="1.000000" stroke="none" 
	d="
M519.476929,249.631073 
	C519.480713,254.288422 517.703369,257.779694 514.786926,260.717010 
	C506.930847,268.629242 499.149109,276.620911 491.113312,284.347504 
	C482.402008,292.723633 470.516235,292.644897 462.597626,284.469086 
	C455.354614,276.990814 456.061920,264.906769 464.294922,256.699860 
	C471.955597,249.063507 479.543152,241.345871 487.413391,233.929840 
	C496.030975,225.809601 510.635406,227.832947 517.038574,237.728256 
	C519.329407,241.268524 519.622681,245.194763 519.476929,249.631073 
z"/>
<path fill="#000000" opacity="1.000000" stroke="none" 
	d="
M532.067078,412.342163 
	C528.089111,412.339600 524.621765,412.423187 521.206116,411.328491 
	C513.086792,408.726288 508.058075,401.208130 508.484680,392.051025 
	C508.886353,383.428772 514.741577,375.918640 523.052490,374.797791 
	C536.925720,372.926727 550.930298,372.948303 564.800415,374.759491 
	C574.354614,376.007111 581.010376,385.093231 580.220581,394.408295 
	C579.377441,404.352356 571.802124,412.001984 562.015503,412.258667 
	C552.201660,412.516052 542.376343,412.332642 532.067078,412.342163 
z"/>
<path fill="#000000" opacity="1.000000" stroke="none" 
	d="
M147.469498,373.917603 
	C160.213135,374.196503 172.570816,372.646973 184.793182,374.682953 
	C195.287735,376.431091 201.063675,384.521790 200.307587,395.650635 
	C199.684921,404.815643 191.617722,412.157257 181.652084,412.293121 
	C170.498428,412.445160 159.340652,412.403473 148.185669,412.316772 
	C137.408142,412.233002 129.474838,405.028168 128.711105,394.829315 
	C127.936600,384.486389 134.347794,376.489807 145.070862,374.416382 
	C145.724197,374.290009 146.369186,374.120575 147.469498,373.917603 
z"/>
</svg>