<svg version="1.1" id="Layer_1" xmlns="http://www.w3.org/2000/svg" xmlns:xlink="http://www.w3.org/1999/xlink" x="0px" y="0px"
	 width="100%" viewBox="150 180 2400 400" enable-background="new 150 180 2400 400" xml:space="preserve">
<path fill="#1f3b69" opacity="0.000000" stroke="none" 
	d="
M1897.000000,857.000000 
	C1264.666748,857.000000 632.833496,857.000000 1.000170,857.000000 
	C1.000113,571.666748 1.000113,286.333557 1.000057,1.000246 
	C879.666443,1.000164 1758.332886,1.000164 2636.999512,1.000082 
	C2636.999512,286.333099 2636.999512,571.666199 2636.999756,856.999634 
	C2390.500000,857.000000 2144.000000,857.000000 1897.000000,857.000000 
M1640.083984,396.320068 
	C1631.711304,360.541565 1623.378296,324.753571 1614.830688,289.016907 
	C1614.463867,287.483521 1612.243164,285.500977 1610.670532,285.283081 
	C1588.940918,282.272766 1567.175171,282.305481 1545.403809,285.055115 
	C1542.658325,285.401855 1541.404663,286.377411 1541.183105,289.351532 
	C1538.867188,320.414307 1536.427734,351.467957 1533.994873,382.522003 
	C1531.470947,414.737549 1528.905518,446.949890 1526.380371,479.165344 
	C1525.315918,492.744629 1524.308472,506.328369 1523.268188,520.003174 
	C1524.487427,520.382141 1525.405518,520.784668 1526.364380,520.947998 
	C1541.748291,523.568176 1557.184082,523.557495 1572.676514,522.011658 
	C1575.853149,521.694763 1575.807373,519.811218 1575.910889,517.550232 
	C1578.476562,461.464172 1581.062988,405.379059 1583.669189,349.294891 
	C1583.722656,348.142670 1584.052368,347.003265 1584.253296,345.857880 
	C1584.717407,345.799286 1585.181519,345.740662 1585.645508,345.682037 
	C1586.112183,347.123413 1586.675049,348.541382 1587.031372,350.009521 
	C1597.699951,393.961151 1608.392090,437.907227 1618.915649,481.893616 
	C1619.757324,485.411713 1621.225830,487.014221 1624.809937,487.020691 
	C1639.778564,487.047668 1654.748535,487.073181 1669.714844,487.302612 
	C1675.418579,487.390015 1677.803467,485.232697 1679.199097,479.339783 
	C1689.429688,436.140472 1700.153564,393.057922 1710.764160,349.948975 
	C1711.122192,348.494415 1711.929565,347.150452 1712.527588,345.754913 
	C1714.653076,375.440430 1715.632080,404.694183 1717.078735,433.924774 
	C1718.524292,463.133575 1720.437622,492.319244 1722.150757,521.597534 
	C1738.580200,523.606506 1754.317871,523.593079 1770.073975,521.235535 
	C1773.354004,520.744690 1774.510254,519.722656 1774.216797,516.191101 
	C1772.229492,492.287231 1770.495239,468.362518 1768.630615,444.448273 
	C1765.756104,407.581635 1762.849121,370.717560 1759.943237,333.853363 
	C1758.688477,317.933868 1757.401733,302.016815 1756.131592,286.124512 
	C1755.188232,285.795105 1754.591064,285.471680 1753.960938,285.383179 
	C1731.553223,282.236603 1709.124023,282.189575 1686.727539,285.331390 
	C1685.251343,285.538513 1683.273682,287.746368 1682.890015,289.349335 
	C1673.446533,328.803955 1664.152344,368.294464 1654.923462,407.800049 
	C1652.981689,416.111145 1651.400513,424.506409 1649.653320,432.862885 
	C1649.045532,432.910797 1648.437866,432.958740 1647.830200,433.006653 
	C1645.298340,421.054474 1642.766357,409.102264 1640.083984,396.320068 
M711.009277,495.419678 
	C709.630798,499.368927 711.171143,501.442291 714.795593,503.539886 
	C735.835083,515.715942 758.277710,523.688049 782.505859,525.669434 
	C802.699341,527.320923 822.761719,526.194092 842.052856,518.895325 
	C884.019226,503.017487 895.037354,466.338379 886.764343,433.630585 
	C881.416077,412.485962 866.640930,398.584503 847.765869,389.305511 
	C831.836914,381.474823 815.173340,375.147339 798.918579,367.965179 
	C793.621765,365.624756 788.120789,363.317810 783.523254,359.904419 
	C770.168823,349.989655 772.494690,332.550354 788.216187,327.016968 
	C794.725281,324.726013 802.290344,324.321655 809.279236,324.724274 
	C827.427551,325.769775 844.472412,331.521729 860.749634,339.372101 
	C864.377136,341.121643 866.250427,340.437042 868.689758,337.715393 
	C877.470215,327.918762 881.938843,316.406952 883.441589,303.470398 
	C883.773193,300.615692 883.122070,299.342651 880.605408,298.142395 
	C854.653992,285.765503 827.485291,278.864105 798.591248,280.152252 
	C778.327332,281.055725 759.692017,287.057587 743.528503,299.635406 
	C716.974426,320.298645 709.581299,358.719574 727.210327,385.615204 
	C735.174683,397.766144 746.764221,406.105927 759.699219,412.164398 
	C775.487915,419.559570 791.807373,425.816986 807.653503,433.096985 
	C813.444580,435.757507 819.319824,439.147125 823.798523,443.577118 
	C836.197266,455.840942 830.624329,475.677704 813.743103,480.158081 
	C809.017822,481.412201 803.873413,481.653046 798.949036,481.494659 
	C776.099976,480.759705 755.375854,472.950806 735.914246,461.511749 
	C732.428406,459.462860 730.495728,459.953308 727.984863,462.767944 
	C719.726990,472.024780 714.061157,482.583130 711.009277,495.419678 
M1220.974854,427.456726 
	C1195.486572,445.931946 1190.839966,485.693146 1211.447021,508.985291 
	C1225.927368,525.352356 1251.323853,531.238831 1274.395996,522.301392 
	C1284.290039,518.468689 1293.246582,512.215515 1302.956299,506.882233 
	C1313.267578,516.612854 1316.946289,519.729309 1325.336914,521.588989 
	C1340.759155,525.007202 1340.289917,525.934631 1348.905151,512.671265 
	C1351.670044,508.414795 1353.348022,503.430481 1355.305542,498.689240 
	C1355.711060,497.707367 1355.623047,495.785248 1354.965210,495.213104 
	C1347.024780,488.307098 1346.549927,479.043121 1346.549805,469.589020 
	C1346.549683,448.433014 1346.503662,427.276917 1346.561523,406.121063 
	C1346.615967,386.200073 1341.595947,368.490356 1324.596802,356.161102 
	C1312.359131,347.285248 1298.202637,344.055969 1283.496460,345.054474 
	C1268.447388,346.076172 1253.412231,348.147095 1238.547241,350.760651 
	C1227.338379,352.731323 1216.407349,356.281952 1205.285522,359.146606 
	C1206.589233,371.936981 1209.177612,383.298737 1215.554688,393.592163 
	C1217.401367,396.572876 1219.145020,397.195801 1222.789062,396.335938 
	C1237.798218,392.794495 1252.817749,388.773804 1268.075073,386.944763 
	C1285.737183,384.827362 1295.257812,397.053436 1291.465576,414.088257 
	C1281.850220,414.088257 1272.345337,413.709564 1262.882080,414.175537 
	C1248.072632,414.904755 1233.911011,418.183472 1220.974854,427.456726 
M1059.187866,385.371368 
	C1053.784790,374.256500 1046.416504,364.723053 1036.334961,357.468872 
	C1019.198059,345.137939 999.724060,342.150574 979.314087,344.078522 
	C951.715332,346.685516 930.587097,359.697693 919.023438,385.348389 
	C905.639893,415.036072 905.436096,445.742065 915.583374,476.412811 
	C922.038208,495.923218 934.652771,510.511719 953.534729,519.246094 
	C969.336243,526.555542 985.928345,527.399048 1002.880493,525.047119 
	C1028.311157,521.518860 1047.712036,508.783691 1058.416382,485.400299 
	C1073.380493,452.711212 1072.727295,419.306976 1059.187866,385.371368 
M1875.288696,482.519073 
	C1863.939819,476.695251 1857.970703,465.563995 1859.279419,452.169952 
	C1861.036255,452.169952 1862.837769,452.169983 1864.639282,452.169983 
	C1891.288696,452.169952 1917.938354,452.112732 1944.587158,452.241760 
	C1947.931274,452.257935 1949.501099,451.601410 1950.324097,447.968658 
	C1953.635132,433.353882 1954.720459,418.598969 1952.666748,403.822266 
	C1950.438843,387.792480 1944.264893,373.365112 1931.939575,362.282135 
	C1915.816040,347.783997 1896.722778,342.633331 1875.270142,343.786652 
	C1844.202881,345.456879 1819.800537,363.534027 1810.013428,393.075897 
	C1802.110718,416.929596 1802.380005,441.195831 1806.551270,465.613068 
	C1809.302368,481.717804 1815.478760,496.179749 1827.464111,507.749573 
	C1839.434204,519.304749 1854.285278,524.411316 1870.339844,525.630615 
	C1897.126953,527.665039 1922.763672,523.485229 1945.813721,508.566193 
	C1947.111084,507.726562 1948.842773,505.850708 1948.670654,504.714752 
	C1947.104004,494.369385 1943.656616,484.716675 1936.448486,476.843140 
	C1935.641968,475.962067 1933.590576,475.482819 1932.399536,475.819183 
	C1927.292114,477.261566 1922.350464,479.293762 1917.238892,480.717987 
	C1903.670410,484.498474 1890.001709,487.227356 1875.288696,482.519073 
M2488.619629,380.126099 
	C2493.603760,372.454468 2498.605469,364.794006 2503.565918,357.107025 
	C2506.395508,352.721985 2505.735352,351.081879 2500.859863,349.754395 
	C2487.104980,346.009125 2473.194336,346.149902 2459.268555,348.333527 
	C2457.500488,348.610779 2455.486084,350.324799 2454.474365,351.932251 
	C2447.921387,362.345825 2441.615234,372.914764 2435.227051,383.432190 
	C2433.893066,385.628723 2432.555176,387.822845 2430.979248,390.412079 
	C2424.015137,379.817322 2417.610352,369.907440 2411.027344,360.117157 
	C2406.681396,353.653625 2401.551758,347.675110 2393.479492,346.243195 
	C2377.125488,343.342285 2362.362061,347.782013 2348.492188,356.964050 
	C2349.108154,358.017242 2349.484863,358.721222 2349.916260,359.389832 
	C2364.976074,382.729919 2379.971191,406.112518 2395.190918,429.347839 
	C2397.159912,432.353516 2397.078125,434.306458 2395.172852,437.235107 
	C2378.939209,462.191620 2362.875000,487.258759 2346.770264,512.299255 
	C2343.748535,516.997437 2344.241943,518.398621 2349.666016,520.007629 
	C2363.862549,524.218994 2378.304443,523.605835 2392.722656,521.702087 
	C2394.578857,521.457031 2396.701172,519.404297 2397.770264,517.629089 
	C2406.431152,503.248932 2414.870117,488.735199 2423.652100,473.793304 
	C2430.800293,484.605865 2437.677979,495.181793 2444.756836,505.621002 
	C2447.170410,509.179993 2449.694580,512.832092 2452.848389,515.691528 
	C2466.520264,528.086731 2496.229492,525.807129 2511.081055,511.389709 
	C2493.918945,485.480560 2476.792236,459.516876 2459.501953,433.662781 
	C2457.420410,430.550385 2456.918945,428.439636 2459.255859,424.986816 
	C2469.136230,410.387817 2478.585938,395.497467 2488.619629,380.126099 
M2010.022339,515.522827 
	C2016.390991,517.727844 2022.740112,521.724304 2029.131958,521.793396 
	C2046.549316,521.981689 2063.984375,520.503906 2081.413086,519.704590 
	C2084.072510,519.582642 2084.899170,518.210632 2085.266602,515.615845 
	C2086.743652,505.186829 2085.694580,495.075500 2082.526611,485.067749 
	C2081.731934,482.556976 2080.619873,481.679779 2078.005615,481.768280 
	C2072.515625,481.954132 2067.005859,481.990662 2061.519531,481.746735 
	C2051.762695,481.312927 2047.364624,476.796356 2046.866821,467.097290 
	C2046.807007,465.933502 2046.780029,464.766724 2046.779785,463.601349 
	C2046.774658,438.948700 2046.775635,414.296051 2046.775391,389.643402 
	C2046.775391,388.543427 2046.775391,387.443420 2046.775391,386.415405 
	C2060.754639,386.415405 2074.193604,386.415405 2087.870117,386.415405 
	C2090.759033,373.887939 2090.757568,361.308624 2087.855225,348.832825 
	C2073.952393,348.832825 2060.531250,348.832825 2046.906616,348.832825 
	C2046.855469,347.789093 2046.782104,346.985962 2046.781738,346.182739 
	C2046.774170,331.690979 2046.681519,317.198242 2046.833496,302.708069 
	C2046.878296,298.446014 2045.358398,296.623871 2041.009766,296.778137 
	C2035.187134,296.984741 2029.339233,296.598633 2023.525513,296.906738 
	C2018.741577,297.160217 2013.793213,297.406250 2009.265259,298.791321 
	C1997.684448,302.333862 1994.585938,311.980988 1994.017578,322.630310 
	C1993.552612,331.342804 1993.922852,340.099854 1993.922852,348.855652 
	C1984.156616,348.855652 1975.391357,348.855652 1966.531494,348.855652 
	C1963.471680,361.556122 1963.126587,373.981689 1966.704834,386.922913 
	C1975.681885,386.922913 1984.553833,386.922913 1993.611572,386.922913 
	C1993.611572,392.449066 1993.595459,397.440765 1993.614136,402.432373 
	C1993.713867,429.081665 1993.476196,455.738800 1994.077637,482.376892 
	C1994.367432,495.202942 1998.507812,506.918945 2010.022339,515.522827 
M1100.029541,305.500000 
	C1100.030273,360.962128 1100.000488,416.424286 1100.077393,471.886322 
	C1100.085449,477.697479 1100.430908,483.543152 1101.125244,489.311981 
	C1103.372803,507.981537 1113.758667,519.203003 1130.892578,521.837036 
	C1146.769409,524.277893 1162.418945,521.563965 1178.080566,519.568787 
	C1179.187500,519.427795 1180.921631,517.555054 1180.927002,516.480408 
	C1180.966919,508.522705 1181.361938,500.461426 1180.254761,492.629303 
	C1178.790405,482.270264 1178.246460,482.347168 1167.861328,481.799133 
	C1157.936035,481.275360 1153.342407,476.675201 1152.952759,466.824127 
	C1152.873901,464.828186 1152.893311,462.827759 1152.893188,460.829376 
	C1152.890381,408.198608 1152.948120,355.567657 1152.813965,302.937225 
	C1152.798462,296.817505 1152.138428,290.625702 1151.047852,284.599274 
	C1149.306274,274.976196 1143.032471,269.200409 1133.477417,268.146362 
	C1124.413086,267.146423 1115.210205,267.462891 1106.083008,266.943268 
	C1101.477661,266.681061 1099.885254,268.528473 1099.968140,273.022583 
	C1100.161377,283.511902 1100.029663,294.007141 1100.029541,305.500000 
M2232.898682,358.217957 
	C2232.898682,355.269104 2232.898682,352.320251 2232.898682,349.361206 
	C2204.480957,342.735870 2180.467529,346.606323 2167.319824,377.245697 
	C2166.476318,375.828583 2166.112549,375.306274 2165.836670,374.741089 
	C2157.769287,358.206879 2144.695068,348.583557 2126.351562,346.577911 
	C2124.291504,346.352692 2121.024902,347.273041 2120.041260,348.784027 
	C2115.451660,355.834656 2111.322021,363.203217 2107.415771,370.661072 
	C2106.798584,371.839294 2107.825195,374.248016 2108.677490,375.756744 
	C2111.184570,380.194092 2115.197266,384.155975 2116.399902,388.870453 
	C2118.390381,396.671265 2119.419922,404.907898 2119.494873,412.973541 
	C2119.811768,447.108673 2119.627197,481.248505 2119.625732,515.386597 
	C2119.625732,517.170654 2119.625977,518.954712 2119.625977,521.068054 
	C2137.895020,523.703552 2155.698486,523.864929 2173.822266,520.977600 
	C2173.822266,518.765869 2173.822510,516.950867 2173.822510,515.135864 
	C2173.822266,482.829559 2173.749268,450.522827 2173.945801,418.217712 
	C2173.963379,415.328186 2175.090088,411.993988 2176.780029,409.640625 
	C2186.449463,396.174469 2199.786377,393.574493 2214.844482,398.206238 
	C2219.352783,399.592926 2221.490967,398.233124 2222.626709,394.431549 
	C2226.132812,382.696136 2229.432617,370.899078 2232.898682,358.217957 
M1378.761841,375.534393 
	C1380.866821,378.495056 1383.349976,381.259918 1385.003784,384.454163 
	C1389.415161,392.974365 1389.933960,402.319183 1389.939575,411.689178 
	C1389.960449,446.184814 1389.947266,480.680450 1389.946777,515.176086 
	C1389.946777,516.989319 1389.946655,518.802551 1389.946655,521.032410 
	C1408.155518,523.707031 1426.033081,523.926331 1444.039917,520.944153 
	C1444.039917,518.635376 1444.039917,516.977173 1444.039917,515.318970 
	C1444.039917,482.989716 1443.968140,450.660034 1444.162964,418.331940 
	C1444.180298,415.441162 1445.277832,412.087250 1446.979614,409.755615 
	C1455.504883,398.075195 1466.988647,394.114166 1481.201294,397.092346 
	C1491.074097,399.161133 1491.234985,398.885193 1495.106445,389.541809 
	C1500.425415,376.705109 1503.293335,363.336182 1503.749756,349.501282 
	C1473.674072,342.749115 1451.688477,346.617798 1437.476074,376.936096 
	C1436.994385,376.174408 1436.503052,375.544067 1436.164551,374.840240 
	C1428.171143,358.225220 1415.074463,348.634125 1396.728516,346.598633 
	C1394.655884,346.368652 1391.348511,347.258118 1390.382568,348.763458 
	C1385.749756,355.983826 1381.646851,363.552490 1377.585571,371.120850 
	C1377.084595,372.054291 1377.957886,373.725189 1378.761841,375.534393 
M2246.100586,375.203369 
	C2246.698730,379.063202 2247.296631,382.923035 2247.905762,386.856232 
	C2250.305664,386.856232 2251.964111,386.813843 2253.619873,386.863342 
	C2262.645264,387.133118 2267.822754,391.710999 2268.958984,400.674225 
	C2269.397217,404.133636 2269.554932,407.649414 2269.559082,411.139893 
	C2269.601318,445.794769 2269.584961,480.449738 2269.584961,515.104675 
	C2269.584961,516.907837 2269.584961,518.710999 2269.584961,520.383362 
	C2279.805420,523.878784 2312.759521,523.927551 2324.029541,520.500671 
	C2324.029541,518.777222 2324.029541,516.962524 2324.029541,515.147888 
	C2324.029541,479.326660 2324.043701,443.505463 2324.019043,407.684235 
	C2324.013184,399.522003 2324.199951,391.341003 2323.730225,383.201416 
	C2322.633545,364.210846 2310.553955,349.549408 2293.530518,348.326904 
	C2278.500488,347.247559 2263.331543,348.100952 2247.205811,348.100952 
	C2246.782715,357.731323 2246.419189,365.997223 2246.100586,375.203369 
M380.117828,463.285828 
	C381.447052,461.952118 383.396149,460.854553 384.008240,459.247681 
	C389.330688,445.274689 394.422913,431.213867 399.564301,417.172089 
	C403.435577,406.599243 407.278503,396.016052 411.231323,385.170563 
	C376.995605,385.170563 343.256500,385.170563 309.427399,385.170563 
	C299.958069,411.134430 290.546600,436.939667 280.937347,463.287140 
	C314.278473,463.287140 346.734406,463.287140 380.117828,463.285828 
M346.852905,283.119232 
	C345.763458,287.370331 349.291718,285.316895 350.399780,285.321899 
	C381.522888,285.462097 412.646973,285.377869 443.770111,285.518372 
	C447.034851,285.533112 448.250214,284.418823 449.300110,281.466309 
	C455.476562,264.097260 461.900574,246.816284 468.240692,229.505447 
	C470.501648,223.332291 472.761078,217.158554 475.141205,210.657318 
	C440.815643,210.657318 407.113098,210.657318 373.347626,210.657318 
	C364.546844,234.668503 355.802948,258.524506 346.852905,283.119232 
M434.499969,463.168884 
	C451.664581,463.169891 468.829254,463.143127 485.993774,463.185272 
	C493.164642,463.202881 494.577332,462.355774 497.025848,455.661285 
	C503.474854,438.029022 509.880890,420.381073 516.304382,402.739471 
	C518.434631,396.888855 520.565979,391.038605 522.803650,384.894897 
	C521.572083,384.698212 520.944275,384.510620 520.316406,384.510223 
	C491.153351,384.491882 461.989990,384.549500 432.827667,384.401764 
	C429.594666,384.385406 429.008484,386.231384 428.202332,388.457916 
	C419.717896,411.891724 411.210358,435.317169 402.727509,458.751556 
	C402.252502,460.063751 401.937836,461.433960 401.434967,463.168915 
	C412.523682,463.168915 423.011810,463.168915 434.499969,463.168884 
M277.180664,422.733582 
	C281.784424,410.171082 286.388184,397.608551 290.991302,385.047668 
	C290.214233,384.746063 289.924011,384.534943 289.633606,384.534668 
	C260.156097,384.508209 230.678253,384.446014 201.202164,384.644714 
	C199.786682,384.654266 197.671921,386.705566 197.089066,388.258728 
	C190.555603,405.668793 184.261078,423.168488 177.897232,440.642273 
	C176.646896,444.075409 175.153946,447.437927 174.158783,450.942596 
	C172.034470,458.423767 175.569550,463.155304 183.122421,463.161194 
	C208.270203,463.180817 233.418243,463.117218 258.565460,463.237732 
	C261.525818,463.251892 262.926025,462.388336 263.917206,459.549316 
	C268.130737,447.480377 272.597595,435.499908 277.180664,422.733582 
M568.033020,260.550720 
	C572.431519,248.534729 576.361572,236.318085 581.392273,224.572845 
	C584.782104,216.658401 580.344055,210.204971 571.242432,210.350327 
	C546.749451,210.741470 522.245728,210.550522 497.747406,210.403961 
	C494.530060,210.384705 493.107819,211.443710 492.049591,214.392685 
	C484.753601,234.724655 477.287811,254.995667 469.885712,275.289612 
	C468.722137,278.479675 467.604614,281.686584 466.327820,285.273254 
	C497.626343,285.273254 528.197205,285.273254 558.922546,285.273254 
	C561.930298,277.176300 564.878052,269.240936 568.033020,260.550720 
M237.271957,276.839142 
	C236.367325,279.568451 235.462692,282.297729 234.484726,285.248260 
	C235.840469,285.382294 236.491043,285.502594 237.141632,285.502838 
	C266.128296,285.513489 295.115417,285.441559 324.101074,285.611877 
	C327.483551,285.631744 328.211823,283.948822 329.116089,281.443970 
	C336.053070,262.228638 343.087067,243.048355 350.083496,223.854492 
	C351.603455,219.684647 353.093719,215.504013 354.701813,211.039139 
	C352.921021,210.943192 351.768463,210.827332 350.615845,210.826920 
	C323.461670,210.817139 296.306335,210.948898 269.154236,210.711807 
	C263.694031,210.664124 260.867798,212.869843 259.117950,217.676224 
	C252.015472,237.185089 244.805756,256.654938 237.271957,276.839142 
M347.499969,367.877777 
	C370.797852,367.877777 394.095703,367.877777 417.560455,367.877777 
	C425.488556,346.238434 433.354828,324.767822 441.298126,303.087006 
	C440.179108,302.932190 439.533112,302.764893 438.887024,302.764587 
	C406.921875,302.750183 374.956512,302.803497 342.992004,302.661957 
	C339.952301,302.648529 339.056183,303.991119 338.188232,306.400299 
	C331.487183,324.999908 324.688995,343.564545 317.925476,362.141632 
	C317.271973,363.936615 316.648895,365.742615 315.893372,367.877777 
	C326.529816,367.877777 336.514893,367.877777 347.499969,367.877777 
M361.022278,500.500061 
	C361.022278,525.423584 361.022278,550.347168 361.022278,575.450439 
	C383.530121,575.450439 405.567657,575.450439 427.619019,575.450439 
	C427.619019,542.976501 427.619019,510.787109 427.619019,478.666626 
	C405.264008,478.666626 383.238739,478.666626 361.022278,478.666626 
	C361.022278,485.861298 361.022278,492.680725 361.022278,500.500061 
M285.500092,302.747589 
	C267.853821,302.747681 250.206787,302.831146 232.561981,302.670502 
	C229.407852,302.641754 227.968689,303.508820 226.902435,306.584412 
	C222.604385,318.982239 217.959000,331.259491 213.459610,343.587769 
	C210.569092,351.507751 207.709473,359.439056 204.734451,367.645386 
	C235.995056,367.645386 266.719086,367.645386 297.489075,367.645386 
	C305.393555,346.050659 313.228119,324.646973 321.244110,302.747589 
	C309.113525,302.747589 297.806824,302.747589 285.500092,302.747589 
M438.512054,360.944122 
	C437.723267,363.166473 436.934479,365.388794 436.080170,367.795807 
	C467.342529,367.795807 497.954224,367.795807 528.804016,367.795807 
	C536.667480,346.332245 544.532288,324.865051 552.438721,303.284180 
	C551.503540,303.026886 551.045349,302.790802 550.586853,302.790405 
	C521.298950,302.764435 492.010712,302.705841 462.724182,302.904144 
	C461.282013,302.913910 459.111633,304.901642 458.534607,306.439117 
	C451.824707,324.317291 445.356262,342.286072 438.512054,360.944122 
M2261.246826,284.912140 
	C2258.484131,294.589600 2258.508789,304.239502 2261.132568,313.976074 
	C2262.283447,318.247375 2264.623535,320.927765 2268.888428,322.044159 
	C2283.068604,325.755798 2297.198242,325.958496 2311.057617,320.850555 
	C2313.131836,320.086060 2315.229736,317.636780 2316.038818,315.486206 
	C2319.857666,305.334595 2319.486328,295.007812 2316.642090,284.603485 
	C2315.447998,280.236115 2312.861816,277.996552 2308.681396,276.762085 
	C2295.352539,272.826263 2282.099609,273.109009 2268.847656,277.009552 
	C2265.152832,278.097076 2262.182373,279.953064 2261.246826,284.912140 
z"/>
<path fill="#1f3b69" opacity="1.000000" stroke="none" 
	d="
M1640.159180,396.735077 
	C1642.766357,409.102264 1645.298340,421.054474 1647.830200,433.006653 
	C1648.437866,432.958740 1649.045532,432.910797 1649.653320,432.862885 
	C1651.400513,424.506409 1652.981689,416.111145 1654.923462,407.800049 
	C1664.152344,368.294464 1673.446533,328.803955 1682.890015,289.349335 
	C1683.273682,287.746368 1685.251343,285.538513 1686.727539,285.331390 
	C1709.124023,282.189575 1731.553223,282.236603 1753.960938,285.383179 
	C1754.591064,285.471680 1755.188232,285.795105 1756.131592,286.124512 
	C1757.401733,302.016815 1758.688477,317.933868 1759.943237,333.853363 
	C1762.849121,370.717560 1765.756104,407.581635 1768.630615,444.448273 
	C1770.495239,468.362518 1772.229492,492.287231 1774.216797,516.191101 
	C1774.510254,519.722656 1773.354004,520.744690 1770.073975,521.235535 
	C1754.317871,523.593079 1738.580200,523.606506 1722.150757,521.597534 
	C1720.437622,492.319244 1718.524292,463.133575 1717.078735,433.924774 
	C1715.632080,404.694183 1714.653076,375.440430 1712.527588,345.754913 
	C1711.929565,347.150452 1711.122192,348.494415 1710.764160,349.948975 
	C1700.153564,393.057922 1689.429688,436.140472 1679.199097,479.339783 
	C1677.803467,485.232697 1675.418579,487.390015 1669.714844,487.302612 
	C1654.748535,487.073181 1639.778564,487.047668 1624.809937,487.020691 
	C1621.225830,487.014221 1619.757324,485.411713 1618.915649,481.893616 
	C1608.392090,437.907227 1597.699951,393.961151 1587.031372,350.009521 
	C1586.675049,348.541382 1586.112183,347.123413 1585.645508,345.682037 
	C1585.181519,345.740662 1584.717407,345.799286 1584.253296,345.857880 
	C1584.052368,347.003265 1583.722656,348.142670 1583.669189,349.294891 
	C1581.062988,405.379059 1578.476562,461.464172 1575.910889,517.550232 
	C1575.807373,519.811218 1575.853149,521.694763 1572.676514,522.011658 
	C1557.184082,523.557495 1541.748291,523.568176 1526.364380,520.947998 
	C1525.405518,520.784668 1524.487427,520.382141 1523.268188,520.003174 
	C1524.308472,506.328369 1525.315918,492.744629 1526.380371,479.165344 
	C1528.905518,446.949890 1531.470947,414.737549 1533.994873,382.522003 
	C1536.427734,351.467957 1538.867188,320.414307 1541.183105,289.351532 
	C1541.404663,286.377411 1542.658325,285.401855 1545.403809,285.055115 
	C1567.175171,282.305481 1588.940918,282.272766 1610.670532,285.283081 
	C1612.243164,285.500977 1614.463867,287.483521 1614.830688,289.016907 
	C1623.378296,324.753571 1631.711304,360.541565 1640.159180,396.735077 
z"/>
<path fill="#1f3b69" opacity="1.000000" stroke="none" 
	d="
M711.065308,495.020020 
	C714.061157,482.583130 719.726990,472.024780 727.984863,462.767944 
	C730.495728,459.953308 732.428406,459.462860 735.914246,461.511749 
	C755.375854,472.950806 776.099976,480.759705 798.949036,481.494659 
	C803.873413,481.653046 809.017822,481.412201 813.743103,480.158081 
	C830.624329,475.677704 836.197266,455.840942 823.798523,443.577118 
	C819.319824,439.147125 813.444580,435.757507 807.653503,433.096985 
	C791.807373,425.816986 775.487915,419.559570 759.699219,412.164398 
	C746.764221,406.105927 735.174683,397.766144 727.210327,385.615204 
	C709.581299,358.719574 716.974426,320.298645 743.528503,299.635406 
	C759.692017,287.057587 778.327332,281.055725 798.591248,280.152252 
	C827.485291,278.864105 854.653992,285.765503 880.605408,298.142395 
	C883.122070,299.342651 883.773193,300.615692 883.441589,303.470398 
	C881.938843,316.406952 877.470215,327.918762 868.689758,337.715393 
	C866.250427,340.437042 864.377136,341.121643 860.749634,339.372101 
	C844.472412,331.521729 827.427551,325.769775 809.279236,324.724274 
	C802.290344,324.321655 794.725281,324.726013 788.216187,327.016968 
	C772.494690,332.550354 770.168823,349.989655 783.523254,359.904419 
	C788.120789,363.317810 793.621765,365.624756 798.918579,367.965179 
	C815.173340,375.147339 831.836914,381.474823 847.765869,389.305511 
	C866.640930,398.584503 881.416077,412.485962 886.764343,433.630585 
	C895.037354,466.338379 884.019226,503.017487 842.052856,518.895325 
	C822.761719,526.194092 802.699341,527.320923 782.505859,525.669434 
	C758.277710,523.688049 735.835083,515.715942 714.795593,503.539886 
	C711.171143,501.442291 709.630798,499.368927 711.065308,495.020020 
z"/>
<path fill="#1f3b69" opacity="1.000000" stroke="none" 
	d="
M1221.266846,427.245178 
	C1233.911011,418.183472 1248.072632,414.904755 1262.882080,414.175537 
	C1272.345337,413.709564 1281.850220,414.088257 1291.465576,414.088257 
	C1295.257812,397.053436 1285.737183,384.827362 1268.075073,386.944763 
	C1252.817749,388.773804 1237.798218,392.794495 1222.789062,396.335938 
	C1219.145020,397.195801 1217.401367,396.572876 1215.554688,393.592163 
	C1209.177612,383.298737 1206.589233,371.936981 1205.285522,359.146606 
	C1216.407349,356.281952 1227.338379,352.731323 1238.547241,350.760651 
	C1253.412231,348.147095 1268.447388,346.076172 1283.496460,345.054474 
	C1298.202637,344.055969 1312.359131,347.285248 1324.596802,356.161102 
	C1341.595947,368.490356 1346.615967,386.200073 1346.561523,406.121063 
	C1346.503662,427.276917 1346.549683,448.433014 1346.549805,469.589020 
	C1346.549927,479.043121 1347.024780,488.307098 1354.965210,495.213104 
	C1355.623047,495.785248 1355.711060,497.707367 1355.305542,498.689240 
	C1353.348022,503.430481 1351.670044,508.414795 1348.905151,512.671265 
	C1340.289917,525.934631 1340.759155,525.007202 1325.336914,521.588989 
	C1316.946289,519.729309 1313.267578,516.612854 1302.956299,506.882233 
	C1293.246582,512.215515 1284.290039,518.468689 1274.395996,522.301392 
	C1251.323853,531.238831 1225.927368,525.352356 1211.447021,508.985291 
	C1190.839966,485.693146 1195.486572,445.931946 1221.266846,427.245178 
M1251.827515,465.399200 
	C1250.648560,477.523804 1254.298584,483.954254 1263.416260,485.855835 
	C1274.171387,488.098969 1282.888672,483.772064 1290.885742,477.263611 
	C1291.522217,476.745453 1291.944580,475.593292 1291.952515,474.731018 
	C1292.030640,466.293640 1291.999512,457.855286 1291.999512,449.162933 
	C1286.360840,448.847839 1281.092896,448.529022 1275.821899,448.273285 
	C1274.165283,448.192902 1272.493896,448.191803 1270.840088,448.308075 
	C1259.744507,449.088104 1254.077271,453.978455 1251.827515,465.399200 
z"/>
<path fill="#1f3b69" opacity="1.000000" stroke="none" 
	d="
M1059.381592,385.695740 
	C1072.727295,419.306976 1073.380493,452.711212 1058.416382,485.400299 
	C1047.712036,508.783691 1028.311157,521.518860 1002.880493,525.047119 
	C985.928345,527.399048 969.336243,526.555542 953.534729,519.246094 
	C934.652771,510.511719 922.038208,495.923218 915.583374,476.412811 
	C905.436096,445.742065 905.639893,415.036072 919.023438,385.348389 
	C930.587097,359.697693 951.715332,346.685516 979.314087,344.078522 
	C999.724060,342.150574 1019.198059,345.137939 1036.334961,357.468872 
	C1046.416504,364.723053 1053.784790,374.256500 1059.381592,385.695740 
M970.953735,394.550446 
	C969.321960,399.051147 967.046997,403.431030 966.174561,408.074432 
	C963.102356,424.424927 963.975403,440.927917 965.651001,457.343719 
	C966.217102,462.889648 967.631531,468.517059 969.675537,473.706573 
	C973.164062,482.563660 979.710266,486.307861 988.825073,485.795624 
	C999.577087,485.191376 1006.155518,480.866302 1008.656128,471.462219 
	C1014.975220,447.697632 1014.976562,423.779083 1009.200134,399.881409 
	C1007.137390,391.347443 1002.139832,385.648041 993.112610,384.317078 
	C983.885437,382.956635 976.371948,385.715118 970.953735,394.550446 
z"/>
<path fill="#1f3b69" opacity="1.000000" stroke="none" 
	d="
M1875.638794,482.695190 
	C1890.001709,487.227356 1903.670410,484.498474 1917.238892,480.717987 
	C1922.350464,479.293762 1927.292114,477.261566 1932.399536,475.819183 
	C1933.590576,475.482819 1935.641968,475.962067 1936.448486,476.843140 
	C1943.656616,484.716675 1947.104004,494.369385 1948.670654,504.714752 
	C1948.842773,505.850708 1947.111084,507.726562 1945.813721,508.566193 
	C1922.763672,523.485229 1897.126953,527.665039 1870.339844,525.630615 
	C1854.285278,524.411316 1839.434204,519.304749 1827.464111,507.749573 
	C1815.478760,496.179749 1809.302368,481.717804 1806.551270,465.613068 
	C1802.380005,441.195831 1802.110718,416.929596 1810.013428,393.075897 
	C1819.800537,363.534027 1844.202881,345.456879 1875.270142,343.786652 
	C1896.722778,342.633331 1915.816040,347.783997 1931.939575,362.282135 
	C1944.264893,373.365112 1950.438843,387.792480 1952.666748,403.822266 
	C1954.720459,418.598969 1953.635132,433.353882 1950.324097,447.968658 
	C1949.501099,451.601410 1947.931274,452.257935 1944.587158,452.241760 
	C1917.938354,452.112732 1891.288696,452.169952 1864.639282,452.169983 
	C1862.837769,452.169983 1861.036255,452.169952 1859.279419,452.169952 
	C1857.970703,465.563995 1863.939819,476.695251 1875.638794,482.695190 
M1902.428833,399.277283 
	C1901.291870,396.702454 1900.378296,393.998230 1898.976196,391.576935 
	C1894.642334,384.092743 1887.679932,381.683655 1879.480835,382.114685 
	C1871.420532,382.538422 1865.242676,386.394470 1862.541748,393.945984 
	C1860.190796,400.519196 1859.160645,407.564819 1857.478027,414.693176 
	C1873.695557,414.693176 1888.756592,414.693176 1904.419678,414.693176 
	C1903.829834,409.560760 1903.282837,404.800690 1902.428833,399.277283 
z"/>
<path fill="#1f3b69" opacity="1.000000" stroke="none" 
	d="
M2488.406250,380.419861 
	C2478.585938,395.497467 2469.136230,410.387817 2459.255859,424.986816 
	C2456.918945,428.439636 2457.420410,430.550385 2459.501953,433.662781 
	C2476.792236,459.516876 2493.918945,485.480560 2511.081055,511.389709 
	C2496.229492,525.807129 2466.520264,528.086731 2452.848389,515.691528 
	C2449.694580,512.832092 2447.170410,509.179993 2444.756836,505.621002 
	C2437.677979,495.181793 2430.800293,484.605865 2423.652100,473.793304 
	C2414.870117,488.735199 2406.431152,503.248932 2397.770264,517.629089 
	C2396.701172,519.404297 2394.578857,521.457031 2392.722656,521.702087 
	C2378.304443,523.605835 2363.862549,524.218994 2349.666016,520.007629 
	C2344.241943,518.398621 2343.748535,516.997437 2346.770264,512.299255 
	C2362.875000,487.258759 2378.939209,462.191620 2395.172852,437.235107 
	C2397.078125,434.306458 2397.159912,432.353516 2395.190918,429.347839 
	C2379.971191,406.112518 2364.976074,382.729919 2349.916260,359.389832 
	C2349.484863,358.721222 2349.108154,358.017242 2348.492188,356.964050 
	C2362.362061,347.782013 2377.125488,343.342285 2393.479492,346.243195 
	C2401.551758,347.675110 2406.681396,353.653625 2411.027344,360.117157 
	C2417.610352,369.907440 2424.015137,379.817322 2430.979248,390.412079 
	C2432.555176,387.822845 2433.893066,385.628723 2435.227051,383.432190 
	C2441.615234,372.914764 2447.921387,362.345825 2454.474365,351.932251 
	C2455.486084,350.324799 2457.500488,348.610779 2459.268555,348.333527 
	C2473.194336,346.149902 2487.104980,346.009125 2500.859863,349.754395 
	C2505.735352,351.081879 2506.395508,352.721985 2503.565918,357.107025 
	C2498.605469,364.794006 2493.603760,372.454468 2488.406250,380.419861 
z"/>
<path fill="#1f3b69" opacity="1.000000" stroke="none" 
	d="
M2009.736572,515.301819 
	C1998.507812,506.918945 1994.367432,495.202942 1994.077637,482.376892 
	C1993.476196,455.738800 1993.713867,429.081665 1993.614136,402.432373 
	C1993.595459,397.440765 1993.611572,392.449066 1993.611572,386.922913 
	C1984.553833,386.922913 1975.681885,386.922913 1966.704834,386.922913 
	C1963.126587,373.981689 1963.471680,361.556122 1966.531494,348.855652 
	C1975.391357,348.855652 1984.156616,348.855652 1993.922852,348.855652 
	C1993.922852,340.099854 1993.552612,331.342804 1994.017578,322.630310 
	C1994.585938,311.980988 1997.684448,302.333862 2009.265259,298.791321 
	C2013.793213,297.406250 2018.741577,297.160217 2023.525513,296.906738 
	C2029.339233,296.598633 2035.187134,296.984741 2041.009766,296.778137 
	C2045.358398,296.623871 2046.878296,298.446014 2046.833496,302.708069 
	C2046.681519,317.198242 2046.774170,331.690979 2046.781738,346.182739 
	C2046.782104,346.985962 2046.855469,347.789093 2046.906616,348.832825 
	C2060.531250,348.832825 2073.952393,348.832825 2087.855225,348.832825 
	C2090.757568,361.308624 2090.759033,373.887939 2087.870117,386.415405 
	C2074.193604,386.415405 2060.754639,386.415405 2046.775391,386.415405 
	C2046.775391,387.443420 2046.775391,388.543427 2046.775391,389.643402 
	C2046.775635,414.296051 2046.774658,438.948700 2046.779785,463.601349 
	C2046.780029,464.766724 2046.807007,465.933502 2046.866821,467.097290 
	C2047.364624,476.796356 2051.762695,481.312927 2061.519531,481.746735 
	C2067.005859,481.990662 2072.515625,481.954132 2078.005615,481.768280 
	C2080.619873,481.679779 2081.731934,482.556976 2082.526611,485.067749 
	C2085.694580,495.075500 2086.743652,505.186829 2085.266602,515.615845 
	C2084.899170,518.210632 2084.072510,519.582642 2081.413086,519.704590 
	C2063.984375,520.503906 2046.549316,521.981689 2029.131958,521.793396 
	C2022.740112,521.724304 2016.390991,517.727844 2009.736572,515.301819 
z"/>
<path fill="#1f3b69" opacity="1.000000" stroke="none" 
	d="
M1100.029541,305.000000 
	C1100.029663,294.007141 1100.161377,283.511902 1099.968140,273.022583 
	C1099.885254,268.528473 1101.477661,266.681061 1106.083008,266.943268 
	C1115.210205,267.462891 1124.413086,267.146423 1133.477417,268.146362 
	C1143.032471,269.200409 1149.306274,274.976196 1151.047852,284.599274 
	C1152.138428,290.625702 1152.798462,296.817505 1152.813965,302.937225 
	C1152.948120,355.567657 1152.890381,408.198608 1152.893188,460.829376 
	C1152.893311,462.827759 1152.873901,464.828186 1152.952759,466.824127 
	C1153.342407,476.675201 1157.936035,481.275360 1167.861328,481.799133 
	C1178.246460,482.347168 1178.790405,482.270264 1180.254761,492.629303 
	C1181.361938,500.461426 1180.966919,508.522705 1180.927002,516.480408 
	C1180.921631,517.555054 1179.187500,519.427795 1178.080566,519.568787 
	C1162.418945,521.563965 1146.769409,524.277893 1130.892578,521.837036 
	C1113.758667,519.203003 1103.372803,507.981537 1101.125244,489.311981 
	C1100.430908,483.543152 1100.085449,477.697479 1100.077393,471.886322 
	C1100.000488,416.424286 1100.030273,360.962128 1100.029541,305.000000 
z"/>
<path fill="#1f3b69" opacity="1.000000" stroke="none" 
	d="
M2232.855469,358.671936 
	C2229.432617,370.899078 2226.132812,382.696136 2222.626709,394.431549 
	C2221.490967,398.233124 2219.352783,399.592926 2214.844482,398.206238 
	C2199.786377,393.574493 2186.449463,396.174469 2176.780029,409.640625 
	C2175.090088,411.993988 2173.963379,415.328186 2173.945801,418.217712 
	C2173.749268,450.522827 2173.822266,482.829559 2173.822510,515.135864 
	C2173.822510,516.950867 2173.822266,518.765869 2173.822266,520.977600 
	C2155.698486,523.864929 2137.895020,523.703552 2119.625977,521.068054 
	C2119.625977,518.954712 2119.625732,517.170654 2119.625732,515.386597 
	C2119.627197,481.248505 2119.811768,447.108673 2119.494873,412.973541 
	C2119.419922,404.907898 2118.390381,396.671265 2116.399902,388.870453 
	C2115.197266,384.155975 2111.184570,380.194092 2108.677490,375.756744 
	C2107.825195,374.248016 2106.798584,371.839294 2107.415771,370.661072 
	C2111.322021,363.203217 2115.451660,355.834656 2120.041260,348.784027 
	C2121.024902,347.273041 2124.291504,346.352692 2126.351562,346.577911 
	C2144.695068,348.583557 2157.769287,358.206879 2165.836670,374.741089 
	C2166.112549,375.306274 2166.476318,375.828583 2167.319824,377.245697 
	C2180.467529,346.606323 2204.480957,342.735870 2232.898682,349.361206 
	C2232.898682,352.320251 2232.898682,355.269104 2232.855469,358.671936 
z"/>
<path fill="#1f3b69" opacity="1.000000" stroke="none" 
	d="
M1378.478027,375.294373 
	C1377.957886,373.725189 1377.084595,372.054291 1377.585571,371.120850 
	C1381.646851,363.552490 1385.749756,355.983826 1390.382568,348.763458 
	C1391.348511,347.258118 1394.655884,346.368652 1396.728516,346.598633 
	C1415.074463,348.634125 1428.171143,358.225220 1436.164551,374.840240 
	C1436.503052,375.544067 1436.994385,376.174408 1437.476074,376.936096 
	C1451.688477,346.617798 1473.674072,342.749115 1503.749756,349.501282 
	C1503.293335,363.336182 1500.425415,376.705109 1495.106445,389.541809 
	C1491.234985,398.885193 1491.074097,399.161133 1481.201294,397.092346 
	C1466.988647,394.114166 1455.504883,398.075195 1446.979614,409.755615 
	C1445.277832,412.087250 1444.180298,415.441162 1444.162964,418.331940 
	C1443.968140,450.660034 1444.039917,482.989716 1444.039917,515.318970 
	C1444.039917,516.977173 1444.039917,518.635376 1444.039917,520.944153 
	C1426.033081,523.926331 1408.155518,523.707031 1389.946655,521.032410 
	C1389.946655,518.802551 1389.946777,516.989319 1389.946777,515.176086 
	C1389.947266,480.680450 1389.960449,446.184814 1389.939575,411.689178 
	C1389.933960,402.319183 1389.415161,392.974365 1385.003784,384.454163 
	C1383.349976,381.259918 1380.866821,378.495056 1378.478027,375.294373 
z"/>
<path fill="#1f3b69" opacity="1.000000" stroke="none" 
	d="
M2246.078125,374.733276 
	C2246.419189,365.997223 2246.782715,357.731323 2247.205811,348.100952 
	C2263.331543,348.100952 2278.500488,347.247559 2293.530518,348.326904 
	C2310.553955,349.549408 2322.633545,364.210846 2323.730225,383.201416 
	C2324.199951,391.341003 2324.013184,399.522003 2324.019043,407.684235 
	C2324.043701,443.505463 2324.029541,479.326660 2324.029541,515.147888 
	C2324.029541,516.962524 2324.029541,518.777222 2324.029541,520.500671 
	C2312.759521,523.927551 2279.805420,523.878784 2269.584961,520.383362 
	C2269.584961,518.710999 2269.584961,516.907837 2269.584961,515.104675 
	C2269.584961,480.449738 2269.601318,445.794769 2269.559082,411.139893 
	C2269.554932,407.649414 2269.397217,404.133636 2268.958984,400.674225 
	C2267.822754,391.710999 2262.645264,387.133118 2253.619873,386.863342 
	C2251.964111,386.813843 2250.305664,386.856232 2247.905762,386.856232 
	C2247.296631,382.923035 2246.698730,379.063202 2246.078125,374.733276 
z"/>
<path fill="#1f3b69" opacity="1.000000" stroke="none" 
	d="
M379.654114,463.286499 
	C346.734406,463.287140 314.278473,463.287140 280.937347,463.287140 
	C290.546600,436.939667 299.958069,411.134430 309.427399,385.170563 
	C343.256500,385.170563 376.995605,385.170563 411.231323,385.170563 
	C407.278503,396.016052 403.435577,406.599243 399.564301,417.172089 
	C394.422913,431.213867 389.330688,445.274689 384.008240,459.247681 
	C383.396149,460.854553 381.447052,461.952118 379.654114,463.286499 
z"/>
<path fill="#1f3b69" opacity="1.000000" stroke="none" 
	d="
M346.955994,282.749878 
	C355.802948,258.524506 364.546844,234.668503 373.347626,210.657318 
	C407.113098,210.657318 440.815643,210.657318 475.141205,210.657318 
	C472.761078,217.158554 470.501648,223.332291 468.240692,229.505447 
	C461.900574,246.816284 455.476562,264.097260 449.300110,281.466309 
	C448.250214,284.418823 447.034851,285.533112 443.770111,285.518372 
	C412.646973,285.377869 381.522888,285.462097 350.399780,285.321899 
	C349.291718,285.316895 345.763458,287.370331 346.955994,282.749878 
z"/>
<path fill="#1f3b69" opacity="1.000000" stroke="none" 
	d="
M433.999939,463.168884 
	C423.011810,463.168915 412.523682,463.168915 401.434967,463.168915 
	C401.937836,461.433960 402.252502,460.063751 402.727509,458.751556 
	C411.210358,435.317169 419.717896,411.891724 428.202332,388.457916 
	C429.008484,386.231384 429.594666,384.385406 432.827667,384.401764 
	C461.989990,384.549500 491.153351,384.491882 520.316406,384.510223 
	C520.944275,384.510620 521.572083,384.698212 522.803650,384.894897 
	C520.565979,391.038605 518.434631,396.888855 516.304382,402.739471 
	C509.880890,420.381073 503.474854,438.029022 497.025848,455.661285 
	C494.577332,462.355774 493.164642,463.202881 485.993774,463.185272 
	C468.829254,463.143127 451.664581,463.169891 433.999939,463.168884 
z"/>
<path fill="#1f3b69" opacity="1.000000" stroke="none" 
	d="
M277.076324,423.110352 
	C272.597595,435.499908 268.130737,447.480377 263.917206,459.549316 
	C262.926025,462.388336 261.525818,463.251892 258.565460,463.237732 
	C233.418243,463.117218 208.270203,463.180817 183.122421,463.161194 
	C175.569550,463.155304 172.034470,458.423767 174.158783,450.942596 
	C175.153946,447.437927 176.646896,444.075409 177.897232,440.642273 
	C184.261078,423.168488 190.555603,405.668793 197.089066,388.258728 
	C197.671921,386.705566 199.786682,384.654266 201.202164,384.644714 
	C230.678253,384.446014 260.156097,384.508209 289.633606,384.534668 
	C289.924011,384.534943 290.214233,384.746063 290.991302,385.047668 
	C286.388184,397.608551 281.784424,410.171082 277.076324,423.110352 
z"/>
<path fill="#1f3b69" opacity="1.000000" stroke="none" 
	d="
M567.929443,260.928162 
	C564.878052,269.240936 561.930298,277.176300 558.922546,285.273254 
	C528.197205,285.273254 497.626343,285.273254 466.327820,285.273254 
	C467.604614,281.686584 468.722137,278.479675 469.885712,275.289612 
	C477.287811,254.995667 484.753601,234.724655 492.049591,214.392685 
	C493.107819,211.443710 494.530060,210.384705 497.747406,210.403961 
	C522.245728,210.550522 546.749451,210.741470 571.242432,210.350327 
	C580.344055,210.204971 584.782104,216.658401 581.392273,224.572845 
	C576.361572,236.318085 572.431519,248.534729 567.929443,260.928162 
z"/>
<path fill="#1f3b69" opacity="1.000000" stroke="none" 
	d="
M237.453766,276.489136 
	C244.805756,256.654938 252.015472,237.185089 259.117950,217.676224 
	C260.867798,212.869843 263.694031,210.664124 269.154236,210.711807 
	C296.306335,210.948898 323.461670,210.817139 350.615845,210.826920 
	C351.768463,210.827332 352.921021,210.943192 354.701813,211.039139 
	C353.093719,215.504013 351.603455,219.684647 350.083496,223.854492 
	C343.087067,243.048355 336.053070,262.228638 329.116089,281.443970 
	C328.211823,283.948822 327.483551,285.631744 324.101074,285.611877 
	C295.115417,285.441559 266.128296,285.513489 237.141632,285.502838 
	C236.491043,285.502594 235.840469,285.382294 234.484726,285.248260 
	C235.462692,282.297729 236.367325,279.568451 237.453766,276.489136 
z"/>
<path fill="#1f3b69" opacity="1.000000" stroke="none" 
	d="
M346.999939,367.877777 
	C336.514893,367.877777 326.529816,367.877777 315.893372,367.877777 
	C316.648895,365.742615 317.271973,363.936615 317.925476,362.141632 
	C324.688995,343.564545 331.487183,324.999908 338.188232,306.400299 
	C339.056183,303.991119 339.952301,302.648529 342.992004,302.661957 
	C374.956512,302.803497 406.921875,302.750183 438.887024,302.764587 
	C439.533112,302.764893 440.179108,302.932190 441.298126,303.087006 
	C433.354828,324.767822 425.488556,346.238434 417.560455,367.877777 
	C394.095703,367.877777 370.797852,367.877777 346.999939,367.877777 
z"/>
<path fill="#1f3b69" opacity="1.000000" stroke="none" 
	d="
M361.022278,500.000122 
	C361.022278,492.680725 361.022278,485.861298 361.022278,478.666626 
	C383.238739,478.666626 405.264008,478.666626 427.619019,478.666626 
	C427.619019,510.787109 427.619019,542.976501 427.619019,575.450439 
	C405.567657,575.450439 383.530121,575.450439 361.022278,575.450439 
	C361.022278,550.347168 361.022278,525.423584 361.022278,500.000122 
z"/>
<path fill="#1f3b69" opacity="1.000000" stroke="none" 
	d="
M286.000122,302.747589 
	C297.806824,302.747589 309.113525,302.747589 321.244110,302.747589 
	C313.228119,324.646973 305.393555,346.050659 297.489075,367.645386 
	C266.719086,367.645386 235.995056,367.645386 204.734451,367.645386 
	C207.709473,359.439056 210.569092,351.507751 213.459610,343.587769 
	C217.959000,331.259491 222.604385,318.982239 226.902435,306.584412 
	C227.968689,303.508820 229.407852,302.641754 232.561981,302.670502 
	C250.206787,302.831146 267.853821,302.747681 286.000122,302.747589 
z"/>
<path fill="#1f3b69" opacity="1.000000" stroke="none" 
	d="
M438.667969,360.587463 
	C445.356262,342.286072 451.824707,324.317291 458.534607,306.439117 
	C459.111633,304.901642 461.282013,302.913910 462.724182,302.904144 
	C492.010712,302.705841 521.298950,302.764435 550.586853,302.790405 
	C551.045349,302.790802 551.503540,303.026886 552.438721,303.284180 
	C544.532288,324.865051 536.667480,346.332245 528.804016,367.795807 
	C497.954224,367.795807 467.342529,367.795807 436.080170,367.795807 
	C436.934479,365.388794 437.723267,363.166473 438.667969,360.587463 
z"/>
<path fill="#1f3b69" opacity="1.000000" stroke="none" 
	d="
M2261.397461,284.543030 
	C2262.182373,279.953064 2265.152832,278.097076 2268.847656,277.009552 
	C2282.099609,273.109009 2295.352539,272.826263 2308.681396,276.762085 
	C2312.861816,277.996552 2315.447998,280.236115 2316.642090,284.603485 
	C2319.486328,295.007812 2319.857666,305.334595 2316.038818,315.486206 
	C2315.229736,317.636780 2313.131836,320.086060 2311.057617,320.850555 
	C2297.198242,325.958496 2283.068604,325.755798 2268.888428,322.044159 
	C2264.623535,320.927765 2262.283447,318.247375 2261.132568,313.976074 
	C2258.508789,304.239502 2258.484131,294.589600 2261.397461,284.543030 
z"/>
<path fill="#FDFCFD" opacity="1.000000" stroke="none" 
	d="
M1251.871826,464.986938 
	C1254.077271,453.978455 1259.744507,449.088104 1270.840088,448.308075 
	C1272.493896,448.191803 1274.165283,448.192902 1275.821899,448.273285 
	C1281.092896,448.529022 1286.360840,448.847839 1291.999512,449.162933 
	C1291.999512,457.855286 1292.030640,466.293640 1291.952515,474.731018 
	C1291.944580,475.593292 1291.522217,476.745453 1290.885742,477.263611 
	C1282.888672,483.772064 1274.171387,488.098969 1263.416260,485.855835 
	C1254.298584,483.954254 1250.648560,477.523804 1251.871826,464.986938 
z"/>
<path fill="#FDFDFE" opacity="1.000000" stroke="none" 
	d="
M971.119141,394.222656 
	C976.371948,385.715118 983.885437,382.956635 993.112610,384.317078 
	C1002.139832,385.648041 1007.137390,391.347443 1009.200134,399.881409 
	C1014.976562,423.779083 1014.975220,447.697632 1008.656128,471.462219 
	C1006.155518,480.866302 999.577087,485.191376 988.825073,485.795624 
	C979.710266,486.307861 973.164062,482.563660 969.675537,473.706573 
	C967.631531,468.517059 966.217102,462.889648 965.651001,457.343719 
	C963.975403,440.927917 963.102356,424.424927 966.174561,408.074432 
	C967.046997,403.431030 969.321960,399.051147 971.119141,394.222656 
z"/>
<path fill="#FDFDFD" opacity="1.000000" stroke="none" 
	d="
M1902.582275,399.658966 
	C1903.282837,404.800690 1903.829834,409.560760 1904.419678,414.693176 
	C1888.756592,414.693176 1873.695557,414.693176 1857.478027,414.693176 
	C1859.160645,407.564819 1860.190796,400.519196 1862.541748,393.945984 
	C1865.242676,386.394470 1871.420532,382.538422 1879.480835,382.114685 
	C1887.679932,381.683655 1894.642334,384.092743 1898.976196,391.576935 
	C1900.378296,393.998230 1901.291870,396.702454 1902.582275,399.658966 
z"/>
</svg>