
<svg version="1.1" id="Layer_1" xmlns="http://www.w3.org/2000/svg" xmlns:xlink="http://www.w3.org/1999/xlink" x="0px" y="0px"
	 width="100%" viewBox="90 50 2270 380" enable-background="new 0 0 2414 468" xml:space="preserve">
<path fill="#00917c" opacity="0.000000" stroke="none" 
	d="
M1739.000000,469.000000 
	C1159.333374,469.000000 580.166687,469.000000 1.000000,469.000000 
	C1.000000,313.000000 1.000000,157.000000 1.000000,1.000000 
	C805.666687,1.000000 1610.333374,1.000000 2415.000000,1.000000 
	C2415.000000,157.000000 2415.000000,313.000000 2415.000000,469.000000 
	C2189.833252,469.000000 1964.666626,469.000000 1739.000000,469.000000 
M1458.541626,244.113571 
	C1459.062012,228.155670 1459.582520,212.197769 1460.102905,196.239868 
	C1460.737061,196.166199 1461.371216,196.092529 1462.005493,196.018860 
	C1472.967041,241.249252 1483.928589,286.479645 1494.885254,331.689697 
	C1512.151001,334.145660 1529.055908,334.348145 1546.031494,332.274902 
	C1549.262817,331.880249 1550.393188,330.759125 1551.133667,327.693542 
	C1561.360474,285.348694 1571.732788,243.039032 1582.096436,200.727325 
	C1582.484741,199.142395 1583.145630,197.624298 1583.679565,196.075043 
	C1583.951782,196.185455 1584.223877,196.295853 1584.496094,196.406250 
	C1587.290283,252.844193 1590.084473,309.282135 1592.892456,365.999207 
	C1610.406860,367.404510 1627.067383,368.510132 1643.761841,364.768402 
	C1637.825317,288.996307 1631.934814,213.812271 1626.038940,138.559570 
	C1625.025391,138.305847 1624.411987,138.086716 1623.780884,138.003906 
	C1602.539429,135.217072 1581.304199,135.022537 1560.029541,137.811478 
	C1556.997070,138.209030 1555.790771,139.363876 1555.114868,142.152237 
	C1549.474609,165.419998 1543.468994,188.602264 1538.093140,211.930054 
	C1533.126587,233.481400 1528.815186,255.183517 1524.156738,276.806610 
	C1523.889526,278.047241 1523.096069,279.174561 1521.944702,281.651459 
	C1521.316895,279.360809 1521.123535,278.748505 1520.981567,278.124542 
	C1510.658325,232.725632 1500.363403,187.320221 1489.912476,141.950775 
	C1489.568604,140.458389 1487.784180,138.373779 1486.434448,138.175217 
	C1465.053101,135.029709 1443.624878,134.963318 1422.236206,138.128403 
	C1421.030273,138.306854 1419.241577,140.174713 1419.141479,141.374542 
	C1416.648438,171.253677 1414.352783,201.149261 1412.008789,231.040894 
	C1409.482666,263.257019 1406.933716,295.471405 1404.414185,327.688049 
	C1403.455811,339.941193 1402.551270,352.198547 1401.583130,364.970032 
	C1418.597168,368.176849 1435.197266,367.706482 1452.109863,365.834503 
	C1454.246704,325.221100 1456.355713,285.134888 1458.541626,244.113571 
M721.782715,324.556122 
	C717.578064,325.398743 713.404053,326.726959 709.163147,326.994171 
	C695.677368,327.843842 682.539124,325.437347 670.036133,320.614258 
	C659.258301,316.456696 648.891785,311.232788 638.039062,306.343201 
	C628.048706,315.873718 621.391785,327.615143 618.490112,341.614624 
	C617.797668,344.955017 618.832092,346.319244 621.424683,347.865143 
	C642.033813,360.153809 664.212219,367.903961 688.125549,369.731720 
	C710.410095,371.434998 732.374512,369.682190 753.035278,359.891998 
	C793.921875,340.517578 798.608398,292.069214 780.526855,264.305817 
	C771.525635,250.484940 758.677185,241.641663 744.046936,235.088608 
	C729.951599,228.775146 715.568542,223.104813 701.460999,216.817398 
	C696.350098,214.539581 691.128662,211.933777 686.904053,208.359146 
	C677.227661,200.171494 678.071777,188.412064 688.283142,180.756927 
	C693.915222,176.534698 700.465698,175.838684 707.216248,175.848770 
	C727.144592,175.878540 745.471619,182.205063 763.270874,190.344376 
	C766.485352,191.814316 768.178894,191.283279 770.412048,188.889313 
	C779.314331,179.346375 783.484192,167.870758 785.005798,155.153427 
	C785.332397,152.424057 784.116333,151.391464 781.926453,150.345963 
	C765.148560,142.335800 747.614380,136.828781 729.183838,134.331345 
	C706.462646,131.252548 684.233093,132.691544 663.485657,143.365280 
	C639.890381,155.504150 626.170898,174.530136 625.342041,201.613541 
	C624.578186,226.574661 636.951965,244.316162 657.964905,255.904480 
	C671.872925,263.574585 686.821899,269.354462 701.289490,276.013733 
	C708.070618,279.134979 715.199097,281.715607 721.501953,285.619965 
	C737.610535,295.598541 737.887634,314.530426 721.782715,324.556122 
M1105.532227,279.024567 
	C1096.301514,287.444366 1091.296631,297.982513 1089.293701,310.240265 
	C1085.422729,333.930450 1096.312500,356.328186 1117.444946,365.616302 
	C1134.205688,372.983002 1151.318726,371.922272 1167.683716,364.049805 
	C1175.072144,360.495514 1181.765625,355.496735 1188.426636,351.368866 
	C1190.421997,353.173523 1192.595459,355.238312 1194.872925,357.181335 
	C1203.333740,364.399933 1213.820068,369.569458 1224.114380,367.195282 
	C1232.302612,365.306793 1235.168213,354.683594 1238.756348,346.818542 
	C1239.304321,345.617523 1239.754883,344.322662 1239.947632,343.026184 
	C1240.077026,342.154388 1240.004883,340.791687 1239.457153,340.349365 
	C1231.278198,333.745544 1231.249634,324.461517 1231.192993,315.271179 
	C1231.054321,292.780090 1231.570068,270.272675 1230.888306,247.800186 
	C1229.970459,217.552246 1210.179565,198.926758 1180.641479,195.870422 
	C1164.514771,194.201767 1148.700317,196.558121 1133.041138,199.710739 
	C1120.253052,202.285370 1107.691650,205.985352 1094.941284,209.208725 
	C1096.481445,221.154343 1098.626831,231.637421 1104.094971,241.242630 
	C1106.278320,245.077820 1108.447876,246.006287 1113.130859,244.825699 
	C1127.272583,241.260559 1141.526611,237.572296 1155.964600,235.900238 
	C1172.721558,233.959686 1182.119629,246.169586 1178.143555,262.270599 
	C1169.420898,262.270599 1160.759155,261.972931 1152.124878,262.333771 
	C1135.171143,263.042297 1119.140747,266.686890 1105.532227,279.024567 
M899.315369,195.080200 
	C891.506653,195.034973 883.645508,194.384735 875.898743,195.055405 
	C850.362549,197.266129 831.370911,209.789368 819.927124,232.836990 
	C808.280518,256.292969 807.270874,281.184021 811.584412,306.488617 
	C814.714355,324.849579 822.114990,341.127533 836.640869,353.480713 
	C852.528137,366.991638 871.270386,370.749969 891.583374,370.148682 
	C921.726868,369.256378 946.493713,351.947083 956.917480,323.746368 
	C963.944336,304.735718 965.257507,285.106659 962.855164,265.182098 
	C958.620300,230.058350 938.884888,200.803101 899.315369,195.080200 
M1693.210693,215.709976 
	C1686.290894,223.337845 1681.167725,232.064713 1678.041260,241.838654 
	C1669.246094,269.334137 1669.639893,297.080292 1677.901489,324.451599 
	C1684.983887,347.915588 1700.958374,362.836731 1725.242065,368.224304 
	C1738.776733,371.227081 1752.421753,370.668915 1765.989990,368.855103 
	C1781.482544,366.784058 1796.106934,361.947998 1809.128052,353.033508 
	C1810.322510,352.215729 1811.670776,350.206238 1811.471924,348.991760 
	C1809.752563,338.489655 1806.070923,328.819275 1798.272339,320.942352 
	C1796.996460,321.336578 1795.766602,321.800659 1794.497559,322.095520 
	C1782.232788,324.944977 1770.083496,328.611328 1757.664307,330.401215 
	C1738.000977,333.235077 1723.786011,319.023315 1725.371948,299.046753 
	C1754.152466,299.046753 1782.955444,299.046753 1811.947510,299.046753 
	C1815.449341,287.931061 1816.262573,276.677765 1816.315063,265.331116 
	C1816.395996,247.827255 1811.893677,231.846207 1800.883545,217.891724 
	C1776.267212,186.692337 1719.727661,186.849396 1693.210693,215.709976 
M2251.595947,350.112305 
	C2257.473145,340.118378 2263.350342,330.124481 2269.413086,319.815277 
	C2277.123047,331.444244 2284.484375,342.722748 2292.033447,353.874237 
	C2297.419189,361.830261 2304.797607,367.086639 2314.514893,368.010376 
	C2329.052246,369.392365 2341.989014,364.768250 2353.974121,356.604614 
	C2337.468994,331.615356 2321.147949,306.716522 2304.563232,281.994659 
	C2302.020020,278.203522 2301.689453,275.648529 2304.364990,271.638580 
	C2318.489014,250.470108 2332.235107,229.049576 2346.102295,207.709946 
	C2349.349609,202.712784 2348.868164,201.454269 2343.006348,199.880447 
	C2330.400635,196.496002 2317.607666,196.793335 2304.850830,198.521469 
	C2302.680420,198.815475 2300.236084,200.874191 2298.897949,202.798660 
	C2295.297607,207.976746 2292.229736,213.525009 2288.945068,218.922989 
	C2284.867432,225.624146 2280.784424,232.321823 2276.471680,239.401794 
	C2269.685059,229.077316 2263.337891,219.325073 2256.887939,209.641312 
	C2252.185791,202.581650 2246.098633,197.181686 2237.318848,196.383728 
	C2222.590332,195.045120 2209.128906,198.761993 2196.980225,207.453735 
	C2212.117188,230.906891 2227.034180,254.140350 2242.137451,277.252045 
	C2243.866699,279.898132 2243.879395,281.620026 2242.177979,284.237793 
	C2226.587402,308.223969 2211.145752,332.306885 2195.664795,356.364075 
	C2192.357910,361.502441 2192.810791,362.817932 2198.825928,364.524994 
	C2210.895752,367.950165 2223.196533,367.264404 2235.525879,366.597778 
	C2240.996094,366.302032 2244.336914,363.843994 2246.451416,358.917450 
	C2247.687500,356.037628 2249.582764,353.440704 2251.595947,350.112305 
M1936.449463,199.063522 
	C1926.479736,199.063522 1916.510010,199.063522 1906.270508,199.063522 
	C1906.198486,197.856644 1906.055298,196.560181 1906.053833,195.263535 
	C1906.037964,181.771530 1906.020874,168.279419 1906.064331,154.787537 
	C1906.073486,151.927963 1905.817139,149.009735 1902.232300,149.078644 
	C1892.263794,149.270279 1882.239136,149.270966 1872.359253,150.410034 
	C1865.400757,151.212265 1859.852051,155.545837 1857.980835,162.637802 
	C1856.389404,168.669769 1855.548218,174.965347 1855.039795,181.198532 
	C1854.556763,187.118790 1854.935791,193.109360 1854.935791,199.206421 
	C1846.029785,199.206421 1837.585205,199.206421 1828.860596,199.206421 
	C1825.907104,211.490036 1825.631348,223.684189 1828.978760,235.913940 
	C1837.845947,235.913940 1846.250122,235.913940 1854.934448,235.913940 
	C1854.934448,248.529205 1854.924316,260.833160 1854.936890,273.137115 
	C1854.954712,290.626556 1854.681885,308.123199 1855.090820,325.603699 
	C1855.669556,350.344879 1867.967407,365.186951 1891.104492,366.401215 
	C1907.449707,367.259064 1923.966309,364.973175 1940.391602,363.870392 
	C1941.362915,363.805145 1942.783325,361.880280 1943.011841,360.639709 
	C1944.922241,350.270660 1943.921265,340.063049 1940.327515,330.192230 
	C1939.845337,328.867859 1937.719849,327.377106 1936.282349,327.298645 
	C1930.303589,326.972229 1924.293945,327.273407 1918.301270,327.121216 
	C1912.478027,326.973389 1908.215576,323.466431 1906.939209,317.771820 
	C1906.362915,315.200653 1906.089478,312.509125 1906.082275,309.871124 
	C1906.018188,286.385162 1906.041748,262.898956 1906.051270,239.412842 
	C1906.051758,238.129410 1906.156494,236.846008 1906.210938,235.601746 
	C1919.665039,235.601746 1932.754639,235.601746 1945.837769,235.601746 
	C1948.545288,223.422028 1948.536743,211.295166 1945.692017,199.051910 
	C1942.737793,199.051910 1940.084473,199.051910 1936.449463,199.063522 
M1045.205933,317.652466 
	C1044.999023,314.330688 1044.614380,311.009033 1044.611816,307.687103 
	C1044.573486,257.524353 1044.596802,207.361603 1044.564209,157.198853 
	C1044.561401,152.870697 1044.405518,148.532288 1044.081909,144.216537 
	C1042.928345,128.828552 1035.763428,121.730118 1020.382690,120.904007 
	C1013.733765,120.546883 1007.062622,120.555794 1000.400757,120.502914 
	C993.933105,120.451569 993.769348,120.671631 993.769104,127.337013 
	C993.766907,190.165405 993.761292,252.993790 993.779297,315.822174 
	C993.780640,320.486755 993.773621,325.163513 994.083252,329.813782 
	C995.697754,354.069794 1008.012695,366.412018 1032.252319,366.752045 
	C1045.167725,366.933228 1058.107178,365.404114 1072.435547,364.564972 
	C1071.923462,354.619873 1071.977295,345.663239 1070.870605,336.852356 
	C1069.648804,327.125275 1069.180542,326.988068 1059.465942,327.225983 
	C1052.665649,327.392578 1047.845947,325.007507 1045.205933,317.652466 
M2028.574707,288.500244 
	C2028.573975,280.833649 2028.512573,273.166229 2028.617920,265.501068 
	C2028.642090,263.738007 2028.816772,261.750458 2029.638184,260.261078 
	C2035.712158,249.248169 2048.554199,243.242538 2060.948730,245.448547 
	C2064.995605,246.168839 2069.024658,246.988068 2073.290283,247.805817 
	C2081.453125,232.786514 2085.315674,216.710785 2086.086670,199.837326 
	C2058.099609,193.234589 2034.937500,197.174194 2022.283936,226.772964 
	C2021.302002,225.094055 2020.754639,224.276337 2020.322266,223.401764 
	C2012.790405,208.162903 2000.321411,199.885590 1983.754395,197.213776 
	C1980.465698,196.683411 1977.787842,197.139282 1975.967407,200.050842 
	C1972.628418,205.390945 1969.292969,210.737503 1966.135376,216.185333 
	C1963.817261,220.184723 1963.267700,223.819550 1967.616455,227.392044 
	C1969.905762,229.272720 1971.813354,232.470535 1972.421753,235.381226 
	C1974.110840,243.462128 1975.984131,251.692551 1976.083862,259.884644 
	C1976.487549,293.046356 1976.251831,326.215881 1976.252075,359.382507 
	C1976.252075,361.185150 1976.251953,362.987793 1976.251953,364.670349 
	C1986.995972,368.095306 2020.548340,367.898010 2028.574585,364.402710 
	C2028.574585,339.489075 2028.574585,314.494690 2028.574707,288.500244 
M1272.723145,250.030853 
	C1272.824341,253.693741 1273.010864,257.356567 1273.013428,261.019531 
	C1273.036255,293.852478 1273.026855,326.685394 1273.026978,359.518341 
	C1273.026978,361.321198 1273.026978,363.124084 1273.026978,365.203247 
	C1290.571533,367.787323 1307.727539,367.911835 1325.181030,365.187744 
	C1325.181030,362.949036 1325.181030,361.130493 1325.181030,359.311981 
	C1325.180786,328.312347 1325.164307,297.312714 1325.218994,266.313171 
	C1325.222412,264.387360 1325.297729,262.203979 1326.162964,260.578857 
	C1332.138916,249.355087 1345.172363,243.220764 1357.796509,245.469147 
	C1361.837891,246.188934 1365.866211,246.982300 1369.866943,247.735703 
	C1377.644531,234.463104 1383.987793,209.649918 1382.200806,199.705185 
	C1354.783569,193.235703 1331.683105,197.223511 1318.945557,226.934204 
	C1317.980835,225.120651 1317.452393,224.175995 1316.967896,223.209259 
	C1309.356445,208.019211 1296.864014,199.648880 1280.252075,197.355988 
	C1278.137817,197.064178 1274.702393,197.737030 1273.737061,199.193985 
	C1269.182617,206.068207 1265.191895,213.325653 1261.240234,220.577301 
	C1260.732300,221.509155 1261.146851,223.711014 1261.945801,224.467682 
	C1269.057251,231.203247 1271.441528,239.883820 1272.723145,250.030853 
M2152.362793,200.930344 
	C2135.154785,195.141037 2117.731689,199.357666 2100.199219,199.296005 
	C2097.506592,211.876633 2097.100098,223.912201 2100.199219,235.881973 
	C2116.327637,236.360977 2120.785889,240.917099 2120.926270,256.465149 
	C2120.936768,257.631165 2120.928223,258.797394 2120.928223,259.963501 
	C2120.928467,292.281616 2120.928467,324.599762 2120.928467,356.917877 
	C2120.928467,359.566772 2120.928467,362.215668 2120.928467,365.227020 
	C2138.531250,367.803223 2155.800293,368.144836 2173.049805,365.139679 
	C2173.049805,320.642731 2173.309082,276.684021 2172.899658,232.731552 
	C2172.768799,218.690796 2166.457520,207.456726 2152.362793,200.930344 
M322.597443,254.136307 
	C324.966675,247.553329 327.335907,240.970352 329.824341,234.056168 
	C297.743988,234.056168 266.420166,234.113647 235.097321,233.966507 
	C231.994461,233.951950 231.188431,235.424225 230.339752,237.779785 
	C225.379959,251.546158 220.319885,265.276367 215.311310,279.025208 
	C211.622375,289.151520 207.960464,299.287689 204.150574,309.794342 
	C236.242081,309.794342 267.856842,309.843536 299.469849,309.630127 
	C300.860809,309.620758 302.915924,307.466522 303.513214,305.879211 
	C309.896149,288.916473 316.047150,271.866455 322.597443,254.136307 
M350.493225,138.151321 
	C353.825745,138.151276 357.191376,137.857590 360.481995,138.228912 
	C364.213440,138.649979 365.616913,137.001678 366.784210,133.700180 
	C372.326294,118.024788 378.146454,102.447815 383.851288,86.829834 
	C386.338745,80.019875 388.786957,73.195572 391.333984,66.153931 
	C358.270142,66.153931 325.801788,66.153931 293.258118,66.153931 
	C284.497650,90.086731 275.780670,113.900673 266.903839,138.151321 
	C294.864014,138.151321 322.179626,138.151321 350.493225,138.151321 
M336.503845,309.839264 
	C358.327698,309.839233 380.152130,309.752197 401.974976,309.900360 
	C407.421844,309.937347 410.615936,307.818939 412.389069,302.633575 
	C415.773438,292.736328 419.513702,282.960785 423.104523,273.134094 
	C427.823456,260.220490 432.540771,247.306335 437.302185,234.273529 
	C436.377594,234.061203 435.910339,233.860291 435.442963,233.859955 
	C407.121979,233.839630 378.800720,233.890869 350.480408,233.748718 
	C347.509796,233.733810 346.920319,235.386520 346.180420,237.441101 
	C341.396667,250.724289 336.613037,264.007568 331.801971,277.280853 
	C327.908844,288.021667 323.977264,298.748505 319.932281,309.839264 
	C325.527313,309.839264 330.517090,309.839264 336.503845,309.839264 
M173.479492,309.838898 
	C175.977264,309.838867 178.514328,309.558258 180.964096,309.901154 
	C185.194473,310.493286 186.949677,308.701904 188.279236,304.748169 
	C192.140884,293.264740 196.536133,281.961304 200.687256,270.574585 
	C205.099182,258.472534 209.471252,246.355942 214.010910,233.831390 
	C184.625778,233.831390 155.827911,233.785660 127.031693,233.981842 
	C125.746445,233.990616 123.837204,235.960587 123.295509,237.417435 
	C116.063332,256.868103 108.994621,276.379852 101.948570,295.899261 
	C98.685722,304.938202 102.065765,309.818176 111.538368,309.830597 
	C131.853928,309.857300 152.169571,309.838867 173.479492,309.838898 
M171.373245,104.879753 
	C167.374344,115.815544 163.375458,126.751328 159.201187,138.166718 
	C188.924103,138.166718 217.711227,138.211578 246.496811,138.022842 
	C247.816254,138.014191 249.775909,136.158600 250.328598,134.733292 
	C254.107391,124.988091 257.579559,115.124199 261.169617,105.305557 
	C265.886688,92.404671 270.621338,79.510223 275.401886,66.467102 
	C274.502594,66.237610 274.061188,66.026634 273.619690,66.026337 
	C246.321655,66.008026 219.023529,66.041840 191.725677,65.970322 
	C187.115829,65.958252 184.825470,68.435547 183.388870,72.399353 
	C179.543701,83.008842 175.621048,93.590256 171.373245,104.879753 
M440.500000,65.999184 
	C430.055023,65.999184 419.610077,65.999184 409.143677,65.999184 
	C400.305634,90.140419 391.598816,113.923195 382.839447,137.849518 
	C383.870178,138.007812 384.358337,138.148163 384.846588,138.148407 
	C412.823181,138.162247 440.800110,138.101044 468.775848,138.257294 
	C471.868164,138.274582 472.681122,136.830383 473.543457,134.457321 
	C480.234283,116.045181 487.032440,97.672073 493.756256,79.271873 
	C496.860870,70.775887 493.526825,66.026253 484.464081,66.007256 
	C470.142792,65.977226 455.821381,65.999214 440.500000,65.999184 
M269.499786,217.662842 
	C291.586548,217.662842 313.673309,217.662842 335.891541,217.662842 
	C343.580322,196.654617 351.136780,176.007919 358.865753,154.889847 
	C326.398407,154.889847 294.779510,154.847641 263.162140,155.043915 
	C261.895996,155.051773 260.033508,157.091766 259.479004,158.571045 
	C253.473572,174.591110 247.673920,190.688339 241.819824,206.765137 
	C240.536926,210.288300 239.260941,213.813995 237.864075,217.662827 
	C248.529663,217.662827 258.514709,217.662827 269.499786,217.662842 
M281.342377,408.441101 
	C281.342377,411.545868 281.342377,414.650604 281.342377,417.680817 
	C303.190674,417.680817 324.417053,417.680817 345.617615,417.680817 
	C345.617615,386.375671 345.617615,355.355957 345.617615,324.388397 
	C324.103760,324.388397 302.891479,324.388397 281.342377,324.388397 
	C281.342377,352.269348 281.342377,379.863983 281.342377,408.441101 
M458.925903,174.467438 
	C461.246429,168.090424 463.566986,161.713394 465.892609,155.322357 
	C465.279724,155.128326 464.971161,154.945312 464.662445,154.945023 
	C436.190765,154.917343 407.718781,154.858688 379.248230,155.031830 
	C377.928772,155.039841 375.960938,156.876144 375.414825,158.292664 
	C371.410889,168.677826 367.694611,179.173889 363.884277,189.633743 
	C360.546997,198.794830 357.205353,207.954330 353.867157,217.110474 
	C354.611237,217.404846 354.894043,217.614563 355.177063,217.614822 
	C383.482147,217.640533 411.787628,217.703537 440.091278,217.506592 
	C441.527527,217.496597 443.669617,215.517029 444.262390,213.982834 
	C449.231506,201.121658 453.914948,188.150116 458.925903,174.467438 
M157.791824,154.888107 
	C154.669800,154.286987 153.154922,155.572968 152.067123,158.629807 
	C145.553497,176.933960 138.806351,195.154938 132.159882,213.411957 
	C131.691513,214.698547 131.402573,216.050461 130.948196,217.663010 
	C155.708542,217.663010 179.835007,217.686310 203.961365,217.644791 
	C209.246765,217.635696 215.841949,219.265320 219.449081,216.737366 
	C223.068741,214.200638 223.805618,207.448517 225.637604,202.481766 
	C231.431824,186.772995 237.147278,171.035187 243.046860,154.888031 
	C214.622498,154.888031 186.677856,154.888031 157.791824,154.888107 
M2156.339600,129.006241 
	C2143.450195,125.917145 2130.660400,125.743782 2118.279541,131.025848 
	C2116.312988,131.864853 2114.317871,134.081207 2113.580811,136.112473 
	C2109.892090,146.278091 2109.785156,156.694214 2113.427246,166.862076 
	C2114.289062,169.267502 2116.822754,171.979584 2119.190430,172.790894 
	C2133.151855,177.575089 2147.255615,177.298111 2161.105713,172.177261 
	C2162.939941,171.499039 2164.843994,169.431473 2165.556396,167.564896 
	C2168.970947,158.619446 2168.858398,149.418549 2167.010254,140.085693 
	C2165.863037,134.293243 2163.066650,130.416275 2156.339600,129.006241 
z"/>
<path fill="#00917c" opacity="1.000000" stroke="none" 
	d="
M1458.503174,244.581116 
	C1456.355713,285.134888 1454.246704,325.221100 1452.109863,365.834503 
	C1435.197266,367.706482 1418.597168,368.176849 1401.583130,364.970032 
	C1402.551270,352.198547 1403.455811,339.941193 1404.414185,327.688049 
	C1406.933716,295.471405 1409.482666,263.257019 1412.008789,231.040894 
	C1414.352783,201.149261 1416.648438,171.253677 1419.141479,141.374542 
	C1419.241577,140.174713 1421.030273,138.306854 1422.236206,138.128403 
	C1443.624878,134.963318 1465.053101,135.029709 1486.434448,138.175217 
	C1487.784180,138.373779 1489.568604,140.458389 1489.912476,141.950775 
	C1500.363403,187.320221 1510.658325,232.725632 1520.981567,278.124542 
	C1521.123535,278.748505 1521.316895,279.360809 1521.944702,281.651459 
	C1523.096069,279.174561 1523.889526,278.047241 1524.156738,276.806610 
	C1528.815186,255.183517 1533.126587,233.481400 1538.093140,211.930054 
	C1543.468994,188.602264 1549.474609,165.419998 1555.114868,142.152237 
	C1555.790771,139.363876 1556.997070,138.209030 1560.029541,137.811478 
	C1581.304199,135.022537 1602.539429,135.217072 1623.780884,138.003906 
	C1624.411987,138.086716 1625.025391,138.305847 1626.038940,138.559570 
	C1631.934814,213.812271 1637.825317,288.996307 1643.761841,364.768402 
	C1627.067383,368.510132 1610.406860,367.404510 1592.892456,365.999207 
	C1590.084473,309.282135 1587.290283,252.844193 1584.496094,196.406250 
	C1584.223877,196.295853 1583.951782,196.185455 1583.679565,196.075043 
	C1583.145630,197.624298 1582.484741,199.142395 1582.096436,200.727325 
	C1571.732788,243.039032 1561.360474,285.348694 1551.133667,327.693542 
	C1550.393188,330.759125 1549.262817,331.880249 1546.031494,332.274902 
	C1529.055908,334.348145 1512.151001,334.145660 1494.885254,331.689697 
	C1483.928589,286.479645 1472.967041,241.249252 1462.005493,196.018860 
	C1461.371216,196.092529 1460.737061,196.166199 1460.102905,196.239868 
	C1459.582520,212.197769 1459.062012,228.155670 1458.503174,244.581116 
z"/>
<path fill="#00917c" opacity="1.000000" stroke="none" 
	d="
M722.122070,324.374756 
	C737.887634,314.530426 737.610535,295.598541 721.501953,285.619965 
	C715.199097,281.715607 708.070618,279.134979 701.289490,276.013733 
	C686.821899,269.354462 671.872925,263.574585 657.964905,255.904480 
	C636.951965,244.316162 624.578186,226.574661 625.342041,201.613541 
	C626.170898,174.530136 639.890381,155.504150 663.485657,143.365280 
	C684.233093,132.691544 706.462646,131.252548 729.183838,134.331345 
	C747.614380,136.828781 765.148560,142.335800 781.926453,150.345963 
	C784.116333,151.391464 785.332397,152.424057 785.005798,155.153427 
	C783.484192,167.870758 779.314331,179.346375 770.412048,188.889313 
	C768.178894,191.283279 766.485352,191.814316 763.270874,190.344376 
	C745.471619,182.205063 727.144592,175.878540 707.216248,175.848770 
	C700.465698,175.838684 693.915222,176.534698 688.283142,180.756927 
	C678.071777,188.412064 677.227661,200.171494 686.904053,208.359146 
	C691.128662,211.933777 696.350098,214.539581 701.460999,216.817398 
	C715.568542,223.104813 729.951599,228.775146 744.046936,235.088608 
	C758.677185,241.641663 771.525635,250.484940 780.526855,264.305817 
	C798.608398,292.069214 793.921875,340.517578 753.035278,359.891998 
	C732.374512,369.682190 710.410095,371.434998 688.125549,369.731720 
	C664.212219,367.903961 642.033813,360.153809 621.424683,347.865143 
	C618.832092,346.319244 617.797668,344.955017 618.490112,341.614624 
	C621.391785,327.615143 628.048706,315.873718 638.039062,306.343201 
	C648.891785,311.232788 659.258301,316.456696 670.036133,320.614258 
	C682.539124,325.437347 695.677368,327.843842 709.163147,326.994171 
	C713.404053,326.726959 717.578064,325.398743 722.122070,324.374756 
z"/>
<path fill="#00917c" opacity="1.000000" stroke="none" 
	d="
M1105.796265,278.785461 
	C1119.140747,266.686890 1135.171143,263.042297 1152.124878,262.333771 
	C1160.759155,261.972931 1169.420898,262.270599 1178.143555,262.270599 
	C1182.119629,246.169586 1172.721558,233.959686 1155.964600,235.900238 
	C1141.526611,237.572296 1127.272583,241.260559 1113.130859,244.825699 
	C1108.447876,246.006287 1106.278320,245.077820 1104.094971,241.242630 
	C1098.626831,231.637421 1096.481445,221.154343 1094.941284,209.208725 
	C1107.691650,205.985352 1120.253052,202.285370 1133.041138,199.710739 
	C1148.700317,196.558121 1164.514771,194.201767 1180.641479,195.870422 
	C1210.179565,198.926758 1229.970459,217.552246 1230.888306,247.800186 
	C1231.570068,270.272675 1231.054321,292.780090 1231.192993,315.271179 
	C1231.249634,324.461517 1231.278198,333.745544 1239.457153,340.349365 
	C1240.004883,340.791687 1240.077026,342.154388 1239.947632,343.026184 
	C1239.754883,344.322662 1239.304321,345.617523 1238.756348,346.818542 
	C1235.168213,354.683594 1232.302612,365.306793 1224.114380,367.195282 
	C1213.820068,369.569458 1203.333740,364.399933 1194.872925,357.181335 
	C1192.595459,355.238312 1190.421997,353.173523 1188.426636,351.368866 
	C1181.765625,355.496735 1175.072144,360.495514 1167.683716,364.049805 
	C1151.318726,371.922272 1134.205688,372.983002 1117.444946,365.616302 
	C1096.312500,356.328186 1085.422729,333.930450 1089.293701,310.240265 
	C1091.296631,297.982513 1096.301514,287.444366 1105.796265,278.785461 
M1178.802490,315.333008 
	C1178.802490,308.912750 1178.802490,302.492493 1178.802490,295.079346 
	C1171.400879,295.079346 1164.600342,294.877808 1157.816528,295.128448 
	C1148.548950,295.470856 1142.214722,300.740265 1140.280884,309.244751 
	C1136.737305,324.829803 1144.814941,334.114288 1160.372559,331.630493 
	C1164.944702,330.900543 1169.233032,328.209808 1173.568726,326.235870 
	C1177.801392,324.308868 1179.781250,321.027191 1178.802490,315.333008 
z"/>
<path fill="#00917c" opacity="1.000000" stroke="none" 
	d="
M899.750854,195.125000 
	C938.884888,200.803101 958.620300,230.058350 962.855164,265.182098 
	C965.257507,285.106659 963.944336,304.735718 956.917480,323.746368 
	C946.493713,351.947083 921.726868,369.256378 891.583374,370.148682 
	C871.270386,370.749969 852.528137,366.991638 836.640869,353.480713 
	C822.114990,341.127533 814.714355,324.849579 811.584412,306.488617 
	C807.270874,281.184021 808.280518,256.292969 819.927124,232.836990 
	C831.370911,209.789368 850.362549,197.266129 875.898743,195.055405 
	C883.645508,194.384735 891.506653,195.034973 899.750854,195.125000 
M877.898682,330.002411 
	C892.973450,334.146667 903.399475,328.700531 906.775208,313.437256 
	C911.567566,291.769440 911.754089,269.893860 906.022217,248.266037 
	C903.406860,238.397583 898.317871,234.339371 888.515137,233.328049 
	C879.755981,232.424408 873.009521,236.041855 868.660278,244.471237 
	C867.009766,247.670242 865.625793,251.177368 864.990234,254.700974 
	C861.590393,273.548553 862.189636,292.463318 865.236145,311.269257 
	C866.476929,318.927948 869.313965,326.095306 877.898682,330.002411 
z"/>
<path fill="#00917c" opacity="1.000000" stroke="none" 
	d="
M1693.450195,215.450653 
	C1719.727661,186.849396 1776.267212,186.692337 1800.883545,217.891724 
	C1811.893677,231.846207 1816.395996,247.827255 1816.315063,265.331116 
	C1816.262573,276.677765 1815.449341,287.931061 1811.947510,299.046753 
	C1782.955444,299.046753 1754.152466,299.046753 1725.371948,299.046753 
	C1723.786011,319.023315 1738.000977,333.235077 1757.664307,330.401215 
	C1770.083496,328.611328 1782.232788,324.944977 1794.497559,322.095520 
	C1795.766602,321.800659 1796.996460,321.336578 1798.272339,320.942352 
	C1806.070923,328.819275 1809.752563,338.489655 1811.471924,348.991760 
	C1811.670776,350.206238 1810.322510,352.215729 1809.128052,353.033508 
	C1796.106934,361.947998 1781.482544,366.784058 1765.989990,368.855103 
	C1752.421753,370.668915 1738.776733,371.227081 1725.242065,368.224304 
	C1700.958374,362.836731 1684.983887,347.915588 1677.901489,324.451599 
	C1669.639893,297.080292 1669.246094,269.334137 1678.041260,241.838654 
	C1681.167725,232.064713 1686.290894,223.337845 1693.450195,215.450653 
M1741.500732,263.167877 
	C1750.425415,263.167877 1759.350098,263.167877 1769.456909,263.167877 
	C1768.177856,256.436279 1767.680908,250.271530 1765.769043,244.582214 
	C1762.831055,235.838745 1755.745483,231.245865 1746.725464,231.244629 
	C1738.570801,231.243500 1731.796265,234.347183 1728.891479,242.277008 
	C1726.507324,248.785751 1725.421265,255.770004 1723.606689,263.167877 
	C1730.233521,263.167877 1735.367554,263.167877 1741.500732,263.167877 
z"/>
<path fill="#00917c" opacity="1.000000" stroke="none" 
	d="
M2251.388672,350.414429 
	C2249.582764,353.440704 2247.687500,356.037628 2246.451416,358.917450 
	C2244.336914,363.843994 2240.996094,366.302032 2235.525879,366.597778 
	C2223.196533,367.264404 2210.895752,367.950165 2198.825928,364.524994 
	C2192.810791,362.817932 2192.357910,361.502441 2195.664795,356.364075 
	C2211.145752,332.306885 2226.587402,308.223969 2242.177979,284.237793 
	C2243.879395,281.620026 2243.866699,279.898132 2242.137451,277.252045 
	C2227.034180,254.140350 2212.117188,230.906891 2196.980225,207.453735 
	C2209.128906,198.761993 2222.590332,195.045120 2237.318848,196.383728 
	C2246.098633,197.181686 2252.185791,202.581650 2256.887939,209.641312 
	C2263.337891,219.325073 2269.685059,229.077316 2276.471680,239.401794 
	C2280.784424,232.321823 2284.867432,225.624146 2288.945068,218.922989 
	C2292.229736,213.525009 2295.297607,207.976746 2298.897949,202.798660 
	C2300.236084,200.874191 2302.680420,198.815475 2304.850830,198.521469 
	C2317.607666,196.793335 2330.400635,196.496002 2343.006348,199.880447 
	C2348.868164,201.454269 2349.349609,202.712784 2346.102295,207.709946 
	C2332.235107,229.049576 2318.489014,250.470108 2304.364990,271.638580 
	C2301.689453,275.648529 2302.020020,278.203522 2304.563232,281.994659 
	C2321.147949,306.716522 2337.468994,331.615356 2353.974121,356.604614 
	C2341.989014,364.768250 2329.052246,369.392365 2314.514893,368.010376 
	C2304.797607,367.086639 2297.419189,361.830261 2292.033447,353.874237 
	C2284.484375,342.722748 2277.123047,331.444244 2269.413086,319.815277 
	C2263.350342,330.124481 2257.473145,340.118378 2251.388672,350.414429 
z"/>
<path fill="#00917c" opacity="1.000000" stroke="none" 
	d="
M1936.940308,199.057709 
	C1940.084473,199.051910 1942.737793,199.051910 1945.692017,199.051910 
	C1948.536743,211.295166 1948.545288,223.422028 1945.837769,235.601746 
	C1932.754639,235.601746 1919.665039,235.601746 1906.210938,235.601746 
	C1906.156494,236.846008 1906.051758,238.129410 1906.051270,239.412842 
	C1906.041748,262.898956 1906.018188,286.385162 1906.082275,309.871124 
	C1906.089478,312.509125 1906.362915,315.200653 1906.939209,317.771820 
	C1908.215576,323.466431 1912.478027,326.973389 1918.301270,327.121216 
	C1924.293945,327.273407 1930.303589,326.972229 1936.282349,327.298645 
	C1937.719849,327.377106 1939.845337,328.867859 1940.327515,330.192230 
	C1943.921265,340.063049 1944.922241,350.270660 1943.011841,360.639709 
	C1942.783325,361.880280 1941.362915,363.805145 1940.391602,363.870392 
	C1923.966309,364.973175 1907.449707,367.259064 1891.104492,366.401215 
	C1867.967407,365.186951 1855.669556,350.344879 1855.090820,325.603699 
	C1854.681885,308.123199 1854.954712,290.626556 1854.936890,273.137115 
	C1854.924316,260.833160 1854.934448,248.529205 1854.934448,235.913940 
	C1846.250122,235.913940 1837.845947,235.913940 1828.978760,235.913940 
	C1825.631348,223.684189 1825.907104,211.490036 1828.860596,199.206421 
	C1837.585205,199.206421 1846.029785,199.206421 1854.935791,199.206421 
	C1854.935791,193.109360 1854.556763,187.118790 1855.039795,181.198532 
	C1855.548218,174.965347 1856.389404,168.669769 1857.980835,162.637802 
	C1859.852051,155.545837 1865.400757,151.212265 1872.359253,150.410034 
	C1882.239136,149.270966 1892.263794,149.270279 1902.232300,149.078644 
	C1905.817139,149.009735 1906.073486,151.927963 1906.064331,154.787537 
	C1906.020874,168.279419 1906.037964,181.771530 1906.053833,195.263535 
	C1906.055298,196.560181 1906.198486,197.856644 1906.270508,199.063522 
	C1916.510010,199.063522 1926.479736,199.063522 1936.940308,199.057709 
z"/>
<path fill="#00917c" opacity="1.000000" stroke="none" 
	d="
M1045.311157,318.060516 
	C1047.845947,325.007507 1052.665649,327.392578 1059.465942,327.225983 
	C1069.180542,326.988068 1069.648804,327.125275 1070.870605,336.852356 
	C1071.977295,345.663239 1071.923462,354.619873 1072.435547,364.564972 
	C1058.107178,365.404114 1045.167725,366.933228 1032.252319,366.752045 
	C1008.012695,366.412018 995.697754,354.069794 994.083252,329.813782 
	C993.773621,325.163513 993.780640,320.486755 993.779297,315.822174 
	C993.761292,252.993790 993.766907,190.165405 993.769104,127.337013 
	C993.769348,120.671631 993.933105,120.451569 1000.400757,120.502914 
	C1007.062622,120.555794 1013.733765,120.546883 1020.382690,120.904007 
	C1035.763428,121.730118 1042.928345,128.828552 1044.081909,144.216537 
	C1044.405518,148.532288 1044.561401,152.870697 1044.564209,157.198853 
	C1044.596802,207.361603 1044.573486,257.524353 1044.611816,307.687103 
	C1044.614380,311.009033 1044.999023,314.330688 1045.311157,318.060516 
z"/>
<path fill="#00917c" opacity="1.000000" stroke="none" 
	d="
M2028.574707,289.000275 
	C2028.574585,314.494690 2028.574585,339.489075 2028.574585,364.402710 
	C2020.548340,367.898010 1986.995972,368.095306 1976.251953,364.670349 
	C1976.251953,362.987793 1976.252075,361.185150 1976.252075,359.382507 
	C1976.251831,326.215881 1976.487549,293.046356 1976.083862,259.884644 
	C1975.984131,251.692551 1974.110840,243.462128 1972.421753,235.381226 
	C1971.813354,232.470535 1969.905762,229.272720 1967.616455,227.392044 
	C1963.267700,223.819550 1963.817261,220.184723 1966.135376,216.185333 
	C1969.292969,210.737503 1972.628418,205.390945 1975.967407,200.050842 
	C1977.787842,197.139282 1980.465698,196.683411 1983.754395,197.213776 
	C2000.321411,199.885590 2012.790405,208.162903 2020.322266,223.401764 
	C2020.754639,224.276337 2021.302002,225.094055 2022.283936,226.772964 
	C2034.937500,197.174194 2058.099609,193.234589 2086.086670,199.837326 
	C2085.315674,216.710785 2081.453125,232.786514 2073.290283,247.805817 
	C2069.024658,246.988068 2064.995605,246.168839 2060.948730,245.448547 
	C2048.554199,243.242538 2035.712158,249.248169 2029.638184,260.261078 
	C2028.816772,261.750458 2028.642090,263.738007 2028.617920,265.501068 
	C2028.512573,273.166229 2028.573975,280.833649 2028.574707,289.000275 
z"/>
<path fill="#00917c" opacity="1.000000" stroke="none" 
	d="
M1272.651367,249.585663 
	C1271.441528,239.883820 1269.057251,231.203247 1261.945801,224.467682 
	C1261.146851,223.711014 1260.732300,221.509155 1261.240234,220.577301 
	C1265.191895,213.325653 1269.182617,206.068207 1273.737061,199.193985 
	C1274.702393,197.737030 1278.137817,197.064178 1280.252075,197.355988 
	C1296.864014,199.648880 1309.356445,208.019211 1316.967896,223.209259 
	C1317.452393,224.175995 1317.980835,225.120651 1318.945557,226.934204 
	C1331.683105,197.223511 1354.783569,193.235703 1382.200806,199.705185 
	C1383.987793,209.649918 1377.644531,234.463104 1369.866943,247.735703 
	C1365.866211,246.982300 1361.837891,246.188934 1357.796509,245.469147 
	C1345.172363,243.220764 1332.138916,249.355087 1326.162964,260.578857 
	C1325.297729,262.203979 1325.222412,264.387360 1325.218994,266.313171 
	C1325.164307,297.312714 1325.180786,328.312347 1325.181030,359.311981 
	C1325.181030,361.130493 1325.181030,362.949036 1325.181030,365.187744 
	C1307.727539,367.911835 1290.571533,367.787323 1273.026978,365.203247 
	C1273.026978,363.124084 1273.026978,361.321198 1273.026978,359.518341 
	C1273.026855,326.685394 1273.036255,293.852478 1273.013428,261.019531 
	C1273.010864,257.356567 1272.824341,253.693741 1272.651367,249.585663 
z"/>
<path fill="#00917c" opacity="1.000000" stroke="none" 
	d="
M2152.725342,201.063690 
	C2166.457520,207.456726 2172.768799,218.690796 2172.899658,232.731552 
	C2173.309082,276.684021 2173.049805,320.642731 2173.049805,365.139679 
	C2155.800293,368.144836 2138.531250,367.803223 2120.928467,365.227020 
	C2120.928467,362.215668 2120.928467,359.566772 2120.928467,356.917877 
	C2120.928467,324.599762 2120.928467,292.281616 2120.928223,259.963501 
	C2120.928223,258.797394 2120.936768,257.631165 2120.926270,256.465149 
	C2120.785889,240.917099 2116.327637,236.360977 2100.199219,235.881973 
	C2097.100098,223.912201 2097.506592,211.876633 2100.199219,199.296005 
	C2117.731689,199.357666 2135.154785,195.141037 2152.725342,201.063690 
z"/>
<path fill="#00917c" opacity="1.000000" stroke="none" 
	d="
M322.429626,254.488342 
	C316.047150,271.866455 309.896149,288.916473 303.513214,305.879211 
	C302.915924,307.466522 300.860809,309.620758 299.469849,309.630127 
	C267.856842,309.843536 236.242081,309.794342 204.150574,309.794342 
	C207.960464,299.287689 211.622375,289.151520 215.311310,279.025208 
	C220.319885,265.276367 225.379959,251.546158 230.339752,237.779785 
	C231.188431,235.424225 231.994461,233.951950 235.097321,233.966507 
	C266.420166,234.113647 297.743988,234.056168 329.824341,234.056168 
	C327.335907,240.970352 324.966675,247.553329 322.429626,254.488342 
z"/>
<path fill="#00917c" opacity="1.000000" stroke="none" 
	d="
M349.994202,138.151321 
	C322.179626,138.151321 294.864014,138.151321 266.903839,138.151321 
	C275.780670,113.900673 284.497650,90.086731 293.258118,66.153931 
	C325.801788,66.153931 358.270142,66.153931 391.333984,66.153931 
	C388.786957,73.195572 386.338745,80.019875 383.851288,86.829834 
	C378.146454,102.447815 372.326294,118.024788 366.784210,133.700180 
	C365.616913,137.001678 364.213440,138.649979 360.481995,138.228912 
	C357.191376,137.857590 353.825745,138.151276 349.994202,138.151321 
z"/>
<path fill="#00917c" opacity="1.000000" stroke="none" 
	d="
M336.005341,309.839264 
	C330.517090,309.839264 325.527313,309.839264 319.932281,309.839264 
	C323.977264,298.748505 327.908844,288.021667 331.801971,277.280853 
	C336.613037,264.007568 341.396667,250.724289 346.180420,237.441101 
	C346.920319,235.386520 347.509796,233.733810 350.480408,233.748718 
	C378.800720,233.890869 407.121979,233.839630 435.442963,233.859955 
	C435.910339,233.860291 436.377594,234.061203 437.302185,234.273529 
	C432.540771,247.306335 427.823456,260.220490 423.104523,273.134094 
	C419.513702,282.960785 415.773438,292.736328 412.389069,302.633575 
	C410.615936,307.818939 407.421844,309.937347 401.974976,309.900360 
	C380.152130,309.752197 358.327698,309.839233 336.005341,309.839264 
z"/>
<path fill="#00917c" opacity="1.000000" stroke="none" 
	d="
M172.982330,309.838898 
	C152.169571,309.838867 131.853928,309.857300 111.538368,309.830597 
	C102.065765,309.818176 98.685722,304.938202 101.948570,295.899261 
	C108.994621,276.379852 116.063332,256.868103 123.295509,237.417435 
	C123.837204,235.960587 125.746445,233.990616 127.031693,233.981842 
	C155.827911,233.785660 184.625778,233.831390 214.010910,233.831390 
	C209.471252,246.355942 205.099182,258.472534 200.687256,270.574585 
	C196.536133,281.961304 192.140884,293.264740 188.279236,304.748169 
	C186.949677,308.701904 185.194473,310.493286 180.964096,309.901154 
	C178.514328,309.558258 175.977264,309.838867 172.982330,309.838898 
z"/>
<path fill="#00917c" opacity="1.000000" stroke="none" 
	d="
M171.551208,104.531288 
	C175.621048,93.590256 179.543701,83.008842 183.388870,72.399353 
	C184.825470,68.435547 187.115829,65.958252 191.725677,65.970322 
	C219.023529,66.041840 246.321655,66.008026 273.619690,66.026337 
	C274.061188,66.026634 274.502594,66.237610 275.401886,66.467102 
	C270.621338,79.510223 265.886688,92.404671 261.169617,105.305557 
	C257.579559,115.124199 254.107391,124.988091 250.328598,134.733292 
	C249.775909,136.158600 247.816254,138.014191 246.496811,138.022842 
	C217.711227,138.211578 188.924103,138.166718 159.201187,138.166718 
	C163.375458,126.751328 167.374344,115.815544 171.551208,104.531288 
z"/>
<path fill="#00917c" opacity="1.000000" stroke="none" 
	d="
M441.000000,65.999184 
	C455.821381,65.999214 470.142792,65.977226 484.464081,66.007256 
	C493.526825,66.026253 496.860870,70.775887 493.756256,79.271873 
	C487.032440,97.672073 480.234283,116.045181 473.543457,134.457321 
	C472.681122,136.830383 471.868164,138.274582 468.775848,138.257294 
	C440.800110,138.101044 412.823181,138.162247 384.846588,138.148407 
	C384.358337,138.148163 383.870178,138.007812 382.839447,137.849518 
	C391.598816,113.923195 400.305634,90.140419 409.143677,65.999184 
	C419.610077,65.999184 430.055023,65.999184 441.000000,65.999184 
z"/>
<path fill="#00917c" opacity="1.000000" stroke="none" 
	d="
M268.999756,217.662842 
	C258.514709,217.662827 248.529663,217.662827 237.864075,217.662827 
	C239.260941,213.813995 240.536926,210.288300 241.819824,206.765137 
	C247.673920,190.688339 253.473572,174.591110 259.479004,158.571045 
	C260.033508,157.091766 261.895996,155.051773 263.162140,155.043915 
	C294.779510,154.847641 326.398407,154.889847 358.865753,154.889847 
	C351.136780,176.007919 343.580322,196.654617 335.891541,217.662842 
	C313.673309,217.662842 291.586548,217.662842 268.999756,217.662842 
z"/>
<path fill="#00917c" opacity="1.000000" stroke="none" 
	d="
M281.342377,407.949860 
	C281.342377,379.863983 281.342377,352.269348 281.342377,324.388397 
	C302.891479,324.388397 324.103760,324.388397 345.617615,324.388397 
	C345.617615,355.355957 345.617615,386.375671 345.617615,417.680817 
	C324.417053,417.680817 303.190674,417.680817 281.342377,417.680817 
	C281.342377,414.650604 281.342377,411.545868 281.342377,407.949860 
z"/>
<path fill="#00917c" opacity="1.000000" stroke="none" 
	d="
M458.805176,174.839630 
	C453.914948,188.150116 449.231506,201.121658 444.262390,213.982834 
	C443.669617,215.517029 441.527527,217.496597 440.091278,217.506592 
	C411.787628,217.703537 383.482147,217.640533 355.177063,217.614822 
	C354.894043,217.614563 354.611237,217.404846 353.867157,217.110474 
	C357.205353,207.954330 360.546997,198.794830 363.884277,189.633743 
	C367.694611,179.173889 371.410889,168.677826 375.414825,158.292664 
	C375.960938,156.876144 377.928772,155.039841 379.248230,155.031830 
	C407.718781,154.858688 436.190765,154.917343 464.662445,154.945023 
	C464.971161,154.945312 465.279724,155.128326 465.892609,155.322357 
	C463.566986,161.713394 461.246429,168.090424 458.805176,174.839630 
z"/>
<path fill="#00917c" opacity="1.000000" stroke="none" 
	d="
M158.262512,154.888062 
	C186.677856,154.888031 214.622498,154.888031 243.046860,154.888031 
	C237.147278,171.035187 231.431824,186.772995 225.637604,202.481766 
	C223.805618,207.448517 223.068741,214.200638 219.449081,216.737366 
	C215.841949,219.265320 209.246765,217.635696 203.961365,217.644791 
	C179.835007,217.686310 155.708542,217.663010 130.948196,217.663010 
	C131.402573,216.050461 131.691513,214.698547 132.159882,213.411957 
	C138.806351,195.154938 145.553497,176.933960 152.067123,158.629807 
	C153.154922,155.572968 154.669800,154.286987 158.262512,154.888062 
z"/>
<path fill="#00917c" opacity="1.000000" stroke="none" 
	d="
M2156.730713,129.092346 
	C2163.066650,130.416275 2165.863037,134.293243 2167.010254,140.085693 
	C2168.858398,149.418549 2168.970947,158.619446 2165.556396,167.564896 
	C2164.843994,169.431473 2162.939941,171.499039 2161.105713,172.177261 
	C2147.255615,177.298111 2133.151855,177.575089 2119.190430,172.790894 
	C2116.822754,171.979584 2114.289062,169.267502 2113.427246,166.862076 
	C2109.785156,156.694214 2109.892090,146.278091 2113.580811,136.112473 
	C2114.317871,134.081207 2116.312988,131.864853 2118.279541,131.025848 
	C2130.660400,125.743782 2143.450195,125.917145 2156.730713,129.092346 
z"/>
<path fill="#FBFBFB" opacity="1.000000" stroke="none" 
	d="
M1178.802734,315.804871 
	C1179.781250,321.027191 1177.801392,324.308868 1173.568726,326.235870 
	C1169.233032,328.209808 1164.944702,330.900543 1160.372559,331.630493 
	C1144.814941,334.114288 1136.737305,324.829803 1140.280884,309.244751 
	C1142.214722,300.740265 1148.548950,295.470856 1157.816528,295.128448 
	C1164.600342,294.877808 1171.400879,295.079346 1178.802490,295.079346 
	C1178.802490,302.492493 1178.802490,308.912750 1178.802734,315.804871 
z"/>
<path fill="#FDFDFD" opacity="1.000000" stroke="none" 
	d="
M877.516418,329.892517 
	C869.313965,326.095306 866.476929,318.927948 865.236145,311.269257 
	C862.189636,292.463318 861.590393,273.548553 864.990234,254.700974 
	C865.625793,251.177368 867.009766,247.670242 868.660278,244.471237 
	C873.009521,236.041855 879.755981,232.424408 888.515137,233.328049 
	C898.317871,234.339371 903.406860,238.397583 906.022217,248.266037 
	C911.754089,269.893860 911.567566,291.769440 906.775208,313.437256 
	C903.399475,328.700531 892.973450,334.146667 877.516418,329.892517 
z"/>
<path fill="#FCFCFC" opacity="1.000000" stroke="none" 
	d="
M1741.001221,263.167877 
	C1735.367554,263.167877 1730.233521,263.167877 1723.606689,263.167877 
	C1725.421265,255.770004 1726.507324,248.785751 1728.891479,242.277008 
	C1731.796265,234.347183 1738.570801,231.243500 1746.725464,231.244629 
	C1755.745483,231.245865 1762.831055,235.838745 1765.769043,244.582214 
	C1767.680908,250.271530 1768.177856,256.436279 1769.456909,263.167877 
	C1759.350098,263.167877 1750.425415,263.167877 1741.001221,263.167877 
z"/>
</svg>