
<svg version="1.1" id="Layer_1" xmlns="http://www.w3.org/2000/svg" xmlns:xlink="http://www.w3.org/1999/xlink" x="0px" y="0px"
	 width="100%" viewBox="250 100 500 664" enable-background="new 0 0 1024 864" xml:space="preserve">
<path fill="#000000" opacity="1.000000" stroke="none" 
	d="
M583.723145,663.680725 
	C564.582397,688.503723 545.472656,712.900330 524.816956,736.016479 
	C514.302551,747.783386 500.488770,747.629578 490.234283,735.734131 
	C435.181427,671.871338 384.622040,604.721802 342.504120,531.520264 
	C323.207611,497.982574 306.152374,463.318024 293.375122,426.695740 
	C283.512177,398.426514 276.320312,369.485229 276.134857,339.431610 
	C275.966736,312.183014 280.465179,285.534851 289.809113,259.708893 
	C299.451477,233.058212 313.264099,208.913666 331.631317,187.465973 
	C358.752228,155.796494 392.036194,132.983597 431.457306,119.091339 
	C456.228638,110.361755 481.766663,106.074295 507.886902,106.250832 
	C565.235168,106.638412 615.872131,125.588715 659.311829,163.148651 
	C694.154236,193.275070 717.716125,230.755859 730.362366,274.964661 
	C738.315979,302.768768 740.594482,331.160828 737.496826,359.984589 
	C733.792664,394.451141 723.088196,426.911255 709.446045,458.506012 
	C686.434998,511.798828 656.600464,561.229126 623.745911,608.929382 
	C610.984558,627.457031 597.871460,645.724731 583.723145,663.680725 
M566.209717,238.339401 
	C510.529602,205.737732 440.756775,224.082428 407.838593,279.978363 
	C375.841461,334.310364 394.548126,404.385345 449.814453,437.219727 
	C502.811981,468.706177 574.373352,450.332245 605.995056,397.808502 
	C639.754944,341.733093 620.932068,271.186676 566.209717,238.339401 
z"/>
</svg>