
<svg version="1.1" id="Layer_1" xmlns="http://www.w3.org/2000/svg" xmlns:xlink="http://www.w3.org/1999/xlink" x="0px" y="0px"
	 width="100%" viewBox="250 190 1220 990" enable-background="new 0 0 1662 1416" xml:space="preserve">
<path fill="#FFFFFF" opacity="0.000000" stroke="none" 
	d="
M986.000000,1417.000000 
	C657.333374,1417.000000 329.166779,1417.000000 1.000132,1417.000000 
	C1.000088,945.000122 1.000088,473.000275 1.000044,1.000322 
	C554.999756,1.000215 1108.999512,1.000215 1662.999512,1.000107 
	C1662.999634,472.999664 1662.999634,944.999329 1662.999756,1416.999512 
	C1437.500000,1417.000000 1212.000000,1417.000000 986.000000,1417.000000 
M1235.499878,203.999496 
	C1017.334656,203.999496 799.169373,203.999481 581.004150,203.999512 
	C547.170959,203.999512 513.337036,204.135529 479.504700,203.961899 
	C444.877319,203.784195 416.825836,217.431320 394.985840,243.933655 
	C384.057159,257.195343 378.182098,272.934235 374.949921,289.663788 
	C367.092072,330.335693 359.325378,371.025238 351.538239,411.710785 
	C339.685181,473.639221 327.847290,535.570557 316.000305,597.500183 
	C304.465942,657.795410 292.951935,718.094543 281.377930,778.382141 
	C277.797791,797.030762 273.969177,815.580872 276.961792,834.802307 
	C281.651886,864.926514 296.447388,888.569214 321.474579,905.839539 
	C340.377625,918.883728 361.705414,923.945190 384.310455,923.958374 
	C526.643250,924.041199 668.976074,924.000305 811.308899,924.000305 
	C813.222839,924.000305 815.136841,924.000366 816.935059,924.000366 
	C816.935059,974.356384 816.935059,1023.967957 816.935059,1073.999756 
	C814.920044,1073.999756 813.126526,1073.999756 811.333008,1073.999756 
	C766.166504,1073.999756 720.999939,1073.969482 675.833557,1074.042969 
	C670.860596,1074.051025 665.823181,1074.254639 660.928040,1075.055054 
	C644.939575,1077.668701 632.735229,1085.519531 626.385620,1101.067749 
	C619.708313,1117.418579 621.917297,1132.936768 632.082581,1146.885254 
	C641.473816,1159.771729 655.667847,1163.900391 670.842041,1163.917725 
	C797.841431,1164.062622 924.841064,1164.054199 1051.840332,1163.854492 
	C1058.863892,1163.843506 1066.119995,1162.502563 1072.864258,1160.453003 
	C1099.523071,1152.351685 1111.410156,1116.698120 1092.696777,1091.748047 
	C1083.079102,1078.925171 1069.449829,1074.183350 1054.217163,1074.097290 
	C1007.052246,1073.830566 959.884766,1073.999756 912.718262,1073.999756 
	C910.958618,1073.999756 909.198914,1073.999756 907.542542,1073.999756 
	C907.542542,1023.611511 907.542542,973.893860 907.542542,924.000366 
	C909.917175,924.000366 911.912537,924.000305 913.907959,924.000305 
	C1056.074097,924.000305 1198.240234,924.044556 1340.406372,923.948608 
	C1359.809204,923.935486 1378.558716,920.233215 1395.572632,910.458618 
	C1435.943604,887.265198 1455.619995,842.306396 1446.552979,796.167969 
	C1438.372681,754.541138 1430.828247,712.789307 1423.000610,671.093079 
	C1412.164551,613.372070 1401.322754,555.652100 1390.488892,497.930664 
	C1378.979980,436.611206 1367.427856,375.299774 1356.000854,313.965057 
	C1352.370239,294.478546 1349.253662,274.872253 1338.799683,257.485962 
	C1324.812012,234.222610 1305.281738,217.688461 1279.469604,208.873215 
	C1265.518188,204.108612 1251.029785,203.804855 1235.499878,203.999496 
z"/>
<path fill="#4B5563" opacity="1.000000" stroke="none" 
	d="
M1235.999756,203.999496 
	C1251.029785,203.804855 1265.518188,204.108612 1279.469604,208.873215 
	C1305.281738,217.688461 1324.812012,234.222610 1338.799683,257.485962 
	C1349.253662,274.872253 1352.370239,294.478546 1356.000854,313.965057 
	C1367.427856,375.299774 1378.979980,436.611206 1390.488892,497.930664 
	C1401.322754,555.652100 1412.164551,613.372070 1423.000610,671.093079 
	C1430.828247,712.789307 1438.372681,754.541138 1446.552979,796.167969 
	C1455.619995,842.306396 1435.943604,887.265198 1395.572632,910.458618 
	C1378.558716,920.233215 1359.809204,923.935486 1340.406372,923.948608 
	C1198.240234,924.044556 1056.074097,924.000305 913.907959,924.000305 
	C911.912537,924.000305 909.917175,924.000366 907.542542,924.000366 
	C907.542542,973.893860 907.542542,1023.611511 907.542542,1073.999756 
	C909.198914,1073.999756 910.958618,1073.999756 912.718262,1073.999756 
	C959.884766,1073.999756 1007.052246,1073.830566 1054.217163,1074.097290 
	C1069.449829,1074.183350 1083.079102,1078.925171 1092.696777,1091.748047 
	C1111.410156,1116.698120 1099.523071,1152.351685 1072.864258,1160.453003 
	C1066.119995,1162.502563 1058.863892,1163.843506 1051.840332,1163.854492 
	C924.841064,1164.054199 797.841431,1164.062622 670.842041,1163.917725 
	C655.667847,1163.900391 641.473816,1159.771729 632.082581,1146.885254 
	C621.917297,1132.936768 619.708313,1117.418579 626.385620,1101.067749 
	C632.735229,1085.519531 644.939575,1077.668701 660.928040,1075.055054 
	C665.823181,1074.254639 670.860596,1074.051025 675.833557,1074.042969 
	C720.999939,1073.969482 766.166504,1073.999756 811.333008,1073.999756 
	C813.126526,1073.999756 814.920044,1073.999756 816.935059,1073.999756 
	C816.935059,1023.967957 816.935059,974.356384 816.935059,924.000366 
	C815.136841,924.000366 813.222839,924.000305 811.308899,924.000305 
	C668.976074,924.000305 526.643250,924.041199 384.310455,923.958374 
	C361.705414,923.945190 340.377625,918.883728 321.474579,905.839539 
	C296.447388,888.569214 281.651886,864.926514 276.961792,834.802307 
	C273.969177,815.580872 277.797791,797.030762 281.377930,778.382141 
	C292.951935,718.094543 304.465942,657.795410 316.000305,597.500183 
	C327.847290,535.570557 339.685181,473.639221 351.538239,411.710785 
	C359.325378,371.025238 367.092072,330.335693 374.949921,289.663788 
	C378.182098,272.934235 384.057159,257.195343 394.985840,243.933655 
	C416.825836,217.431320 444.877319,203.784195 479.504700,203.961899 
	C513.337036,204.135529 547.170959,203.999512 581.004150,203.999512 
	C799.169373,203.999481 1017.334656,203.999496 1235.999756,203.999496 
M1022.296997,822.125366 
	C1015.214966,746.219482 1008.132874,670.313538 1001.049622,594.394531 
	C908.928589,594.394531 817.079712,594.394531 725.195557,594.394531 
	C717.110840,674.388428 709.065308,753.995239 701.006958,833.728455 
	C808.650940,833.728455 915.878784,833.728455 1023.364197,833.728455 
	C1023.039001,829.971619 1022.738892,826.503723 1022.296997,822.125366 
M630.918701,622.331665 
	C631.727600,613.067993 632.536560,603.804321 633.360962,594.364136 
	C557.519287,594.364136 481.978821,594.364136 406.422882,594.364136 
	C397.578278,642.191467 388.791870,689.668457 380.020691,737.148254 
	C375.185089,763.324219 370.362946,789.502747 365.559875,815.684753 
	C363.763397,825.477356 367.657196,831.265991 377.501343,833.322937 
	C379.755615,833.794006 382.109741,833.971497 384.418060,833.972534 
	C458.075256,834.005127 531.732422,833.999329 605.389648,833.999329 
	C607.189331,833.999329 608.989075,833.999329 610.965088,833.999329 
	C611.830627,824.813538 612.663086,816.045959 613.481934,807.277100 
	C617.012695,769.466492 620.517151,731.653442 624.075806,693.845459 
	C626.291260,670.308899 628.586548,646.779846 630.918701,622.331665 
M1244.500000,833.999329 
	C1250.000000,833.999329 1255.500000,833.999329 1261.000000,833.999329 
	C1287.999390,833.999268 1314.998901,834.072754 1341.997925,833.967773 
	C1355.239990,833.916321 1360.763184,826.907104 1358.377808,814.039917 
	C1347.546143,755.612122 1336.787354,697.170715 1325.999268,638.734741 
	C1323.258667,623.889343 1320.507446,609.045837 1317.786377,594.338013 
	C1241.903320,594.338013 1166.512939,594.338013 1091.009521,594.338013 
	C1099.095825,674.330139 1107.147095,753.976135 1115.236572,833.999329 
	C1158.239990,833.999329 1200.869995,833.999329 1244.500000,833.999329 
M821.500000,293.999939 
	C799.413696,293.999939 777.327393,293.999939 755.229004,293.999939 
	C747.695374,364.317780 740.237732,433.926758 732.754639,503.773193 
	C819.205811,503.773193 905.091431,503.773193 991.451965,503.773193 
	C984.612793,433.717316 977.799988,363.932281 970.972839,293.999939 
	C921.091614,293.999939 871.795837,293.999939 821.500000,293.999939 
M1076.503662,293.999847 
	C1071.380981,293.999847 1066.258179,293.999847 1060.975830,293.999847 
	C1067.835693,364.235870 1074.642944,433.934265 1081.453003,503.661987 
	C1154.845825,503.661987 1227.814087,503.661987 1300.949829,503.661987 
	C1297.590942,487.069366 1294.278687,470.839172 1291.022583,454.597656 
	C1281.194336,405.573975 1271.426147,356.538147 1261.543457,307.525452 
	C1259.286011,296.329987 1256.215820,294.001801 1244.909302,294.001190 
	C1189.106812,293.998199 1133.304443,293.999847 1076.503662,293.999847 
M650.002930,430.457031 
	C654.474243,385.129120 658.945557,339.801239 663.443115,294.207520 
	C661.808105,294.120758 660.669434,294.008331 659.530762,294.007690 
	C640.540344,293.996796 621.549988,293.999847 602.559570,293.999847 
	C561.580261,293.999878 520.600952,293.983124 479.621674,294.011322 
	C468.755463,294.018799 465.028381,297.010406 462.772369,307.662659 
	C461.050171,315.794525 459.563965,323.976715 458.001892,332.142059 
	C449.107941,378.633606 440.211304,425.124664 431.343201,471.621155 
	C429.308838,482.287506 427.382935,492.974548 425.400513,503.687775 
	C498.169739,503.687775 570.392029,503.687775 642.746521,503.687775 
	C645.165161,479.384857 647.554443,455.377625 650.002930,430.457031 
z"/>
</svg>