
<svg version="1.1" id="Layer_1" xmlns="http://www.w3.org/2000/svg" xmlns:xlink="http://www.w3.org/1999/xlink" x="0px" y="0px"
	 width="100%" viewBox="50 100 1560 250" enable-background="new 0 0 1678 410" xml:space="preserve">
<path fill="#FEFEFE" opacity="0.000000" stroke="none" 
	d="
M1214.000000,411.000000 
	C809.381653,411.000000 405.263275,411.000000 1.072451,411.000000 
	C1.072451,274.398010 1.072451,137.795944 1.072451,1.096950 
	C560.333313,1.096950 1119.666626,1.096950 1678.971680,1.096950 
	C1678.971680,137.737000 1678.971680,274.368500 1678.971680,411.000000 
	C1524.129028,411.000000 1369.314453,411.000000 1214.000000,411.000000 
M517.941345,196.540161 
	C497.995789,175.679794 478.050262,154.819443 457.351685,133.171539 
	C457.013916,135.514877 456.759216,136.458588 456.758881,137.402374 
	C456.736420,197.059616 456.758087,256.716888 456.675903,316.374054 
	C456.670654,320.193817 458.135254,321.390015 461.761475,321.106506 
	C464.905426,320.860687 468.108185,320.850647 471.245148,321.151581 
	C476.093811,321.616730 477.433441,319.689484 477.412109,314.884583 
	C477.228455,273.558136 477.296600,232.230545 477.309265,190.903305 
	C477.309784,189.180176 477.504547,187.457092 477.608826,185.733994 
	C478.121765,185.459061 478.634735,185.184128 479.147675,184.909195 
	C524.749451,232.623886 570.351257,280.338562 615.953064,328.053253 
	C616.412354,327.846710 616.871582,327.640198 617.330811,327.433655 
	C617.330811,325.839417 617.330811,324.245209 617.330750,322.650970 
	C617.329773,266.659210 617.328491,210.667465 617.327759,154.675720 
	C617.327515,140.560623 617.328247,140.560638 603.128418,140.664230 
	C596.966553,140.709183 596.832397,140.878830 596.833313,147.259048 
	C596.839294,188.585159 596.836243,229.911285 596.814880,271.237396 
	C596.813965,272.965973 596.601501,274.694458 596.487488,276.422974 
	C595.953064,276.727692 595.418640,277.032410 594.884216,277.337128 
	C569.398865,250.573349 543.913452,223.809586 517.941345,196.540161 
M955.649353,316.993988 
	C963.434021,312.655548 971.945435,309.243408 978.870605,303.809662 
	C1002.118896,285.568268 1013.361938,260.958710 1013.692688,231.616287 
	C1013.880188,214.981888 1009.951599,199.154922 1001.558044,184.507599 
	C992.265564,168.291550 979.111877,156.250092 962.498535,148.156509 
	C945.454590,139.853165 927.415894,137.070404 908.390076,139.049744 
	C887.378296,141.235672 869.289246,149.508636 854.324402,163.949158 
	C834.271362,183.299591 824.712646,207.160645 825.818054,235.286072 
	C826.673950,257.062286 834.153015,276.087189 848.630127,292.158234 
	C864.251892,309.500031 883.439392,320.309845 907.067688,322.952515 
	C923.565002,324.797607 939.465027,323.302551 955.649353,316.993988 
M1395.500366,301.837708 
	C1385.500854,301.837494 1375.497803,301.684937 1365.503418,301.910980 
	C1361.429810,302.003143 1359.906250,300.733551 1359.940918,296.527374 
	C1360.102051,276.862274 1360.115112,257.194244 1359.937012,237.529449 
	C1359.896973,233.101273 1361.456665,231.820389 1365.768799,231.870514 
	C1383.099609,232.071991 1400.434448,232.029785 1417.767090,231.933884 
	C1432.989258,231.849655 1430.535522,234.033783 1430.997803,218.622879 
	C1431.146118,213.677078 1429.378784,212.367477 1424.668701,212.417068 
	C1405.004395,212.624161 1385.336670,212.471146 1365.670410,212.534897 
	C1362.290649,212.545853 1359.897461,212.218384 1359.950439,207.804947 
	C1360.124634,193.307251 1360.101074,178.805252 1359.954224,164.306931 
	C1359.916992,160.636749 1361.551636,159.769821 1364.794678,159.824905 
	C1372.125732,159.949402 1379.460449,159.859619 1386.793701,159.859665 
	C1400.460205,159.859772 1414.127197,159.801941 1427.792847,159.904816 
	C1431.231689,159.930695 1433.220947,159.084167 1432.939819,155.142822 
	C1432.703125,151.825729 1432.731567,148.472992 1432.895874,145.148544 
	C1433.070312,141.615479 1431.488159,140.570801 1428.115967,140.581314 
	C1400.116577,140.668610 1372.116577,140.678497 1344.117310,140.574097 
	C1340.294312,140.559860 1338.816162,141.751358 1338.822754,145.742477 
	C1338.915527,202.568573 1338.913574,259.394897 1338.823975,316.221039 
	C1338.817993,320.059143 1340.385742,321.169769 1343.896851,321.105072 
	C1350.723633,320.979248 1357.554443,321.077179 1364.383667,321.084503 
	C1385.536133,321.107208 1406.688843,321.093475 1427.841064,321.190796 
	C1431.369141,321.207031 1433.190186,320.052734 1432.908325,316.266296 
	C1432.698486,313.445953 1432.427856,310.560333 1432.788818,307.782349 
	C1433.458496,302.630585 1431.085693,301.617706 1426.497681,301.747253 
	C1416.505737,302.029297 1406.500366,301.836792 1395.500366,301.837708 
M100.113258,153.592117 
	C84.725281,169.019165 81.730652,203.315887 108.895058,219.719589 
	C112.592560,221.952377 116.238701,224.318665 120.114677,226.198212 
	C131.042465,231.497314 142.267563,236.213409 153.009445,241.856094 
	C161.390732,246.258774 168.583328,252.357788 170.776016,262.297089 
	C174.150467,277.593170 168.102036,291.234009 154.608353,299.393402 
	C141.354050,307.408081 125.031281,306.477142 113.496902,296.990387 
	C106.997490,291.644745 102.727638,284.892914 100.604065,276.703369 
	C100.051811,274.573639 100.032066,271.221466 96.064560,272.333893 
	C91.578880,273.591583 86.994637,274.586426 82.660522,276.239105 
	C81.444321,276.702881 80.000648,279.302612 80.289093,280.544495 
	C82.464287,289.909760 86.427238,298.514069 93.039856,305.625488 
	C119.060989,333.609406 163.582336,329.715424 184.200684,297.523468 
	C195.915146,279.233398 197.668930,249.810944 175.993774,232.893082 
	C168.351105,226.927811 159.293182,222.699036 150.651550,218.110367 
	C140.535583,212.738846 129.599609,208.718628 120.043785,202.530334 
	C105.638908,193.201828 105.770149,174.121613 119.389244,163.571854 
	C132.773956,153.203659 150.801025,154.646240 162.769958,167.041107 
	C165.464813,169.831879 167.986374,174.603058 170.912933,174.867828 
	C174.098633,175.156067 177.687317,171.296768 181.056686,169.176361 
	C186.184219,165.949493 186.246689,165.494858 182.683563,160.311676 
	C163.943298,133.050430 124.369507,129.569092 100.113258,153.592117 
M769.477478,230.933258 
	C772.995605,226.751511 777.108276,222.934586 779.934875,218.328445 
	C797.475403,189.744965 783.555603,145.414200 743.417664,141.921082 
	C728.859314,140.654099 714.159607,140.960861 699.521973,140.676682 
	C691.848572,140.527710 691.977417,140.651718 691.987854,148.518372 
	C692.037781,186.147659 692.011902,223.777023 692.009949,261.406372 
	C692.009033,279.390289 692.041992,297.374390 691.965454,315.358002 
	C691.948425,319.371246 692.941223,321.707733 697.680786,321.133881 
	C701.126648,320.716736 704.678772,320.855713 708.156738,321.111237 
	C712.057007,321.397827 713.107910,319.559906 712.992920,316.049042 
	C712.824036,310.891235 712.912292,305.724731 712.903198,300.561951 
	C712.871948,282.911438 712.934692,265.260010 712.751587,247.611099 
	C712.709351,243.541290 713.953125,241.861542 718.181458,242.181946 
	C722.322693,242.495758 726.507263,242.296783 730.671570,242.234344 
	C744.389343,242.028656 757.530762,239.757019 769.477478,230.933258 
M1064.187012,141.211639 
	C1063.835571,140.857895 1063.495605,140.208313 1063.130981,140.194183 
	C1056.041138,139.919357 1048.946045,139.594208 1041.859741,139.716934 
	C1041.228760,139.727875 1039.740845,143.069855 1040.183594,144.323563 
	C1046.374634,161.855637 1052.771973,179.316040 1059.244385,196.747299 
	C1064.795166,211.696381 1070.695068,226.517792 1076.105713,241.516449 
	C1086.302734,269.782898 1096.229126,298.146820 1106.402832,326.421692 
	C1106.900269,327.803864 1108.685791,328.722595 1109.871460,329.857117 
	C1110.909546,328.744659 1112.393799,327.810150 1112.919312,326.493195 
	C1121.645874,304.618195 1130.220947,282.682831 1138.895386,260.786896 
	C1145.931519,243.025925 1153.016724,225.284058 1160.163818,207.567429 
	C1162.226318,202.454803 1164.577271,197.458572 1167.140625,191.624680 
	C1168.479248,193.408997 1169.351440,194.196121 1169.761963,195.176605 
	C1173.995605,205.287735 1178.241333,215.395340 1182.318359,225.570206 
	C1195.802979,259.224060 1209.203613,292.911560 1222.712158,326.555695 
	C1223.327881,328.089417 1224.680054,329.327484 1226.166626,331.354279 
	C1227.416260,329.118591 1228.411743,327.783661 1228.962036,326.285309 
	C1235.830200,307.587006 1242.639648,288.867004 1249.453003,270.148590 
	C1258.599487,245.020599 1267.717041,219.882095 1276.884155,194.761658 
	C1282.978149,178.062057 1289.170410,161.398285 1295.238525,144.689316 
	C1296.443115,141.372070 1295.687866,139.130554 1291.487793,139.226471 
	C1286.657104,139.336823 1281.816895,139.379303 1276.990112,139.201523 
	C1273.205688,139.062134 1271.172241,140.771484 1270.040405,144.257080 
	C1268.302002,149.611130 1266.316528,154.884674 1264.458374,160.200241 
	C1252.292236,195.000778 1240.138672,229.805695 1227.946777,264.597229 
	C1227.457764,265.992432 1226.625366,267.267242 1225.456055,269.581329 
	C1224.303711,267.290039 1223.653809,266.197479 1223.182861,265.032684 
	C1209.985840,232.400253 1196.773682,199.773941 1183.644897,167.114166 
	C1179.426514,156.620422 1175.501099,146.008728 1171.266235,135.521851 
	C1170.655396,134.008911 1169.056152,132.895065 1167.914307,131.596573 
	C1166.785278,132.681259 1165.181274,133.560272 1164.607422,134.885376 
	C1161.771118,141.435226 1159.195557,148.098404 1156.549316,154.730103 
	C1143.619629,187.132187 1130.729004,219.549850 1117.741577,251.928787 
	C1115.434570,257.680603 1112.735840,263.275269 1110.218018,268.942535 
	C1109.776733,268.904510 1109.335449,268.866516 1108.894287,268.828522 
	C1094.133423,226.506210 1079.372559,184.183899 1064.187012,141.211639 
M271.263031,301.292603 
	C285.614929,318.245148 303.976746,325.106079 326.047607,324.841095 
	C354.752686,324.496399 387.645325,302.120392 388.213623,264.944885 
	C388.827301,224.800217 388.473145,184.640793 388.557526,144.487839 
	C388.564392,141.215515 387.163849,139.513351 383.749908,139.597549 
	C380.585632,139.675613 377.417786,139.604752 374.251526,139.606934 
	C365.567017,139.612915 365.569519,139.614456 365.562164,148.066452 
	C365.528931,186.227509 365.473724,224.388565 365.468842,262.549622 
	C365.466492,280.881714 357.039490,293.251831 340.152222,300.622772 
	C319.580688,309.601807 286.081421,299.768921 281.819458,272.634827 
	C281.278351,269.189941 280.662537,265.708160 280.635681,262.239136 
	C280.478271,241.910156 280.468811,221.579926 280.442413,201.250076 
	C280.418182,182.585754 280.377533,163.921051 280.481445,145.257278 
	C280.503601,141.283920 279.186066,139.338272 274.974213,139.566849 
	C271.152588,139.774261 267.301147,139.783005 263.480621,139.566040 
	C259.192841,139.322540 257.567810,140.997574 257.580475,145.371536 
	C257.694031,184.532089 257.434509,223.695053 257.780212,262.852936 
	C257.902588,276.711548 261.268860,289.907074 271.263031,301.292603 
M1521.739868,304.494629 
	C1521.739868,284.129059 1521.739868,263.763489 1521.739868,243.397919 
	C1522.389648,243.068573 1523.039307,242.739243 1523.689087,242.409897 
	C1524.204346,243.415741 1524.616333,244.492645 1525.251465,245.416000 
	C1529.674194,251.844955 1534.190186,258.210052 1538.588501,264.655548 
	C1550.765503,282.500488 1562.845947,300.411713 1575.128662,318.183350 
	C1576.430542,320.067108 1578.729614,322.318726 1580.719604,322.477631 
	C1587.508667,323.019653 1594.379639,322.953552 1601.191406,322.593262 
	C1604.043457,322.442474 1605.839722,320.552490 1603.581543,317.388184 
	C1589.406494,297.524170 1575.220947,277.667633 1561.083984,257.776489 
	C1557.315674,252.474258 1553.705444,247.059631 1550.152344,241.885513 
	C1555.092407,240.424622 1559.618652,239.390884 1563.920410,237.763870 
	C1589.387329,228.132019 1599.263672,195.983124 1590.717285,172.038666 
	C1583.135010,150.795105 1566.100586,142.383118 1545.334229,140.373611 
	C1532.123535,139.095261 1518.751221,139.433929 1505.448975,139.174957 
	C1498.221436,139.034225 1498.205078,139.154449 1498.204590,146.264786 
	C1498.200684,202.591492 1498.202148,258.918213 1498.203613,315.244904 
	C1498.203613,316.411285 1497.777832,317.887146 1498.327881,318.678436 
	C1499.409180,320.233826 1500.934937,322.398804 1502.459106,322.557220 
	C1507.239868,323.054108 1512.107910,322.831543 1516.937012,322.699799 
	C1520.162231,322.611847 1521.703369,320.655060 1521.723267,317.489716 
	C1521.748291,313.490326 1521.735718,309.490753 1521.739868,304.494629 
z"/>
<path fill="#9ca3af" opacity="1.000000" stroke="none" 
	d="
M518.184692,196.792984 
	C543.913452,223.809586 569.398865,250.573349 594.884216,277.337128 
	C595.418640,277.032410 595.953064,276.727692 596.487488,276.422974 
	C596.601501,274.694458 596.813965,272.965973 596.814880,271.237396 
	C596.836243,229.911285 596.839294,188.585159 596.833313,147.259048 
	C596.832397,140.878830 596.966553,140.709183 603.128418,140.664230 
	C617.328247,140.560638 617.327515,140.560623 617.327759,154.675720 
	C617.328491,210.667465 617.329773,266.659210 617.330750,322.650970 
	C617.330811,324.245209 617.330811,325.839417 617.330811,327.433655 
	C616.871582,327.640198 616.412354,327.846710 615.953064,328.053253 
	C570.351257,280.338562 524.749451,232.623886 479.147675,184.909195 
	C478.634735,185.184128 478.121765,185.459061 477.608826,185.733994 
	C477.504547,187.457092 477.309784,189.180176 477.309265,190.903305 
	C477.296600,232.230545 477.228455,273.558136 477.412109,314.884583 
	C477.433441,319.689484 476.093811,321.616730 471.245148,321.151581 
	C468.108185,320.850647 464.905426,320.860687 461.761475,321.106506 
	C458.135254,321.390015 456.670654,320.193817 456.675903,316.374054 
	C456.758087,256.716888 456.736420,197.059616 456.758881,137.402374 
	C456.759216,136.458588 457.013916,135.514877 457.351685,133.171539 
	C478.050262,154.819443 497.995789,175.679794 518.184692,196.792984 
z"/>
<path fill="#9ca3af" opacity="1.000000" stroke="none" 
	d="
M955.295837,317.160583 
	C939.465027,323.302551 923.565002,324.797607 907.067688,322.952515 
	C883.439392,320.309845 864.251892,309.500031 848.630127,292.158234 
	C834.153015,276.087189 826.673950,257.062286 825.818054,235.286072 
	C824.712646,207.160645 834.271362,183.299591 854.324402,163.949158 
	C869.289246,149.508636 887.378296,141.235672 908.390076,139.049744 
	C927.415894,137.070404 945.454590,139.853165 962.498535,148.156509 
	C979.111877,156.250092 992.265564,168.291550 1001.558044,184.507599 
	C1009.951599,199.154922 1013.880188,214.981888 1013.692688,231.616287 
	C1013.361938,260.958710 1002.118896,285.568268 978.870605,303.809662 
	C971.945435,309.243408 963.434021,312.655548 955.295837,317.160583 
M850.768738,251.539505 
	C855.792175,269.889099 866.608459,284.214478 882.926208,293.483734 
	C905.073792,306.064606 928.282654,306.048920 951.336975,295.518463 
	C981.147034,281.902313 997.332336,248.028503 989.479065,214.845825 
	C985.013245,195.976440 975.433472,180.998566 958.673401,170.982498 
	C934.512085,156.543320 909.596130,154.817215 884.444824,167.941788 
	C855.829712,182.873856 841.526428,218.444275 850.768738,251.539505 
z"/>
<path fill="#9ca3af" opacity="1.000000" stroke="none" 
	d="
M1396.000488,301.837982 
	C1406.500366,301.836792 1416.505737,302.029297 1426.497681,301.747253 
	C1431.085693,301.617706 1433.458496,302.630585 1432.788818,307.782349 
	C1432.427856,310.560333 1432.698486,313.445953 1432.908325,316.266296 
	C1433.190186,320.052734 1431.369141,321.207031 1427.841064,321.190796 
	C1406.688843,321.093475 1385.536133,321.107208 1364.383667,321.084503 
	C1357.554443,321.077179 1350.723633,320.979248 1343.896851,321.105072 
	C1340.385742,321.169769 1338.817993,320.059143 1338.823975,316.221039 
	C1338.913574,259.394897 1338.915527,202.568573 1338.822754,145.742477 
	C1338.816162,141.751358 1340.294312,140.559860 1344.117310,140.574097 
	C1372.116577,140.678497 1400.116577,140.668610 1428.115967,140.581314 
	C1431.488159,140.570801 1433.070312,141.615479 1432.895874,145.148544 
	C1432.731567,148.472992 1432.703125,151.825729 1432.939819,155.142822 
	C1433.220947,159.084167 1431.231689,159.930695 1427.792847,159.904816 
	C1414.127197,159.801941 1400.460205,159.859772 1386.793701,159.859665 
	C1379.460449,159.859619 1372.125732,159.949402 1364.794678,159.824905 
	C1361.551636,159.769821 1359.916992,160.636749 1359.954224,164.306931 
	C1360.101074,178.805252 1360.124634,193.307251 1359.950439,207.804947 
	C1359.897461,212.218384 1362.290649,212.545853 1365.670410,212.534897 
	C1385.336670,212.471146 1405.004395,212.624161 1424.668701,212.417068 
	C1429.378784,212.367477 1431.146118,213.677078 1430.997803,218.622879 
	C1430.535522,234.033783 1432.989258,231.849655 1417.767090,231.933884 
	C1400.434448,232.029785 1383.099609,232.071991 1365.768799,231.870514 
	C1361.456665,231.820389 1359.896973,233.101273 1359.937012,237.529449 
	C1360.115112,257.194244 1360.102051,276.862274 1359.940918,296.527374 
	C1359.906250,300.733551 1361.429810,302.003143 1365.503418,301.910980 
	C1375.497803,301.684937 1385.500854,301.837494 1396.000488,301.837982 
z"/>
<path fill="#9ca3af" opacity="1.000000" stroke="none" 
	d="
M100.361053,153.341797 
	C124.369507,129.569092 163.943298,133.050430 182.683563,160.311676 
	C186.246689,165.494858 186.184219,165.949493 181.056686,169.176361 
	C177.687317,171.296768 174.098633,175.156067 170.912933,174.867828 
	C167.986374,174.603058 165.464813,169.831879 162.769958,167.041107 
	C150.801025,154.646240 132.773956,153.203659 119.389244,163.571854 
	C105.770149,174.121613 105.638908,193.201828 120.043785,202.530334 
	C129.599609,208.718628 140.535583,212.738846 150.651550,218.110367 
	C159.293182,222.699036 168.351105,226.927811 175.993774,232.893082 
	C197.668930,249.810944 195.915146,279.233398 184.200684,297.523468 
	C163.582336,329.715424 119.060989,333.609406 93.039856,305.625488 
	C86.427238,298.514069 82.464287,289.909760 80.289093,280.544495 
	C80.000648,279.302612 81.444321,276.702881 82.660522,276.239105 
	C86.994637,274.586426 91.578880,273.591583 96.064560,272.333893 
	C100.032066,271.221466 100.051811,274.573639 100.604065,276.703369 
	C102.727638,284.892914 106.997490,291.644745 113.496902,296.990387 
	C125.031281,306.477142 141.354050,307.408081 154.608353,299.393402 
	C168.102036,291.234009 174.150467,277.593170 170.776016,262.297089 
	C168.583328,252.357788 161.390732,246.258774 153.009445,241.856094 
	C142.267563,236.213409 131.042465,231.497314 120.114677,226.198212 
	C116.238701,224.318665 112.592560,221.952377 108.895058,219.719589 
	C81.730652,203.315887 84.725281,169.019165 100.361053,153.341797 
z"/>
<path fill="#9ca3af" opacity="1.000000" stroke="none" 
	d="
M769.203796,231.151810 
	C757.530762,239.757019 744.389343,242.028656 730.671570,242.234344 
	C726.507263,242.296783 722.322693,242.495758 718.181458,242.181946 
	C713.953125,241.861542 712.709351,243.541290 712.751587,247.611099 
	C712.934692,265.260010 712.871948,282.911438 712.903198,300.561951 
	C712.912292,305.724731 712.824036,310.891235 712.992920,316.049042 
	C713.107910,319.559906 712.057007,321.397827 708.156738,321.111237 
	C704.678772,320.855713 701.126648,320.716736 697.680786,321.133881 
	C692.941223,321.707733 691.948425,319.371246 691.965454,315.358002 
	C692.041992,297.374390 692.009033,279.390289 692.009949,261.406372 
	C692.011902,223.777023 692.037781,186.147659 691.987854,148.518372 
	C691.977417,140.651718 691.848572,140.527710 699.521973,140.676682 
	C714.159607,140.960861 728.859314,140.654099 743.417664,141.921082 
	C783.555603,145.414200 797.475403,189.744965 779.934875,218.328445 
	C777.108276,222.934586 772.995605,226.751511 769.203796,231.151810 
M766.530273,185.312164 
	C765.091064,176.492020 761.506287,169.112473 752.962769,165.043182 
	C740.928833,159.311432 728.033569,159.809616 715.220093,160.019104 
	C714.391663,160.032639 712.903503,162.230103 712.893921,163.421051 
	C712.744812,182.079880 712.815430,200.740311 712.760254,219.400177 
	C712.751587,222.321198 713.818604,223.721313 716.864258,223.585098 
	C722.517517,223.332275 728.333679,223.971176 733.794434,222.844574 
	C741.012024,221.355530 748.627625,219.676727 754.864868,216.020096 
	C766.010132,209.486053 767.398376,197.982254 766.530273,185.312164 
z"/>
<path fill="#9ca3af" opacity="1.000000" stroke="none" 
	d="
M1064.399414,141.536621 
	C1079.372559,184.183899 1094.133423,226.506210 1108.894287,268.828522 
	C1109.335449,268.866516 1109.776733,268.904510 1110.218018,268.942535 
	C1112.735840,263.275269 1115.434570,257.680603 1117.741577,251.928787 
	C1130.729004,219.549850 1143.619629,187.132187 1156.549316,154.730103 
	C1159.195557,148.098404 1161.771118,141.435226 1164.607422,134.885376 
	C1165.181274,133.560272 1166.785278,132.681259 1167.914307,131.596558 
	C1169.056152,132.895065 1170.655396,134.008911 1171.266235,135.521851 
	C1175.501099,146.008728 1179.426514,156.620422 1183.644897,167.114166 
	C1196.773682,199.773941 1209.985840,232.400253 1223.182861,265.032684 
	C1223.653809,266.197479 1224.303711,267.290039 1225.456055,269.581329 
	C1226.625366,267.267242 1227.457764,265.992432 1227.946777,264.597229 
	C1240.138672,229.805695 1252.292236,195.000778 1264.458374,160.200241 
	C1266.316528,154.884674 1268.302002,149.611130 1270.040405,144.257080 
	C1271.172241,140.771484 1273.205688,139.062134 1276.990112,139.201523 
	C1281.816895,139.379303 1286.657104,139.336823 1291.487793,139.226471 
	C1295.687866,139.130554 1296.443115,141.372070 1295.238525,144.689316 
	C1289.170410,161.398285 1282.978149,178.062057 1276.884155,194.761658 
	C1267.717041,219.882095 1258.599487,245.020599 1249.453003,270.148590 
	C1242.639648,288.867004 1235.830200,307.587006 1228.962036,326.285309 
	C1228.411743,327.783661 1227.416260,329.118591 1226.166626,331.354279 
	C1224.680054,329.327484 1223.327881,328.089417 1222.712158,326.555695 
	C1209.203613,292.911560 1195.802979,259.224060 1182.318359,225.570206 
	C1178.241333,215.395340 1173.995605,205.287735 1169.761963,195.176605 
	C1169.351440,194.196121 1168.479248,193.408997 1167.140625,191.624680 
	C1164.577271,197.458572 1162.226318,202.454803 1160.163818,207.567429 
	C1153.016724,225.284058 1145.931519,243.025925 1138.895386,260.786896 
	C1130.220947,282.682831 1121.645874,304.618195 1112.919312,326.493195 
	C1112.393799,327.810150 1110.909546,328.744659 1109.871460,329.857117 
	C1108.685791,328.722595 1106.900269,327.803864 1106.402832,326.421692 
	C1096.229126,298.146820 1086.302734,269.782898 1076.105713,241.516449 
	C1070.695068,226.517792 1064.795166,211.696381 1059.244385,196.747299 
	C1052.771973,179.316040 1046.374634,161.855637 1040.183594,144.323563 
	C1039.740845,143.069855 1041.228760,139.727875 1041.859741,139.716934 
	C1048.946045,139.594208 1056.041138,139.919357 1063.130981,140.194183 
	C1063.495605,140.208313 1063.835571,140.857895 1064.399414,141.536621 
M1055.024902,178.395706 
	C1073.006592,227.673904 1090.988159,276.952087 1108.969849,326.230286 
	C1109.454102,326.205933 1109.938477,326.181580 1110.422729,326.157227 
	C1129.475342,279.637939 1147.482910,232.680435 1166.984985,186.349564 
	C1167.621216,186.407990 1168.257446,186.466415 1168.893677,186.524857 
	C1187.696167,233.372391 1206.498779,280.219940 1225.769287,328.233337 
	C1248.658813,265.367371 1270.985474,204.047379 1293.643433,141.817383 
	C1287.815796,141.817383 1283.015381,142.062576 1278.253784,141.738373 
	C1274.565430,141.487228 1272.841553,142.990936 1271.737915,146.323532 
	C1268.756958,155.324936 1265.548340,164.250961 1262.424805,173.205078 
	C1252.997681,200.229141 1243.589233,227.259750 1234.124878,254.270737 
	C1231.744629,261.063965 1229.182129,267.793304 1226.703491,274.552002 
	C1226.066406,274.591003 1225.429443,274.629974 1224.792358,274.668976 
	C1206.046387,228.309341 1187.300537,181.949722 1168.203247,134.721359 
	C1166.818481,136.655838 1165.961670,137.472061 1165.558716,138.471313 
	C1154.735474,165.318420 1143.968628,192.188217 1133.170898,219.045578 
	C1126.281006,236.182709 1119.390869,253.319931 1112.383667,270.409027 
	C1111.838257,271.739014 1110.366821,272.689209 1109.325806,273.815887 
	C1108.526978,272.668640 1107.426758,271.628418 1106.975464,270.357727 
	C1102.075928,256.562500 1097.282837,242.729523 1092.451660,228.909988 
	C1082.895752,201.575226 1073.367188,174.230789 1063.701538,146.934982 
	C1063.049683,145.094376 1061.464966,142.338684 1060.106812,142.210739 
	C1054.442139,141.677216 1048.698242,141.986130 1042.077148,141.986130 
	C1046.544678,154.591919 1050.635254,166.133881 1055.024902,178.395706 
z"/>
<path fill="#9ca3af" opacity="1.000000" stroke="none" 
	d="
M271.033813,301.022369 
	C261.268860,289.907074 257.902588,276.711548 257.780212,262.852936 
	C257.434509,223.695053 257.694031,184.532089 257.580475,145.371536 
	C257.567810,140.997574 259.192841,139.322540 263.480621,139.566040 
	C267.301147,139.783005 271.152588,139.774261 274.974213,139.566849 
	C279.186066,139.338272 280.503601,141.283920 280.481445,145.257278 
	C280.377533,163.921051 280.418182,182.585754 280.442413,201.250076 
	C280.468811,221.579926 280.478271,241.910156 280.635681,262.239136 
	C280.662537,265.708160 281.278351,269.189941 281.819458,272.634827 
	C286.081421,299.768921 319.580688,309.601807 340.152222,300.622772 
	C357.039490,293.251831 365.466492,280.881714 365.468842,262.549622 
	C365.473724,224.388565 365.528931,186.227509 365.562164,148.066452 
	C365.569519,139.614456 365.567017,139.612915 374.251526,139.606934 
	C377.417786,139.604752 380.585632,139.675613 383.749908,139.597549 
	C387.163849,139.513351 388.564392,141.215515 388.557526,144.487839 
	C388.473145,184.640793 388.827301,224.800217 388.213623,264.944885 
	C387.645325,302.120392 354.752686,324.496399 326.047607,324.841095 
	C303.976746,325.106079 285.614929,318.245148 271.033813,301.022369 
M277.323486,183.500000 
	C277.323395,173.835236 277.472504,164.167618 277.287872,154.506378 
	C277.018677,140.420532 280.263702,142.909668 264.638580,142.557083 
	C261.462952,142.485443 260.680878,143.920502 260.687714,146.777328 
	C260.784027,186.931198 260.522705,227.088989 261.036621,267.237000 
	C261.200653,280.053619 265.152222,292.022125 274.605133,301.677948 
	C290.980865,318.405182 310.728394,324.682343 333.654144,321.413788 
	C360.870972,317.533417 385.586121,296.548523 385.334930,263.846680 
	C385.052124,227.024109 385.328979,190.197250 385.356781,153.372269 
	C385.364960,142.541138 385.351868,142.738388 374.534729,142.499985 
	C370.048798,142.401093 368.541473,143.570435 368.566803,148.322357 
	C368.764160,185.313690 368.907776,222.309219 368.480042,259.296661 
	C368.393585,266.773254 367.286011,274.923035 364.126678,281.562042 
	C349.398560,312.511566 304.333099,314.380890 285.418060,287.862579 
	C279.297058,279.281158 277.624939,269.491821 277.492096,259.482574 
	C277.160400,234.492050 277.346161,209.494644 277.323486,183.500000 
z"/>
<path fill="#9ca3af" opacity="1.000000" stroke="none" 
	d="
M1521.739624,304.992920 
	C1521.735718,309.490753 1521.748291,313.490326 1521.723267,317.489716 
	C1521.703369,320.655060 1520.162231,322.611847 1516.937012,322.699799 
	C1512.107910,322.831543 1507.239868,323.054108 1502.459106,322.557220 
	C1500.934937,322.398804 1499.409180,320.233826 1498.327881,318.678436 
	C1497.777832,317.887146 1498.203613,316.411285 1498.203613,315.244904 
	C1498.202148,258.918213 1498.200684,202.591492 1498.204590,146.264786 
	C1498.205078,139.154449 1498.221436,139.034225 1505.448975,139.174957 
	C1518.751221,139.433929 1532.123535,139.095261 1545.334229,140.373611 
	C1566.100586,142.383118 1583.135010,150.795105 1590.717285,172.038666 
	C1599.263672,195.983124 1589.387329,228.132019 1563.920410,237.763870 
	C1559.618652,239.390884 1555.092407,240.424622 1550.152344,241.885513 
	C1553.705444,247.059631 1557.315674,252.474258 1561.083984,257.776489 
	C1575.220947,277.667633 1589.406494,297.524170 1603.581543,317.388184 
	C1605.839722,320.552490 1604.043457,322.442474 1601.191406,322.593262 
	C1594.379639,322.953552 1587.508667,323.019653 1580.719604,322.477631 
	C1578.729614,322.318726 1576.430542,320.067108 1575.128662,318.183350 
	C1562.845947,300.411713 1550.765503,282.500488 1538.588501,264.655548 
	C1534.190186,258.210052 1529.674194,251.844955 1525.251465,245.416000 
	C1524.616333,244.492645 1524.204346,243.415741 1523.689087,242.409897 
	C1523.039307,242.739243 1522.389648,243.068573 1521.739868,243.397919 
	C1521.739868,263.763489 1521.739868,284.129059 1521.739624,304.992920 
M1569.107056,305.348450 
	C1571.480713,308.767303 1573.814697,312.214600 1576.246216,315.591827 
	C1577.299683,317.055084 1578.493164,319.505737 1579.726685,319.571777 
	C1586.866333,319.953979 1594.036987,319.758423 1602.428711,319.758423 
	C1583.364990,292.800079 1565.101440,266.973450 1546.294556,240.378326 
	C1551.206421,239.131241 1554.938477,238.399490 1558.531616,237.237427 
	C1588.137451,227.662247 1601.339355,189.552612 1584.204468,163.347824 
	C1576.411865,151.430313 1564.651001,145.569611 1551.239624,144.013947 
	C1536.581055,142.313629 1521.718384,142.306656 1506.937622,141.752884 
	C1500.103149,141.496826 1500.087402,141.702713 1500.087158,148.557480 
	C1500.084839,201.542282 1500.085815,254.527069 1500.085815,307.511871 
	C1500.085815,320.152954 1500.085815,320.152954 1512.644165,320.108826 
	C1519.262573,320.085571 1519.270264,320.085571 1519.270386,313.697144 
	C1519.270630,291.203644 1519.226929,268.709930 1519.346802,246.217117 
	C1519.354980,244.692413 1520.398682,242.037659 1521.275757,241.898804 
	C1522.906006,241.640717 1524.805908,242.765457 1526.512085,243.503067 
	C1527.018311,243.721985 1527.234619,244.583817 1527.612549,245.131134 
	C1541.326416,264.995758 1555.043579,284.858124 1569.107056,305.348450 
z"/>
<path fill="#9ca3af" opacity="1.000000" stroke="none" 
	d="
M1054.875366,178.035767 
	C1050.635254,166.133881 1046.544678,154.591919 1042.077148,141.986130 
	C1048.698242,141.986130 1054.442139,141.677216 1060.106812,142.210739 
	C1061.464966,142.338684 1063.049683,145.094376 1063.701538,146.934982 
	C1073.367188,174.230789 1082.895752,201.575226 1092.451660,228.909988 
	C1097.282837,242.729523 1102.075928,256.562500 1106.975464,270.357727 
	C1107.426758,271.628418 1108.526978,272.668640 1109.325806,273.815918 
	C1110.366821,272.689209 1111.838257,271.739014 1112.383667,270.409027 
	C1119.390869,253.319931 1126.281006,236.182709 1133.170898,219.045578 
	C1143.968628,192.188217 1154.735474,165.318420 1165.558716,138.471313 
	C1165.961670,137.472061 1166.818481,136.655838 1168.203247,134.721359 
	C1187.300537,181.949722 1206.046387,228.309341 1224.792358,274.668976 
	C1225.429443,274.629974 1226.066406,274.591003 1226.703491,274.552002 
	C1229.182129,267.793304 1231.744629,261.063965 1234.124878,254.270737 
	C1243.589233,227.259750 1252.997681,200.229141 1262.424805,173.205078 
	C1265.548340,164.250961 1268.756958,155.324936 1271.737915,146.323532 
	C1272.841553,142.990936 1274.565430,141.487228 1278.253784,141.738373 
	C1283.015381,142.062576 1287.815796,141.817383 1293.643433,141.817383 
	C1270.985474,204.047379 1248.658813,265.367371 1225.769287,328.233337 
	C1206.498779,280.219940 1187.696167,233.372391 1168.893677,186.524857 
	C1168.257446,186.466415 1167.621216,186.407990 1166.984985,186.349564 
	C1147.482910,232.680435 1129.475342,279.637939 1110.422729,326.157227 
	C1109.938477,326.181580 1109.454102,326.205933 1108.969849,326.230286 
	C1090.988159,276.952087 1073.006592,227.673904 1054.875366,178.035767 
z"/>
<path fill="#9ca3af" opacity="1.000000" stroke="none" 
	d="
M277.323853,184.000000 
	C277.346161,209.494644 277.160400,234.492050 277.492096,259.482574 
	C277.624939,269.491821 279.297058,279.281158 285.418060,287.862579 
	C304.333099,314.380890 349.398560,312.511566 364.126678,281.562042 
	C367.286011,274.923035 368.393585,266.773254 368.480042,259.296661 
	C368.907776,222.309219 368.764160,185.313690 368.566803,148.322357 
	C368.541473,143.570435 370.048798,142.401093 374.534729,142.499985 
	C385.351868,142.738388 385.364960,142.541138 385.356781,153.372269 
	C385.328979,190.197250 385.052124,227.024109 385.334930,263.846680 
	C385.586121,296.548523 360.870972,317.533417 333.654144,321.413788 
	C310.728394,324.682343 290.980865,318.405182 274.605133,301.677948 
	C265.152222,292.022125 261.200653,280.053619 261.036621,267.237000 
	C260.522705,227.088989 260.784027,186.931198 260.687714,146.777328 
	C260.680878,143.920502 261.462952,142.485443 264.638580,142.557083 
	C280.263702,142.909668 277.018677,140.420532 277.287872,154.506378 
	C277.472504,164.167618 277.323395,173.835236 277.323853,184.000000 
z"/>
<path fill="#9ca3af" opacity="1.000000" stroke="none" 
	d="
M1568.933594,305.034607 
	C1555.043579,284.858124 1541.326416,264.995758 1527.612549,245.131134 
	C1527.234619,244.583817 1527.018311,243.721985 1526.512085,243.503067 
	C1524.805908,242.765457 1522.906006,241.640717 1521.275757,241.898804 
	C1520.398682,242.037659 1519.354980,244.692413 1519.346802,246.217117 
	C1519.226929,268.709930 1519.270630,291.203644 1519.270386,313.697144 
	C1519.270264,320.085571 1519.262573,320.085571 1512.644165,320.108826 
	C1500.085815,320.152954 1500.085815,320.152954 1500.085815,307.511871 
	C1500.085815,254.527069 1500.084839,201.542282 1500.087158,148.557480 
	C1500.087402,141.702713 1500.103149,141.496826 1506.937622,141.752884 
	C1521.718384,142.306656 1536.581055,142.313629 1551.239624,144.013947 
	C1564.651001,145.569611 1576.411865,151.430313 1584.204468,163.347824 
	C1601.339355,189.552612 1588.137451,227.662247 1558.531616,237.237427 
	C1554.938477,238.399490 1551.206421,239.131241 1546.294556,240.378326 
	C1565.101440,266.973450 1583.364990,292.800079 1602.428711,319.758423 
	C1594.036987,319.758423 1586.866333,319.953979 1579.726685,319.571777 
	C1578.493164,319.505737 1577.299683,317.055084 1576.246216,315.591827 
	C1573.814697,312.214600 1571.480713,308.767303 1568.933594,305.034607 
M1528.570801,224.079483 
	C1531.564209,223.965973 1534.581177,224.054672 1537.547119,223.706665 
	C1559.325195,221.151260 1573.445068,212.300262 1571.200806,186.754745 
	C1570.078125,173.977188 1563.148315,164.966827 1550.133911,162.260071 
	C1542.065552,160.581985 1533.646851,160.617966 1525.397461,159.767883 
	C1521.264526,159.341980 1519.919678,160.941605 1519.968018,165.120300 
	C1520.166626,182.263901 1520.058350,199.411148 1520.044556,216.557053 
	C1520.038452,224.087189 1520.018555,224.087173 1528.570801,224.079483 
z"/>
</svg>